<?xml version="1.0" standalone="no"?>
<!DOCTYPE svg PUBLIC "-//W3C//DTD SVG 1.1//EN" "http://www.w3.org/Graphics/SVG/1.1/DTD/svg11.dtd" >
<svg xmlns="http://www.w3.org/2000/svg">
<metadata>
Created by FontPrep 20130207 at Wed Jun 24 12:03:06 2015
 By Pixeloid Office
Font data copyright Google 2012
</metadata>
<defs>
<font id="8051b5c88618a7da73c207c9e9b7849e" horiz-adv-x='1024' >
  <font-face 
    font-family="RobotoCondensed-Bold"
    font-weight="700"
    font-stretch="normal"
    units-per-em="2048"
    panose-1="2 0 0 0 0 0 0 0 0 0"
    ascent="1638"
    descent="-410"
    x-height="1082"
    cap-height="1456"
    bbox="-1324.18 -555 2070 2171.02"
    underline-thickness="100"
    underline-position="-100"
    unicode-range="U+0002-FFFD"
  />
<missing-glyph horiz-adv-x="449" 
 />
    <glyph glyph-name="fi" unicode="fi" horiz-adv-x="1107" 
d="M1001 0h-285v1082h285v-1082zM597 1336q-162 0 -162 -184v-70h173v-206h-173v-876h-284v876h-133v206h133v70q0 207 112 318t316 111q119 0 292 -59l-40 -232q-136 46 -234 46z" />
    <glyph glyph-name=".notdef" horiz-adv-x="449" 
 />
    <glyph glyph-name=".null" horiz-adv-x="0" 
 />
    <glyph glyph-name="nonmarkingreturn" unicode="&#xd;" horiz-adv-x="449" 
 />
    <glyph glyph-name="uni0002" horiz-adv-x="16" 
 />
    <glyph glyph-name="uni0009" unicode="&#x9;" horiz-adv-x="16" 
 />
    <glyph glyph-name="space" unicode=" " horiz-adv-x="449" 
 />
    <glyph glyph-name="exclam" unicode="!" horiz-adv-x="506" 
d="M395 0h-280v258h280v-258zM397 506h-285v950h285v-950z" />
    <glyph glyph-name="quotedbl" unicode="&#x22;" horiz-adv-x="602" 
d="M352 1560h196v-263l-74 -251h-123l1 247v267zM51 1046v514h198v-263l-74 -251h-124z" />
    <glyph glyph-name="numbersign" unicode="#" horiz-adv-x="1034" 
d="M426 576h136l43 298h-136zM44 410v166h209l43 298h-189v166h213l61 416h172l-60 -416h136l60 416h173l-60 -416h186v-166h-210l-43 -298h189v-166h-213l-59 -410h-173l59 410h-136l-59 -410h-173l59 410h-185z" />
    <glyph glyph-name="dollar" unicode="$" horiz-adv-x="1019" 
d="M651 384q0 82 -33 130.5t-115 95.5q-194 86 -285.5 183t-91.5 271t93.5 282t250.5 127v212h144v-215q149 -28 236.5 -148.5t87.5 -313.5h-284q0 117 -35 180t-93 63t-87 -50t-29 -128t32.5 -127t117.5 -97q192 -91 283.5 -189t91.5 -273t-92 -279.5t-248 -123.5v-199
h-145v199q-161 20 -266 135t-105 337h284q0 -135 44 -193.5t111 -58.5t100 49t33 131z" />
    <glyph glyph-name="percent" unicode="%" horiz-adv-x="1356" 
d="M417 110l-134 74l601 1138l134 -74zM887 280q0 -56 28.5 -97t77.5 -41q91 0 91 138v77q0 57 -26 97t-74 40t-72.5 -40t-24.5 -97v-77zM700 357q0 128 75 214t211 86t210 -85.5t74 -214.5v-77q0 -130 -74 -215t-210 -85t-211 85t-75 215v77zM276 1099q0 -57 26 -96.5
t73 -39.5t72.5 39t25.5 97v77q0 58 -26 98t-73 40t-72.5 -40.5t-25.5 -97.5v-77zM90 1176q0 129 74.5 215t210.5 86t210 -85.5t74 -215.5v-77q0 -130 -73.5 -214.5t-209.5 -84.5t-211 85t-75 214v77z" />
    <glyph glyph-name="ampersand" unicode="&#x26;" horiz-adv-x="1221" 
d="M423 1112q0 -88 70 -190l59 44q50 36 67 73t17 85t-29 86.5t-79 38.5t-77.5 -42.5t-27.5 -94.5zM487 206q104 0 184 49l-259 344l-7 -6q-60 -82 -60 -178t43.5 -152.5t98.5 -56.5zM59 388q0 118 57.5 203.5t175.5 178.5q-122 185 -122 341q0 157 98.5 261.5t251.5 104.5
t243.5 -98.5t90.5 -238.5q0 -189 -161 -317l-81 -65l230 -304l6 1q58 112 58 256h208q0 -284 -122 -456l194 -255h-322l-64 84q-149 -105 -330 -105q-182 0 -296.5 113t-114.5 296z" />
    <glyph glyph-name="quotesingle" unicode="'" horiz-adv-x="302" 
d="M52 1560h190v-272l-66 -281h-123l-1 268v285z" />
    <glyph glyph-name="parenleft" unicode="(" horiz-adv-x="633" 
d="M109 591q0 384 131 658.5t297 356.5h6l50 -143q-105 -98 -177.5 -317.5t-72.5 -552.5v-28q0 -333 72 -552t178 -319l-50 -141h-6q-166 82 -297 355t-131 659v24z" />
    <glyph glyph-name="parenright" unicode=")" horiz-adv-x="632" 
d="M539 567q0 -375 -137 -654.5t-306 -359.5h-6l-52 141q104 98 177 318t73 553v28q0 332 -73.5 553t-176.5 319l52 141h6q169 -80 306 -361t137 -654v-24z" />
    <glyph glyph-name="asterisk" unicode="*" horiz-adv-x="825" 
d="M295 966l-264 92l53 173l260 -127l-19 352h178l-19 -358l253 125l53 -175l-268 -93l176 -269l-144 -107l-149 294l-150 -285l-143 103z" />
    <glyph glyph-name="plus" unicode="+" 
d="M630 810h306v-254h-306v-410h-269v410h-307v254h307v396h269v-396z" />
    <glyph glyph-name="comma" unicode="," horiz-adv-x="459" 
d="M106 241h252v-239l-145 -311h-166l59 319v231z" />
    <glyph glyph-name="hyphen" unicode="-" horiz-adv-x="748" 
d="M617 511h-497v228h497v-228z" />
    <glyph glyph-name="period" unicode="." horiz-adv-x="543" 
d="M405 0h-281v258h281v-258z" />
    <glyph glyph-name="slash" unicode="/" horiz-adv-x="646" 
d="M192 -125h-204l432 1581h206z" />
    <glyph glyph-name="zero" unicode="0" horiz-adv-x="1014" 
d="M649 548v361q0 176 -37 257t-103 76h-6q-139 10 -139 -333v-361q0 -348 141 -335h6q138 -13 138 335zM933 571q0 -291 -115.5 -441.5t-310.5 -150.5t-311 150.5t-116 441.5v313q0 290 115.5 441.5t310.5 151.5t311 -151.5t116 -441.5v-313z" />
    <glyph glyph-name="one" unicode="1" horiz-adv-x="1019" 
d="M682 0h-284v1159l-270 -6v205l554 99v-1457z" />
    <glyph glyph-name="two" unicode="2" horiz-adv-x="1019" 
d="M943 0h-860v193l397 503q148 210 148 346q0 93 -36 150t-105 57t-106.5 -69t-37.5 -181h-277l-2 5q-4 198 112 335.5t314 137.5t310 -116t112 -316q0 -134 -62.5 -248t-208.5 -298l-190 -272h492v-227z" />
    <glyph glyph-name="three" unicode="3" horiz-adv-x="1019" 
d="M650 410q0 223 -168 223h-142v220h142q150 0 150 205q0 85 -37 138t-99 53t-103 -47t-41 -123h-275l-2 6q-5 173 113.5 282.5t304.5 109.5t304 -108.5t118 -306.5q0 -99 -51 -183.5t-140 -131.5q102 -42 156 -130.5t54 -210.5q0 -199 -127.5 -313t-314.5 -114t-313 107.5
t-121 307.5l2 6h276q0 -84 44 -139t114 -55t113 55.5t43 148.5z" />
    <glyph glyph-name="four" unicode="4" horiz-adv-x="1019" 
d="M551 546v503l-6 1l-15 -27l-219 -477h240zM834 546h126v-228h-126v-318h-283v318h-483l-15 178l497 960h284v-910z" />
    <glyph glyph-name="five" unicode="5" horiz-adv-x="1019" 
d="M498 744q-109 0 -135 -117l-253 17l72 812h712v-233h-480l-31 -343q70 70 175 74q182 3 279.5 -125.5t97.5 -348.5t-110.5 -360.5t-300.5 -140.5t-316 111.5t-122 302.5l2 5l276 15q0 -98 40 -152.5t105 -54.5q143 0 143 259q0 129 -38 204t-116 75z" />
    <glyph glyph-name="six" unicode="6" horiz-adv-x="1019" 
d="M532 753q-115 0 -168 -78v-115q0 -171 45.5 -263t116.5 -92t110 81.5t39 199.5t-40 192.5t-103 74.5zM616 977q158 0 250.5 -138.5t92.5 -356.5t-119 -360.5t-314 -142.5t-320.5 156t-125.5 428v300q0 283 144.5 448.5t369.5 165.5q127 0 249 -62l-48 -215
q-106 46 -205 46t-161.5 -94.5t-59.5 -267.5l4 -4q85 97 243 97z" />
    <glyph glyph-name="seven" unicode="7" horiz-adv-x="1019" 
d="M55 1228v228h886v-228q-197 -253 -261.5 -486.5t-93.5 -601.5l-13 -140h-285l14 140q55 663 367 1088h-614z" />
    <glyph glyph-name="eight" unicode="8" horiz-adv-x="1019" 
d="M624 1054q0 91 -29.5 143t-85.5 52t-85 -50.5t-29 -142.5t29.5 -144.5t85.5 -52.5t85 52t29 143zM651 418q0 99 -39.5 156.5t-103.5 57.5t-102 -57.5t-38 -156.5t38 -155.5t103 -56.5t103.5 56.5t38.5 155.5zM910 1070q0 -110 -49.5 -194t-135.5 -131q98 -50 154 -140
t56 -207q0 -203 -117 -311t-308 -108t-309 108.5t-118 310.5q0 117 56 207.5t155 139.5q-87 47 -136 131t-49 194q0 193 110 300t290 107t290.5 -107t110.5 -300z" />
    <glyph glyph-name="nine" unicode="9" horiz-adv-x="1019" 
d="M495 670q97 0 153 91v166q0 158 -40 239t-105 77h-6q-61 4 -100 -82.5t-39 -210.5t35 -202t102 -78zM449 206q86 0 142.5 82t56.5 230v56q-81 -118 -207 -118q-171 0 -268.5 134t-97.5 360t120.5 376.5t308.5 150.5t307.5 -154.5t119.5 -430.5v-356q0 -256 -136.5 -406.5
t-345.5 -150.5q-137 0 -259 62l32 212q108 -47 227 -47z" />
    <glyph glyph-name="colon" unicode=":" horiz-adv-x="540" 
d="M408 0h-281v258h281v-258zM408 823h-281v258h281v-258z" />
    <glyph glyph-name="semicolon" unicode=";" horiz-adv-x="516" 
d="M399 823h-281v258h281v-258zM148 241h252v-239l-145 -311h-166l59 319v231z" />
    <glyph glyph-name="less" unicode="&#x3c;" horiz-adv-x="898" 
d="M305 545v-6l482 -203v-271l-739 365v230l739 364v-270z" />
    <glyph glyph-name="equal" unicode="=" horiz-adv-x="1023" 
d="M892 323h-772v229h772v-229zM892 756h-772v228h772v-228z" />
    <glyph glyph-name="greater" unicode="&#x3e;" horiz-adv-x="909" 
d="M593 543v6l-487 206v269l745 -364v-230l-745 -365v269z" />
    <glyph glyph-name="question" unicode="?" horiz-adv-x="898" 
d="M552 0h-281v247h281v-247zM579 1051q0 89 -37.5 143t-98.5 54t-100 -46.5t-40 -132.5h-276l-2 6q-3 197 111 299.5t306 102.5t307 -115.5t115 -312.5q0 -125 -64 -231.5t-160 -178.5q-51 -46 -68.5 -94.5t-17.5 -131.5h-284q1 136 39.5 202t147.5 159q122 120 122 277z
" />
    <glyph glyph-name="at" unicode="@" horiz-adv-x="1615" 
d="M929 789q-46 12 -75 12q-176 0 -202 -351q-21 -295 88 -295q46 0 83.5 28.5t66.5 103.5v6zM779 -285q160 0 293 69l35 -148q-60 -42 -151.5 -65.5t-179.5 -23.5q-353 0 -544.5 249.5t-175.5 679.5t227 684t555 254t528 -241t170 -657q-8 -219 -115.5 -378t-321.5 -159
q-72 0 -123.5 44.5t-72.5 126.5q-75 -168 -223 -168q-128 0 -196.5 119t-48.5 343t125.5 376t255.5 152q106 0 171 -26t142 -80l-3 -4h5l-46 -569q-5 -97 10 -132t41 -28l6 -1q96 -5 154.5 105t66.5 279q13 350 -119 546.5t-403 196.5t-427 -210.5t-168 -570.5
q-16 -352 126 -557.5t407 -205.5z" />
    <glyph glyph-name="A" unicode="A" horiz-adv-x="1134" 
d="M439 538h268l-131 515h-6zM765 309h-384l-78 -309h-287l410 1456h296l409 -1456h-287z" />
    <glyph glyph-name="B" unicode="B" horiz-adv-x="1136" 
d="M732 1031q0 197 -193 197h-144v-387h157q87 2 133.5 50.5t46.5 139.5zM596 227q179 -1 179 207t-160 208h-220v-415h201zM110 0v1456h429q225 0 351.5 -100t126.5 -298q0 -104 -46 -184.5t-138 -120.5q115 -27 170 -117t55 -211q0 -209 -119.5 -317t-342.5 -108h-486z
" />
    <glyph glyph-name="C" unicode="C" horiz-adv-x="1088" 
d="M356 510q0 -304 214 -304q103 0 143.5 59.5t35.5 203.5h274l3 -6q2 -240 -114 -362t-342 -122t-361 138.5t-135 392.5v435q0 253 130 392.5t356 139.5t344.5 -124t122.5 -367l-3 -6h-274q6 143 -39 206t-157 63q-198 0 -198 -302v-437z" />
    <glyph glyph-name="D" unicode="D" horiz-adv-x="1151" 
d="M395 1228v-1001h139q119 0 183.5 103.5t64.5 274.5v247q0 170 -64.5 273t-183.5 103h-139zM110 0v1456h440q224 0 370 -169.5t146 -436.5v-245q0 -267 -146 -436t-370 -169h-440z" />
    <glyph glyph-name="E" unicode="E" horiz-adv-x="1008" 
d="M884 639h-489v-412h575v-227h-860v1456h858v-228h-573v-362h489v-227z" />
    <glyph glyph-name="F" unicode="F" horiz-adv-x="1016" 
d="M889 605h-494v-605h-285v1456h866v-228h-581v-396h494v-227z" />
    <glyph glyph-name="G" unicode="G" horiz-adv-x="1179" 
d="M365 506q0 -300 233 -300q85 0 125.5 23t66.5 68v261h-192v200h476v-542q-59 -94 -177 -165.5t-299 -71.5q-234 0 -375.5 137t-141.5 390v444q0 251 136.5 389t370.5 138t354.5 -118.5t125.5 -339.5l-2 -6h-267q-3 123 -54.5 179.5t-156.5 56.5t-164 -73.5t-59 -223.5
v-446z" />
    <glyph glyph-name="H" unicode="H" horiz-adv-x="1241" 
d="M1131 0h-284v603h-452v-603h-285v1456h285v-626h452v626h284v-1456z" />
    <glyph glyph-name="I" unicode="I" horiz-adv-x="534" 
d="M408 0h-283v1456h283v-1456z" />
    <glyph glyph-name="J" unicode="J" horiz-adv-x="1015" 
d="M623 1456h283v-1012q0 -214 -121 -339.5t-311 -125.5t-305.5 112t-111.5 330l3 6h277q0 -115 40.5 -168t101.5 -53t102.5 63t41.5 175v1012z" />
    <glyph glyph-name="K" unicode="K" horiz-adv-x="1137" 
d="M395 605v-605h-285v1456h285v-592h92l284 592h349l-397 -665l430 -791h-346l-288 605h-124z" />
    <glyph glyph-name="L" unicode="L" horiz-adv-x="959" 
d="M395 227h532v-227h-817v1456h285v-1229z" />
    <glyph glyph-name="M" unicode="M" horiz-adv-x="1481" 
d="M1376 1456v-1456h-283v423l24 566l-6 1l-278 -990h-189l-275 982l-6 -1l25 -558v-423h-283v1456h369l261 -1069h6l264 1069h371z" />
    <glyph glyph-name="N" unicode="N" horiz-adv-x="1241" 
d="M1129 0h-283l-445 931l-6 -2v-929h-285v1456h285l445 -930l6 2v928h283v-1456z" />
    <glyph glyph-name="O" unicode="O" horiz-adv-x="1166" 
d="M357 523q-1 -316 225 -316t226 316v410q0 156 -58 235.5t-169 79.5q-224 0 -224 -315v-410zM1091 523q0 -256 -139 -400t-370 -144t-369 144t-138 400v408q0 255 138 400.5t368 145.5t370 -145.5t140 -400.5v-408z" />
    <glyph glyph-name="P" unicode="P" horiz-adv-x="1158" 
d="M395 750h221q91 0 139 67t48 171t-47.5 172t-139.5 68h-221v-478zM395 522v-522h-285v1456h506q218 0 344 -129t126 -339t-126.5 -338t-343.5 -128h-221z" />
    <glyph glyph-name="Q" unicode="Q" horiz-adv-x="1241" 
d="M363 523q-1 -316 225 -316t226 316v410q0 156 -58 235.5t-169 79.5q-224 0 -224 -315v-410zM81 523v408q0 255 138 400.5t368 145.5t370 -145.5t140 -400.5v-408q0 -225 -111 -367l216 -237l-176 -150l-224 249q-101 -39 -214 -39q-231 0 -369 144t-138 400z" />
    <glyph glyph-name="R" unicode="R" horiz-adv-x="1162" 
d="M395 806h190q87 0 132 53t45 152t-45 158t-131 59h-191v-422zM1057 352v-103q0 -60 14 -128.5t49 -99.5v-21h-294q-35 32 -44 104t-9 147v99q0 109 -44.5 169t-127.5 60h-206v-579h-284v1455h475q215 0 337.5 -113.5t122.5 -315.5q0 -228 -200 -328q211 -72 211 -346z
" />
    <glyph glyph-name="S" unicode="S" horiz-adv-x="1109" 
d="M568 202q190 0 189 180q0 84 -44 133t-155 97q-227 79 -340.5 179.5t-113.5 280.5t132 292.5t338 112.5t336.5 -125.5t126.5 -316.5l-2 -6h-276q0 100 -50 162t-138 62t-135.5 -51.5t-47.5 -126.5t53 -121.5t184 -103.5q207 -70 311.5 -177.5t104.5 -293.5t-126.5 -293
t-334.5 -107t-360.5 121.5t-147.5 348.5l2 6h277q1 -253 217 -253z" />
    <glyph glyph-name="T" unicode="T" horiz-adv-x="994" 
d="M967 1228h-328v-1228h-284v1228h-326v228h938v-228z" />
    <glyph glyph-name="U" unicode="U" horiz-adv-x="1176" 
d="M378 465q0 -259 212 -259q102 0 155.5 60t53.5 199v991h283v-991q0 -233 -136.5 -359.5t-357.5 -126.5t-357.5 127t-136.5 359v991h284v-991z" />
    <glyph glyph-name="V" unicode="V" horiz-adv-x="1129" 
d="M549 372l11 -56h6l254 1140h299l-407 -1456h-296l-407 1456h299z" />
    <glyph glyph-name="W" unicode="W" horiz-adv-x="1548" 
d="M1087 527h6l157 929h276l-281 -1456h-265l-205 892h-6l-203 -892h-264l-281 1456h276l157 -929h6l210 929h204z" />
    <glyph glyph-name="X" unicode="X" horiz-adv-x="1127" 
d="M558 947h6l198 509h329l-353 -722l377 -734h-343l-204 520h-6l-204 -520h-331l362 734l-353 722h327z" />
    <glyph glyph-name="Y" unicode="Y" horiz-adv-x="1124" 
d="M700 0h-284v536l-409 920h311l240 -624h6l243 624h309l-416 -938v-518z" />
    <glyph glyph-name="Z" unicode="Z" horiz-adv-x="998" 
d="M945 227v-227h-879v143l546 1086h-552v227h876v-138l-550 -1091h559z" />
    <glyph glyph-name="bracketleft" unicode="[" horiz-adv-x="530" 
d="M505 1478h-112v-1601h112v-216h-399v2034h399v-217z" />
    <glyph glyph-name="backslash" unicode="\" horiz-adv-x="758" 
d="M0 1456h280l515 -1581h-282z" />
    <glyph glyph-name="bracketright" unicode="]" horiz-adv-x="530" 
d="M21 1695h399v-2034h-399v216h114v1601h-114v217z" />
    <glyph glyph-name="asciicircum" unicode="^" horiz-adv-x="785" 
d="M257 729h-219l253 727h206l253 -727h-219l-134 422l-2 8h-6z" />
    <glyph glyph-name="underscore" unicode="_" horiz-adv-x="793" 
d="M783 -220h-775v220h775v-220z" />
    <glyph glyph-name="grave" unicode="`" horiz-adv-x="629" 
d="M549 1211h-230l-246 260l3 6h298z" />
    <glyph glyph-name="a" unicode="a" horiz-adv-x="944" 
d="M434 193q43 0 79.5 23t57.5 59v199h-107q-65 0 -94 -45t-29 -107t25 -95.5t68 -33.5zM57 308q0 153 102.5 241t304.5 88h107v88q0 164 -114 164q-96 0 -96 -133l-275 1l-3 6q-5 141 104.5 240t283.5 99t279.5 -98.5t105.5 -280.5v-438q0 -154 45 -285h-282
q-26 59 -36 124q-88 -145 -226 -145q-139 0 -219.5 88t-80.5 241z" />
    <glyph glyph-name="b" unicode="b" 
d="M506 207q90 0 120.5 63.5t30.5 187.5v147q0 127 -31.5 198t-118.5 71t-131 -88v-505q40 -74 130 -74zM582 1102q176 0 267 -135.5t91 -361.5v-147q0 -219 -90.5 -349t-265.5 -130q-147 0 -229 137l-17 -116h-246v1560h284v-570q79 112 206 112z" />
    <glyph glyph-name="c" unicode="c" horiz-adv-x="910" 
d="M487 206q117 0 117 167h258l3 -6q3 -170 -104.5 -279t-273.5 -109q-210 0 -322.5 137t-112.5 354v139q0 216 112 354.5t304 138.5t296 -113t101 -305l-2 -5h-259q0 88 -29.5 141.5t-89.5 53.5q-85 0 -117 -72t-32 -193v-139q0 -124 32 -194t119 -70z" />
    <glyph glyph-name="d" unicode="d" 
d="M487 874q-149 0 -149 -339v-21q0 -145 33.5 -226t116.5 -81t130 80v492q-49 95 -131 95zM54 514v21q0 255 94 411t265 156q122 0 205 -116v574h284v-1560h-247l-19 118q-86 -139 -224 -139q-171 0 -264.5 146.5t-93.5 388.5z" />
    <glyph glyph-name="e" unicode="e" horiz-adv-x="938" 
d="M608 685q0 189 -119 189q-127 0 -136 -229h255v40zM513 -21q-204 0 -324 134t-120 338v152q0 219 111.5 359t305.5 140t297.5 -127t103.5 -346v-174h-535v-4q0 -107 48.5 -176t137.5 -69t139 18t119 60l72 -181q-56 -54 -149.5 -89t-205.5 -35z" />
    <glyph glyph-name="f" unicode="f" horiz-adv-x="647" 
d="M550 1352q-110 0 -110 -150v-120h174v-206h-174v-876h-284v876h-133v206h133v120q0 182 94 280.5t264 98.5q52 0 142 -21l-24 -218q-50 10 -82 10z" />
    <glyph glyph-name="g" unicode="g" horiz-adv-x="994" 
d="M338 591v-133q0 -118 34 -184.5t118 -66.5t129 71v512q-46 84 -131 84q-150 0 -150 -283zM54 458v133q0 229 94.5 370t266.5 141q138 0 223 -141l18 121h247v-1061q0 -213 -123.5 -335.5t-338.5 -122.5q-147 0 -296 83l50 219q114 -64 244 -64q180 0 180 221v62
q-81 -105 -206 -105q-171 0 -265 131.5t-94 347.5z" />
    <glyph glyph-name="h" unicode="h" 
d="M600 1102q143 0 225 -114.5t82 -353.5v-634h-285v636q0 134 -31.5 186t-103.5 52t-119 -66v-808h-284v1560h284v-607q89 149 232 149z" />
    <glyph glyph-name="i" unicode="i" horiz-adv-x="495" 
d="M389 1343h-284v217h284v-217zM389 0h-284v1082h284v-1082z" />
    <glyph glyph-name="j" unicode="j" horiz-adv-x="487" 
d="M389 1343h-284v217h284v-217zM19 -208q91 0 91 175v1115h285v-1115q0 -194 -90 -299t-250 -105q-58 0 -128 18l12 223q44 -12 80 -12z" />
    <glyph glyph-name="k" unicode="k" horiz-adv-x="963" 
d="M376 450v-450h-284v1560h284v-886h47l183 408h327l-282 -487l329 -595h-325l-227 450h-52z" />
    <glyph glyph-name="l" unicode="l" horiz-adv-x="495" 
d="M389 0h-284v1560h284v-1560z" />
    <glyph glyph-name="m" unicode="m" horiz-adv-x="1507" 
d="M629 1102q170 0 233 -176q88 176 262 176q134 0 211.5 -110.5t77.5 -337.5v-654h-285v654q0 125 -27 172.5t-84 47.5q-81 0 -126 -90q3 -57 3 -76v-708h-283v654q0 124 -27.5 172t-94.5 48t-113 -74v-800h-283v1082h265l11 -138q90 158 260 158z" />
    <glyph glyph-name="n" unicode="n" 
d="M619 1102q135 0 212.5 -104t77.5 -327v-671h-285v671q0 112 -31.5 157.5t-102.5 45.5t-119 -75v-799h-284v1082h265l12 -149q95 169 255 169z" />
    <glyph glyph-name="o" unicode="o" 
d="M497 874q-156 0 -156 -267v-134q0 -125 34.5 -196t120.5 -71t121.5 71.5t35.5 195.5v134q0 267 -156 267zM58 607q0 218 115.5 356.5t323.5 138.5t324 -138.5t116 -356.5v-134q0 -220 -116 -357t-324 -137t-323.5 137t-115.5 357v134z" />
    <glyph glyph-name="p" unicode="p" 
d="M656 591q0 283 -155 283q-83 0 -125 -86v-510q40 -72 132 -72q148 0 148 252v133zM581 1102q171 0 265 -140.5t94 -370.5v-133q0 -216 -94 -347.5t-263 -131.5q-130 0 -207 105v-500h-284v1498h263l10 -107q81 127 216 127z" />
    <glyph glyph-name="q" unicode="q" 
d="M338 591v-133q0 -119 33.5 -185.5t117.5 -66.5t127 71v515q-44 82 -129 82q-149 0 -149 -283zM54 458v133q0 229 94 370t265 141q136 0 221 -137l20 117h247v-1498h-285v499q-80 -104 -204 -104q-170 0 -264 131.5t-94 347.5z" />
    <glyph glyph-name="r" unicode="r" horiz-adv-x="655" 
d="M376 0h-284v1082h265l11 -145l5 -2q26 78 72.5 122.5t97.5 44.5t89 -12l-29 -267l-107 3q-86 0 -120 -84v-742z" />
    <glyph glyph-name="s" unicode="s" horiz-adv-x="888" 
d="M563 282q0 48 -36 81t-138 82q-163 61 -244.5 138t-81.5 205t104.5 221t280.5 93t283 -96t103 -245l-3 -6h-274q0 148 -114 148q-46 0 -78 -31t-32 -77t32 -75.5t139 -80.5q170 -58 252 -137.5t82 -213.5t-110 -221.5t-293 -87.5t-292 109t-104 246l2 6h260
q4 -162 145 -162q57 0 87 28t30 76z" />
    <glyph glyph-name="t" unicode="t" horiz-adv-x="648" 
d="M146 332v544h-128v206h128v269h284v-269h150v-206h-150v-543q0 -123 71 -123q44 0 84 11l22 -216q-84 -26 -179 -26q-282 0 -282 353z" />
    <glyph glyph-name="u" unicode="u" 
d="M85 428v654h284v-656q0 -219 111 -219q92 0 143 69v806h285v-1082h-250l-17 125q-90 -146 -242 -146q-151 0 -232.5 109.5t-81.5 339.5z" />
    <glyph glyph-name="v" unicode="v" horiz-adv-x="909" 
d="M439 408l13 -82h6l139 756h297l-300 -1082h-278l-301 1082h297z" />
    <glyph glyph-name="w" unicode="w" horiz-adv-x="1280" 
d="M882 468l6 1l101 613h263l-222 -1082h-237l-151 583h-6l-151 -583h-237l-224 1082h265l101 -616h6l151 616h184z" />
    <glyph glyph-name="x" unicode="x" horiz-adv-x="909" 
d="M451 741h6l114 341h320l-268 -535l276 -547h-319l-119 351h-6l-119 -351h-320l275 547l-268 535h319z" />
    <glyph glyph-name="y" unicode="y" horiz-adv-x="909" 
d="M160 -207q108 0 139 118l25 80l-319 1091h305l130 -638l2 -11l158 649h304l-365 -1245q-41 -117 -109.5 -195.5t-209.5 -78.5q-44 0 -134 24l33 212q34 -6 41 -6z" />
    <glyph glyph-name="z" unicode="z" horiz-adv-x="883" 
d="M814 227v-227h-749v169l412 685h-400v228h730v-165l-416 -690h423z" />
    <glyph glyph-name="braceleft" unicode="{" horiz-adv-x="586" 
d="M433 305v-206q0 -120 23.5 -198t86.5 -109l-53 -158q-167 55 -238 175t-71 290v206q0 209 -137 209v202q137 0 137 209v207q0 171 71 290.5t238 174.5l53 -157q-62 -31 -86 -109.5t-24 -198.5v-207q0 -221 -165 -310q165 -93 165 -310z" />
    <glyph glyph-name="bar" unicode="|" horiz-adv-x="467" 
d="M316 -270h-163v1726h163v-1726z" />
    <glyph glyph-name="braceright" unicode="}" horiz-adv-x="586" 
d="M543 514q-139 0 -139 -209v-206q0 -170 -71.5 -290t-237.5 -175l-53 158q62 31 87 109t25 198v206q0 222 167 310q-167 86 -167 310v207q0 252 -112 308l53 157q166 -55 237.5 -174.5t71.5 -290.5v-207q0 -209 139 -209v-202z" />
    <glyph glyph-name="asciitilde" unicode="~" horiz-adv-x="1121" 
d="M372 596q-36 0 -63 -51.5t-27 -126.5l-193 26q0 165 74.5 273t200.5 108t251 -132q68 -85 129 -85q37 0 64.5 52.5t27.5 128.5l194 -28q0 -164 -76.5 -273.5t-201.5 -109.5t-248 134q-40 45 -68 64.5t-64 19.5z" />
    <glyph glyph-name="nonbreakingspace" unicode="&#xa0;" horiz-adv-x="449" 
 />
    <glyph glyph-name="exclamdown" unicode="&#xa1;" horiz-adv-x="534" 
d="M408 821h-280v261h280v-261zM410 -374h-285v949h285v-949z" />
    <glyph glyph-name="cent" unicode="&#xa2;" horiz-adv-x="1031" 
d="M524 206q117 0 117 167h266q0 -149 -81 -252.5t-213 -131.5v-234h-184v233q-166 30 -253 161t-87 321v139q0 189 87.5 321t252.5 163v225h184v-225q136 -29 215 -137.5t79 -276.5h-266q0 88 -29.5 141.5t-89.5 53.5q-85 0 -117 -72t-32 -193v-139q0 -124 32 -194t119 -70
z" />
    <glyph glyph-name="sterling" unicode="&#xa3;" horiz-adv-x="1055" 
d="M1000 227v-227h-855v227h8q36 12 54 94.5t18 171.5l-3 98h-130v225h122l-7 209q0 211 105.5 331.5t287.5 120.5t287 -113t102 -297l-3 -6h-276q0 96 -34 142t-82 46t-75 -58.5t-27 -165.5l8 -209h280v-225h-270l3 -82q0 -161 -113 -282h600z" />
    <glyph glyph-name="currency" unicode="&#xa4;" horiz-adv-x="1257" 
d="M276 607q0 -188 103 -317.5t251 -129.5t251 129.5t103 317.5t-103 317.5t-251 129.5t-251 -129.5t-103 -317.5zM104 610q0 204 99 367l-129 150l130 137l123 -142q135 112 302.5 112t306.5 -114l125 145l132 -138l-133 -153q97 -164 97 -363t-90 -358l126 -143l-132 -137
l-114 131q-138 -124 -315 -124t-316 122l-112 -128l-130 136l122 140q-92 156 -92 360z" />
    <glyph glyph-name="yen" unicode="&#xa5;" horiz-adv-x="1082" 
d="M932 737v-200h-253v-111h253v-198h-253v-228h-283v228h-271v198h271v111h-271v200h215l-318 719h310l207 -561h6l206 561h310l-318 -719h189z" />
    <glyph glyph-name="brokenbar" unicode="&#xa6;" horiz-adv-x="467" 
d="M359 698h-251v758h251v-758zM108 -270v791h251v-791h-251z" />
    <glyph glyph-name="section" unicode="&#xa7;" horiz-adv-x="1115" 
d="M368 570q0 -86 41.5 -127t177.5 -94q57 -19 59 -20l38 -13q56 48 56 128t-47.5 125t-177.5 97q-38 11 -99 35q-48 -45 -48 -131zM101 1086q0 182 123 286.5t331 104.5t327 -111.5t115 -310.5l-2 -6h-276q0 87 -43.5 143.5t-125.5 56.5t-122.5 -42.5t-40.5 -112.5
t43 -108.5t181 -85.5q210 -63 309 -155.5t99 -266.5t-142 -264q125 -103 125 -286q0 -184 -121.5 -284t-324.5 -100t-337 99t-129 317l2 6h276q0 -105 52 -149.5t132 -44.5t123 41t43 107t-47.5 106t-180.5 89q-208 64 -307 156.5t-99 266.5t143 265q-126 101 -126 283z" />
    <glyph glyph-name="dieresis" unicode="&#xa8;" horiz-adv-x="1000" 
d="M394 1258h-251v198h251v-198zM842 1258h-250v198h250v-198z" />
    <glyph glyph-name="copyright" unicode="&#xa9;" horiz-adv-x="1433" 
d="M82 728q0 316 182 532t444 216t445.5 -216t183.5 -532t-184.5 -532.5t-444.5 -216.5t-443 216.5t-183 532.5zM193 728q0 -265 150.5 -447.5t364.5 -182.5t365 182.5t151 447.5t-151 446.5t-365 181.5t-364.5 -181.5t-150.5 -446.5zM852 861q0 184 -156 186
q-81 -1 -124 -72t-43 -186v-120q0 -118 42.5 -188.5t122.5 -70.5t118.5 43.5t38.5 142.5h136l3 -6q3 -151 -75.5 -229.5t-220.5 -78.5t-225 106t-83 281v119q0 173 83 280t225 107t221 -79.5t76 -228.5l-3 -6h-136z" />
    <glyph glyph-name="ordfeminine" unicode="&#xaa;" horiz-adv-x="785" 
d="M258 899.5q0 -70.5 91 -70.5q39 0 82 30t58 66v112h-105q-59 0 -92.5 -33.5t-33.5 -104zM320 692q-111 0 -166.5 61.5t-55.5 168.5t72.5 167t212.5 60h106v53q0 134 -89 134q-51 0 -79 -27.5t-28 -78.5l-150 13l-2 6q-5 98 68 163t189 65t184 -71.5t68 -204.5v-314
q0 -104 22 -181h-162q-14 46 -18 95q-61 -109 -172 -109z" />
    <glyph glyph-name="guillemotleft" unicode="&#xab;" horiz-adv-x="904" 
d="M269 516l195 -397h-176l-233 388v19l233 389h176zM621 516l195 -397h-176l-233 388v19l233 389h176z" />
    <glyph glyph-name="logicalnot" unicode="&#xac;" horiz-adv-x="972" 
d="M825 375h-183v263h-527v163h710v-426z" />
    <glyph glyph-name="uni00AD" unicode="&#xad;" horiz-adv-x="748" 
d="M617 511h-497v228h497v-228z" />
    <glyph glyph-name="registered" unicode="&#xae;" horiz-adv-x="1433" 
d="M585 783h112q64 0 107.5 31.5t43.5 97.5t-34 96t-118 30h-111v-255zM845 460v54q0 73 -29.5 107t-94.5 34h-136v-339h-140v850h251q134 0 212 -68t78 -187t-102 -182q101 -57 101 -214v-56q0 -90 14 -127v-16h-143q-11 29 -11 144zM194 728q0 -265 151 -447.5t365 -182.5
t364 182.5t150 447.5t-150 446.5t-364 181.5t-365 -181.5t-151 -446.5zM82 728q0 316 183 532t444 216t444.5 -216t183.5 -532t-183.5 -532.5t-444.5 -216.5t-444 216.5t-183 532.5z" />
    <glyph glyph-name="macron" unicode="&#xaf;" horiz-adv-x="949" 
d="M800 1297h-654v160h654v-160z" />
    <glyph glyph-name="macron" unicode="&#x2c9;" horiz-adv-x="949" 
d="M800 1297h-654v160h654v-160z" />
    <glyph glyph-name="degree" unicode="&#xb0;" horiz-adv-x="725" 
d="M255 1203q0 -55 31.5 -92t75.5 -37t74.5 36.5t30.5 92.5t-30.5 94t-74.5 38t-75.5 -38.5t-31.5 -93.5zM117 1202q0 112 72.5 193.5t172.5 81.5t171.5 -81.5t71.5 -193.5t-71 -191t-172 -79t-173 79t-72 191z" />
    <glyph glyph-name="plusminus" unicode="&#xb1;" horiz-adv-x="992" 
d="M803 7h-705v230h705v-230zM618 956h279v-235h-279v-382h-250v382h-281v235h281v361h250v-361z" />
    <glyph glyph-name="twosuperior" unicode="&#xb2;" horiz-adv-x="748" 
d="M371 1326q-79 0 -79 -111h-190l-2 6q-4 107 72 183t204 75t196 -65t68 -164t-48 -167q-48 -66 -156 -163l-79 -96l2 -5h286v-152h-539v152l262 254q47 49 60 83t13 77q0 93 -70 93z" />
    <glyph glyph-name="threesuperior" unicode="&#xb3;" horiz-adv-x="740" 
d="M278 901q0 -94 92 -94q38 1 64 25t26 72t-28 77q-28 28 -78 28h-91v127h91q93 0 93 98q-1 39 -21 65t-60 26q-40 -1 -58 -23q-20 -22 -20 -55h-189l-2 6q-5 101 71 163t200 62t201 -60t77 -169q0 -55 -30 -101t-84 -71q126 -50 126 -187q0 -112 -77 -174t-208 -61
q-131 0 -213 63t-75 177l2 6h191z" />
    <glyph glyph-name="acute" unicode="&#xb4;" horiz-adv-x="683" 
d="M276 1478h299l3 -6l-249 -260h-229z" />
    <glyph glyph-name="mu" unicode="&#xb5;" horiz-adv-x="1113" 
d="M544 -21q-86 0 -139 35v-430h-285v1498h285v-637q1 -137 33.5 -186.5t100.5 -49.5q101 0 148 94v779h284v-1082h-267l-4 51q-70 -72 -156 -72z" />
    <glyph glyph-name="paragraph" unicode="&#xb6;" horiz-adv-x="951" 
d="M537 0v520h-65q-197 0 -306.5 129.5t-109.5 337.5t109.5 338.5t306.5 130.5h351v-1456h-286z" />
    <glyph glyph-name="periodcentered" unicode="&#xb7;" horiz-adv-x="566" 
d="M418 560h-278v262h278v-262z" />
    <glyph glyph-name="cedilla" unicode="&#xb8;" horiz-adv-x="493" 
d="M314 -52q122 -26 122 -188q0 -94 -80.5 -158t-227.5 -64l-6 163q73 0 73 84q0 42 -25.5 59t-86.5 22l27 141h213z" />
    <glyph glyph-name="onesuperior" unicode="&#xb9;" horiz-adv-x="513" 
d="M405 665h-200v634l-103 -1v156l303 23v-812z" />
    <glyph glyph-name="ordmasculine" unicode="&#xba;" horiz-adv-x="811" 
d="M265 1027q0 -89 35.5 -142.5t101.5 -53.5t101 53.5t35 142.5v115q0 85 -35 139.5t-101 54.5t-101.5 -54.5t-35.5 -139.5v-115zM104 1142q0 148 81 241.5t217 93.5t216.5 -93.5t80.5 -241.5v-115q0 -150 -80.5 -242.5t-216.5 -92.5t-217 92.5t-81 242.5v115z" />
    <glyph glyph-name="guillemotright" unicode="&#xbb;" horiz-adv-x="905" 
d="M236 949l233 -389v-19l-233 -389h-176l195 398l-195 399h176zM598 949l233 -389v-19l-233 -389h-176l195 398l-195 399h176z" />
    <glyph glyph-name="onequarter" unicode="&#xbc;" horiz-adv-x="1260" 
d="M402 664h-200v634l-103 -1v156l303 23v-812zM333 118l-134 74l601 1138l134 -74zM949 294v253l-6 2l-149 -255h155zM1149 294h75v-154h-75v-140h-200v140h-343l-13 124l356 534v3h200v-507z" />
    <glyph glyph-name="onehalf" unicode="&#xbd;" horiz-adv-x="1317" 
d="M326 118l-134 74l601 1138l134 -74zM385 664h-200v634l-103 -1v156l303 23v-812zM964 659q-79 0 -79 -111h-190l-2 6q-5 106 71 182t204 76t196 -64t69 -166q-1 -100 -49 -166t-155 -163l-79 -96l2 -5h286v-152h-539v152l262 254q47 48 60 82t13 78q0 93 -70 93z" />
    <glyph glyph-name="threequarters" unicode="&#xbe;" horiz-adv-x="1452" 
d="M518 118l-134 74l601 1138l134 -74zM1103 294v253l-6 2l-149 -255h155zM1303 294h75v-154h-75v-140h-200v140h-343l-13 124l356 534v3h200v-507zM264 902q0 -94 92 -94q38 0 64 24t26 74q0 48 -28 76t-78 28h-91v127h91q93 0 93 98q-1 39 -21 65t-60 26t-58 -22
q-20 -22 -20 -56h-189l-2 6q-5 102 71 164t200 61q124 1 201 -59t77 -170q0 -54 -30 -100t-84 -72q126 -50 126 -187q0 -111 -77 -173t-208 -62t-213 63t-75 177l2 6h191z" />
    <glyph glyph-name="questiondown" unicode="&#xbf;" horiz-adv-x="909" 
d="M373 1082h283v-248h-283v248zM346 30q0 -88 37 -141.5t98 -53.5t100.5 46t41.5 131h277l2 -6q1 -196 -113.5 -298t-306.5 -102t-305.5 115t-113.5 311q0 125 62.5 231t159.5 179q51 44 69 92.5t18 133.5h284q-2 -137 -41 -203t-147 -158q-122 -122 -122 -277z" />
    <glyph glyph-name="Agrave" unicode="&#xc0;" horiz-adv-x="1134" 
d="M439 538h268l-131 515h-6zM765 309h-384l-78 -309h-287l410 1456h296l409 -1456h-287zM719 1559h-230l-246 260l3 6h298z" />
    <glyph glyph-name="Aacute" unicode="&#xc1;" horiz-adv-x="1134" 
d="M439 538h268l-131 515h-6zM765 309h-384l-78 -309h-287l410 1456h296l409 -1456h-287zM605 1826h299l3 -6l-249 -260h-229z" />
    <glyph glyph-name="Acircumflex" unicode="&#xc2;" horiz-adv-x="1134" 
d="M439 538h268l-131 515h-6zM765 309h-384l-78 -309h-287l410 1456h296l409 -1456h-287zM909 1591h-222l-114 134l-112 -134h-217v25l250 237h159l256 -240v-22z" />
    <glyph glyph-name="Atilde" unicode="&#xc3;" horiz-adv-x="1134" 
d="M439 538h268l-131 515h-6zM765 309h-384l-78 -309h-287l410 1456h296l409 -1456h-287zM730 1626q-68 0 -146 44t-114 44t-54 -33q-19 -33 -19 -79l-149 43q0 93 52 161t129 68q45 0 129 -44t120 -44t56 32t19 81l148 -45q0 -96 -51 -162t-120 -66z" />
    <glyph glyph-name="Adieresis" unicode="&#xc4;" horiz-adv-x="1134" 
d="M439 538h268l-131 515h-6zM765 309h-384l-78 -309h-287l410 1456h296l409 -1456h-287zM475 1606h-251v198h251v-198zM923 1606h-250v198h250v-198z" />
    <glyph glyph-name="Aring" unicode="&#xc5;" horiz-adv-x="1134" 
d="M439 538h268l-131 515h-6zM765 309h-384l-78 -309h-287l410 1456h296l409 -1456h-287zM489 1740q0 -42 24 -70q23 -26 61 -26t61 26t23 69t-23 70t-61 27t-61 -27q-24 -27 -24 -69zM381 1738q0 80 56 136q56 55 137 55t136 -55t55 -136q-1 -81 -55 -133t-136 -52
q-82 1 -137 53q-56 52 -56 132z" />
    <glyph glyph-name="AE" unicode="&#xc6;" horiz-adv-x="1656" 
d="M573 578h224l-17 497l-6 1zM1591 0h-774l-12 339h-329l-136 -339h-331l639 1456h891v-231h-481l12 -363h400v-230h-392l15 -402h498v-230z" />
    <glyph glyph-name="Ccedilla" unicode="&#xc7;" horiz-adv-x="1088" 
d="M645 -52q122 -26 122 -188q-1 -94 -81 -158t-227 -64l-6 163q73 0 73 84q0 42 -26 59t-86 22l24 126q-136 30 -229 126q-135 138 -135 392v435q0 253 130 393t356 139q226 0 344 -124t123 -367l-3 -6h-274q6 143 -39 206t-157 63q-198 0 -198 -302v-437q0 -304 214 -304
q104 0 144 60t35 203h274l3 -6q2 -240 -114 -362q-94 -99 -262 -118z" />
    <glyph glyph-name="Egrave" unicode="&#xc8;" horiz-adv-x="1008" 
d="M884 639h-489v-412h575v-227h-860v1456h858v-228h-573v-362h489v-227zM659 1559h-230l-246 260l3 6h298z" />
    <glyph glyph-name="Eacute" unicode="&#xc9;" horiz-adv-x="1008" 
d="M884 639h-489v-412h575v-227h-860v1456h858v-228h-573v-362h489v-227zM545 1826h299l3 -6l-249 -260h-229z" />
    <glyph glyph-name="Ecircumflex" unicode="&#xca;" horiz-adv-x="1008" 
d="M884 639h-489v-412h575v-227h-860v1456h858v-228h-573v-362h489v-227zM849 1591h-222l-114 134l-112 -134h-217v25l250 237h159l256 -240v-22z" />
    <glyph glyph-name="Edieresis" unicode="&#xcb;" horiz-adv-x="1008" 
d="M884 639h-489v-412h575v-227h-860v1456h858v-228h-573v-362h489v-227zM415 1606h-251v198h251v-198zM863 1606h-250v198h250v-198z" />
    <glyph glyph-name="Igrave" unicode="&#xcc;" horiz-adv-x="534" 
d="M408 0h-283v1456h283v-1456zM415 1559h-230l-246 260l3 6h298z" />
    <glyph glyph-name="Iacute" unicode="&#xcd;" horiz-adv-x="534" 
d="M408 0h-283v1456h283v-1456zM299 1826h299l3 -6l-249 -260h-229z" />
    <glyph glyph-name="Icircumflex" unicode="&#xce;" horiz-adv-x="534" 
d="M408 0h-283v1456h283v-1456zM605 1591h-222l-114 134l-112 -134h-217v25l250 237h159l256 -240v-22z" />
    <glyph glyph-name="Idieresis" unicode="&#xcf;" horiz-adv-x="534" 
d="M408 0h-283v1456h283v-1456zM171 1606h-251v198h251v-198zM619 1606h-250v198h250v-198z" />
    <glyph glyph-name="Eth" unicode="&#xd0;" horiz-adv-x="1181" 
d="M612 655h-187v-428h139q119 0 183.5 103.5t64.5 274.5v247q0 170 -64.5 273t-183.5 103h-139v-398h187v-175zM140 0v655h-109v175h109v626h440q224 0 370 -169.5t146 -436.5v-245q0 -267 -146 -436t-370 -169h-440z" />
    <glyph glyph-name="Ntilde" unicode="&#xd1;" horiz-adv-x="1241" 
d="M1129 0h-283l-445 931l-6 -2v-929h-285v1456h285l445 -930l6 2v928h283v-1456zM776 1626q-68 0 -146 44t-114 44t-54 -33q-19 -33 -19 -79l-149 43q0 93 52 161t129 68q45 0 129 -44t120 -44t56 32t19 81l148 -45q0 -96 -51 -162t-120 -66z" />
    <glyph glyph-name="Ograve" unicode="&#xd2;" horiz-adv-x="1166" 
d="M357 523q-1 -316 225 -316t226 316v410q0 155 -58 235t-169 80q-224 0 -224 -315v-410zM1091 523q0 -256 -139 -400t-370 -144t-369 144t-138 400v408q0 255 138 401t368 145q230 1 370 -145t140 -401v-408zM729 1580h-230l-246 260l3 6h298z" />
    <glyph glyph-name="Oacute" unicode="&#xd3;" horiz-adv-x="1166" 
d="M357 523q-1 -316 225 -316t226 316v410q0 155 -58 235t-169 80q-224 0 -224 -315v-410zM1091 523q0 -256 -139 -400t-370 -144t-369 144t-138 400v408q0 255 138 401t368 145q230 1 370 -145t140 -401v-408zM615 1847h299l3 -6l-249 -260h-229z" />
    <glyph glyph-name="Ocircumflex" unicode="&#xd4;" horiz-adv-x="1166" 
d="M357 523q-1 -316 225 -316t226 316v410q0 155 -58 235t-169 80q-224 0 -224 -315v-410zM1091 523q0 -256 -139 -400t-370 -144t-369 144t-138 400v408q0 255 138 401t368 145q230 1 370 -145t140 -401v-408zM919 1612h-222l-114 134l-112 -134h-217v25l250 237h159
l256 -240v-22z" />
    <glyph glyph-name="Otilde" unicode="&#xd5;" horiz-adv-x="1166" 
d="M357 523q-1 -316 225 -316t226 316v410q0 155 -58 235t-169 80q-224 0 -224 -315v-410zM1091 523q0 -256 -139 -400t-370 -144t-369 144t-138 400v408q0 255 138 401t368 145q230 1 370 -145t140 -401v-408zM740 1647q-68 0 -146 44t-114 44t-54 -33q-19 -33 -19 -79
l-149 43q0 93 52 161t129 68q45 0 129 -44t120 -44q36 1 56 33t19 80l148 -45q0 -95 -51 -161t-120 -67z" />
    <glyph glyph-name="Odieresis" unicode="&#xd6;" horiz-adv-x="1166" 
d="M357 523q-1 -316 225 -316t226 316v410q0 155 -58 235t-169 80q-224 0 -224 -315v-410zM1091 523q0 -256 -139 -400t-370 -144t-369 144t-138 400v408q0 255 138 401t368 145q230 1 370 -145t140 -401v-408zM485 1627h-251v198h251v-198zM933 1627h-250v198h250v-198z
" />
    <glyph glyph-name="multiply" unicode="&#xd7;" horiz-adv-x="978" 
d="M60 369l272 314l-275 317l167 163l262 -302l262 302l166 -163l-275 -316l274 -315l-167 -163l-261 300l-260 -300z" />
    <glyph glyph-name="Oslash" unicode="&#xd8;" horiz-adv-x="1215" 
d="M588 207q226 0 226 316v414l-6 1l-342 -697q45 -34 122 -34zM587 1248q-224 0 -224 -315v-410q0 -116 25 -168l6 -1l382 781q-57 113 -189 113zM1097 931v-408q0 -256 -139 -400t-370 -144q-130 0 -228 45l-57 -117h-127l86 176q-181 146 -181 440v408q0 255 138 400.5
t368 145.5q180 0 310 -93l65 132h129l-106 -216q112 -147 112 -369z" />
    <glyph glyph-name="Ugrave" unicode="&#xd9;" horiz-adv-x="1176" 
d="M378 465q0 -259 212 -259q102 0 155 60q54 60 54 199v991h283v-991q0 -233 -136 -359t-358 -127q-222 0 -358 127t-136 359v991h284v-991zM732 1559h-230l-246 260l3 6h298z" />
    <glyph glyph-name="Uacute" unicode="&#xda;" horiz-adv-x="1176" 
d="M378 465q0 -259 212 -259q102 0 155 60q54 60 54 199v991h283v-991q0 -233 -136 -359t-358 -127q-222 0 -358 127t-136 359v991h284v-991zM618 1826h299l3 -6l-249 -260h-229z" />
    <glyph glyph-name="Ucircumflex" unicode="&#xdb;" horiz-adv-x="1176" 
d="M378 465q0 -259 212 -259q102 0 155 60q54 60 54 199v991h283v-991q0 -233 -136 -359t-358 -127q-222 0 -358 127t-136 359v991h284v-991zM922 1591h-222l-114 134l-112 -134h-217v25l250 237h159l256 -240v-22z" />
    <glyph glyph-name="Udieresis" unicode="&#xdc;" horiz-adv-x="1176" 
d="M378 465q0 -259 212 -259q102 0 155 60q54 60 54 199v991h283v-991q0 -233 -136 -359t-358 -127q-222 0 -358 127t-136 359v991h284v-991zM488 1606h-251v198h251v-198zM936 1606h-250v198h250v-198z" />
    <glyph glyph-name="Yacute" unicode="&#xdd;" horiz-adv-x="1124" 
d="M700 0h-284v536l-409 920h311l240 -624h6l243 624h309l-416 -938v-518zM601 1825h299l3 -6l-249 -260h-229z" />
    <glyph glyph-name="Thorn" unicode="&#xde;" horiz-adv-x="1079" 
d="M393 515h165q94 0 139.5 62.5t45.5 158.5t-46 160.5t-139 64.5h-163l-2 2v-448zM393 1456v-268h165q223 0 346.5 -124t123.5 -326t-123.5 -326t-346.5 -124h-165v-288h-285v1456h285z" />
    <glyph glyph-name="germandbls" unicode="&#xdf;" horiz-adv-x="1132" 
d="M678 205q53 0 84 38t31 107t-120 201.5t-120 272.5q0 94 44 192t44 168t-35.5 114.5t-85.5 44.5t-84 -65.5t-34 -177.5v-1100h-283v1104q0 223 114 344t315 121q161 0 268 -96t107 -269q0 -105 -42.5 -200.5t-42.5 -168.5q0 -53 118.5 -194t118.5 -282q0 -380 -395 -380
q-66 0 -131 15t-98 40l50 224q74 -53 177 -53z" />
    <glyph glyph-name="agrave" unicode="&#xe0;" horiz-adv-x="944" 
d="M434 193q44 0 80 23t57 59v199h-107q-65 0 -94 -45t-29 -107t25 -95q25 -34 68 -34zM57 308q1 153 103 241t304 88h107v88q0 164 -114 164q-96 0 -96 -133l-275 1l-3 6q-5 141 105 240t283 99t279 -98t106 -281v-438q0 -154 45 -285h-282q-26 59 -36 124
q-88 -145 -226 -145q-139 0 -219 88t-81 241zM612 1237h-230l-246 260l3 6h298z" />
    <glyph glyph-name="aacute" unicode="&#xe1;" horiz-adv-x="944" 
d="M434 193q44 0 80 23t57 59v199h-107q-65 0 -94 -45t-29 -107t25 -95q25 -34 68 -34zM57 308q1 153 103 241t304 88h107v88q0 164 -114 164q-96 0 -96 -133l-275 1l-3 6q-5 141 105 240t283 99t279 -98t106 -281v-438q0 -154 45 -285h-282q-26 59 -36 124
q-88 -145 -226 -145q-139 0 -219 88t-81 241zM498 1504h299l3 -6l-249 -260h-229z" />
    <glyph glyph-name="acircumflex" unicode="&#xe2;" horiz-adv-x="944" 
d="M434 193q44 0 80 23t57 59v199h-107q-65 0 -94 -45t-29 -107t25 -95q25 -34 68 -34zM57 308q1 153 103 241t304 88h107v88q0 164 -114 164q-96 0 -96 -133l-275 1l-3 6q-5 141 105 240t283 99t279 -98t106 -281v-438q0 -154 45 -285h-282q-26 59 -36 124
q-88 -145 -226 -145q-139 0 -219 88t-81 241zM802 1269h-222l-114 134l-112 -134h-217v25l250 237h159l256 -240v-22z" />
    <glyph glyph-name="atilde" unicode="&#xe3;" horiz-adv-x="944" 
d="M434 193q44 0 80 23t57 59v199h-107q-65 0 -94 -45t-29 -107t25 -95q25 -34 68 -34zM57 308q1 153 103 241t304 88h107v88q0 164 -114 164q-96 0 -96 -133l-275 1l-3 6q-5 141 105 240t283 99t279 -98t106 -281v-438q0 -154 45 -285h-282q-26 59 -36 124
q-88 -145 -226 -145q-139 0 -219 88t-81 241zM623 1304q-69 0 -147 44t-112 44q-36 0 -55 -33t-19 -79l-149 43q-1 93 51 161t130 68q46 0 130 -44t119 -44t55 32t20 81l148 -45q0 -96 -51 -162t-120 -66z" />
    <glyph glyph-name="adieresis" unicode="&#xe4;" horiz-adv-x="944" 
d="M434 193q44 0 80 23t57 59v199h-107q-65 0 -94 -45t-29 -107t25 -95q25 -34 68 -34zM57 308q1 153 103 241t304 88h107v88q0 164 -114 164q-96 0 -96 -133l-275 1l-3 6q-5 141 105 240t283 99t279 -98t106 -281v-438q0 -154 45 -285h-282q-26 59 -36 124
q-88 -145 -226 -145q-139 0 -219 88t-81 241zM370 1284h-251v198h251v-198zM818 1284h-250v198h250v-198z" />
    <glyph glyph-name="aring" unicode="&#xe5;" horiz-adv-x="944" 
d="M434 193q44 0 80 23t57 59v199h-107q-65 0 -94 -45t-29 -107t25 -95q25 -34 68 -34zM57 308q1 153 103 241t304 88h107v88q0 164 -114 164q-96 0 -96 -133l-275 1l-3 6q-5 141 105 240t283 99t279 -98t106 -281v-438q0 -154 45 -285h-282q-26 59 -36 124
q-88 -145 -226 -145q-139 0 -219 88t-81 241zM382 1418q0 -42 24 -70q24 -26 62 -26t60 26q23 26 23 69t-23 70q-22 27 -60 27t-62 -27t-24 -69zM274 1416q0 80 56 136q56 55 137 55t136 -55t55 -136t-54 -133t-136 -52q-82 1 -138 53t-56 132z" />
    <glyph glyph-name="ae" unicode="&#xe6;" horiz-adv-x="1479" 
d="M1153 671q0 203 -112 203q-73 0 -106 -60t-39 -170h257v27zM324 313q0 -129 122 -129q41 0 88 27t76 65v190h-134q-71 0 -111.5 -44.5t-40.5 -108.5zM1057 -21q-215 0 -334 148q-118 -148 -332 -148q-168 0 -259 90.5t-91 248.5t110.5 244.5t322.5 86.5h136v56
q0 79 -30 124t-85 45t-87.5 -37t-32.5 -92l-275 17l-2 6q-5 145 106.5 239.5t288.5 94.5t281 -92q107 92 277 92q171 0 275 -131t104 -356v-160h-535q11 -249 196 -249q77 0 127.5 18.5t115.5 59.5l71 -183q-53 -49 -147.5 -85.5t-200.5 -36.5z" />
    <glyph glyph-name="ccedilla" unicode="&#xe7;" horiz-adv-x="910" 
d="M577 -52q122 -26 122 -188q-1 -94 -81 -158t-227 -64l-6 163q73 0 73 84q0 42 -26 59t-86 22l24 125q-128 29 -206 125q-112 137 -112 354v139q0 217 112 355t304 138t296 -113t101 -305l-2 -5h-259q0 87 -30 141t-89 54q-85 0 -117 -72t-32 -193v-139q0 -124 32 -194
t119 -70q117 0 117 167h258l3 -6q3 -170 -105 -279q-75 -76 -177 -99z" />
    <glyph glyph-name="egrave" unicode="&#xe8;" horiz-adv-x="938" 
d="M608 685q0 189 -119 189q-127 0 -136 -229h255v40zM513 -21q-204 0 -324 134t-120 338v152q-1 219 111 359t306 140t297 -127q104 -127 104 -346v-174h-535v-4q0 -107 48 -176t138 -69q89 0 139 18t119 60l72 -181q-56 -54 -150 -89t-205 -35zM611 1238h-230l-246 260
l3 6h298z" />
    <glyph glyph-name="eacute" unicode="&#xe9;" horiz-adv-x="938" 
d="M608 685q0 189 -119 189q-127 0 -136 -229h255v40zM513 -21q-204 0 -324 134t-120 338v152q-1 219 111 359t306 140t297 -127q104 -127 104 -346v-174h-535v-4q0 -107 48 -176t138 -69q89 0 139 18t119 60l72 -181q-56 -54 -150 -89t-205 -35zM497 1505h299l3 -6
l-249 -260h-229z" />
    <glyph glyph-name="ecircumflex" unicode="&#xea;" horiz-adv-x="938" 
d="M608 685q0 189 -119 189q-127 0 -136 -229h255v40zM513 -21q-204 0 -324 134t-120 338v152q-1 219 111 359t306 140t297 -127q104 -127 104 -346v-174h-535v-4q0 -107 48 -176t138 -69q89 0 139 18t119 60l72 -181q-56 -54 -150 -89t-205 -35zM801 1270h-222l-114 134
l-112 -134h-217v25l250 237h159l256 -240v-22z" />
    <glyph glyph-name="edieresis" unicode="&#xeb;" horiz-adv-x="938" 
d="M608 685q0 189 -119 189q-127 0 -136 -229h255v40zM513 -21q-204 0 -324 134t-120 338v152q-1 219 111 359t306 140t297 -127q104 -127 104 -346v-174h-535v-4q0 -107 48 -176t138 -69q89 0 139 18t119 60l72 -181q-56 -54 -150 -89t-205 -35zM369 1285h-251v198h251
v-198zM817 1285h-250v198h250v-198z" />
    <glyph glyph-name="igrave" unicode="&#xec;" horiz-adv-x="513" 
d="M398 0h-285v1082h285v-1082zM403 1216h-230l-246 260l3 6h298z" />
    <glyph glyph-name="iacute" unicode="&#xed;" horiz-adv-x="513" 
d="M398 0h-285v1082h285v-1082zM287 1483h299l3 -6l-249 -260h-229z" />
    <glyph glyph-name="icircumflex" unicode="&#xee;" horiz-adv-x="513" 
d="M398 0h-285v1082h285v-1082zM593 1250h-222l-114 134l-112 -134h-217v25l250 237h159l256 -240v-22z" />
    <glyph glyph-name="idieresis" unicode="&#xef;" horiz-adv-x="513" 
d="M398 0h-285v1082h285v-1082zM159 1263h-251v198h251v-198zM607 1263h-250v198h250v-198z" />
    <glyph glyph-name="eth" unicode="&#xf0;" horiz-adv-x="1053" 
d="M322 475q0 -120 51.5 -194.5t139.5 -74.5t139 108t51 279v70q-64 87 -188 87q-93 0 -143 -77.5t-50 -197.5zM988 664v-71q0 -270 -138 -442t-344 -172t-337 139.5t-131 357.5t113.5 352.5t313.5 134.5q120 0 206 -71l4 4q-35 140 -118 242l-181 -119l-72 111l155 101
q-55 38 -127 69l89 217q145 -42 264 -139l173 112l70 -110l-147 -96q207 -247 207 -620z" />
    <glyph glyph-name="ntilde" unicode="&#xf1;" 
d="M619 1102q135 0 213 -104t77 -327v-671h-285v671q0 111 -32 157t-102 46q-71 0 -119 -75v-799h-284v1082h265l12 -149q95 169 255 169zM652 1304q-68 0 -146 44t-114 44t-54 -33q-19 -33 -19 -79l-149 43q0 93 52 161t129 68q45 0 129 -44t120 -44t56 32t19 81l148 -45
q0 -96 -51 -162t-120 -66z" />
    <glyph glyph-name="ograve" unicode="&#xf2;" 
d="M497 874q-156 0 -156 -267v-134q0 -125 35 -196q34 -71 120 -71t122 72t35 195v134q0 267 -156 267zM58 607q0 219 116 357t323 138q208 0 324 -138t116 -357v-134q0 -220 -116 -357t-324 -137q-207 0 -323 137t-116 357v134zM641 1237h-230l-246 260l3 6h298z" />
    <glyph glyph-name="oacute" unicode="&#xf3;" 
d="M497 874q-156 0 -156 -267v-134q0 -125 35 -196q34 -71 120 -71t122 72t35 195v134q0 267 -156 267zM58 607q0 219 116 357t323 138q208 0 324 -138t116 -357v-134q0 -220 -116 -357t-324 -137q-207 0 -323 137t-116 357v134zM527 1504h299l3 -6l-249 -260h-229z" />
    <glyph glyph-name="ocircumflex" unicode="&#xf4;" 
d="M497 874q-156 0 -156 -267v-134q0 -125 35 -196q34 -71 120 -71t122 72t35 195v134q0 267 -156 267zM58 607q0 219 116 357t323 138q208 0 324 -138t116 -357v-134q0 -220 -116 -357t-324 -137q-207 0 -323 137t-116 357v134zM831 1269h-222l-114 134l-112 -134h-217v25
l250 237h159l256 -240v-22z" />
    <glyph glyph-name="otilde" unicode="&#xf5;" 
d="M497 874q-156 0 -156 -267v-134q0 -125 35 -196q34 -71 120 -71t122 72t35 195v134q0 267 -156 267zM58 607q0 219 116 357t323 138q208 0 324 -138t116 -357v-134q0 -220 -116 -357t-324 -137q-207 0 -323 137t-116 357v134zM652 1304q-68 0 -146 44t-114 44t-54 -33
q-19 -33 -19 -79l-149 43q0 93 52 161t129 68q45 0 129 -44t120 -44t56 32t19 81l148 -45q0 -96 -51 -162t-120 -66z" />
    <glyph glyph-name="odieresis" unicode="&#xf6;" 
d="M497 874q-156 0 -156 -267v-134q0 -125 35 -196q34 -71 120 -71t122 72t35 195v134q0 267 -156 267zM58 607q0 219 116 357t323 138q208 0 324 -138t116 -357v-134q0 -220 -116 -357t-324 -137q-207 0 -323 137t-116 357v134zM397 1284h-251v198h251v-198zM845 1284h-250
v198h250v-198z" />
    <glyph glyph-name="divide" unicode="&#xf7;" horiz-adv-x="1005" 
d="M638 167h-281v230h281v-230zM638 971h-281v230h281v-230zM937 577h-878v221h878v-221z" />
    <glyph glyph-name="oslash" unicode="&#xf8;" horiz-adv-x="997" 
d="M498 206q84 0 119.5 71.5t35.5 195.5v134q0 44 -6 86l-6 1l-197 -479q22 -9 54 -9zM497 874q-156 0 -156 -267v-134q0 -79 8 -105l6 -1l203 494q-30 13 -61 13zM58 473v134q0 218 115.5 356.5t323.5 138.5q78 0 151 -23l57 138h152l-85 -206q165 -136 165 -404v-134
q0 -220 -116 -357t-323 -137q-71 0 -144 20l-58 -142h-151l85 206q-172 130 -172 410z" />
    <glyph glyph-name="ugrave" unicode="&#xf9;" 
d="M85 428v654h284v-656q0 -219 111 -219q92 0 143 69v806h285v-1082h-250l-17 125q-90 -146 -242 -146q-151 -1 -233 109t-81 340zM639 1216h-230l-246 260l3 6h298z" />
    <glyph glyph-name="uacute" unicode="&#xfa;" 
d="M85 428v654h284v-656q0 -219 111 -219q92 0 143 69v806h285v-1082h-250l-17 125q-90 -146 -242 -146q-151 -1 -233 109t-81 340zM525 1483h299l3 -6l-249 -260h-229z" />
    <glyph glyph-name="ucircumflex" unicode="&#xfb;" 
d="M85 428v654h284v-656q0 -219 111 -219q92 0 143 69v806h285v-1082h-250l-17 125q-90 -146 -242 -146q-151 -1 -233 109t-81 340zM829 1250h-222l-114 134l-112 -134h-217v25l250 237h159l256 -240v-22z" />
    <glyph glyph-name="udieresis" unicode="&#xfc;" 
d="M85 428v654h284v-656q0 -219 111 -219q92 0 143 69v806h285v-1082h-250l-17 125q-90 -146 -242 -146q-151 -1 -233 109t-81 340zM395 1263h-251v198h251v-198zM843 1263h-250v198h250v-198z" />
    <glyph glyph-name="yacute" unicode="&#xfd;" horiz-adv-x="909" 
d="M160 -207q108 0 139 118l25 80l-319 1091h305l130 -638l2 -11l158 649h304l-365 -1245q-41 -117 -109 -195t-210 -79q-44 0 -134 24l33 212q34 -6 41 -6zM483 1483h299l3 -6l-249 -260h-229z" />
    <glyph glyph-name="thorn" unicode="&#xfe;" horiz-adv-x="999" 
d="M657 591q0 283 -155 283q-83 0 -125 -86v-511q41 -71 132 -71q148 0 148 252v133zM582 1102q171 0 265 -140.5t94 -370.5v-133q0 -216 -94 -347.5t-263 -131.5q-130 0 -207 105v-500h-284v1976h284v-570q79 112 205 112z" />
    <glyph glyph-name="ydieresis" unicode="&#xff;" horiz-adv-x="909" 
d="M160 -207q108 0 139 118l25 80l-319 1091h305l130 -638l2 -11l158 649h304l-365 -1245q-41 -117 -109 -195t-210 -79q-44 0 -134 24l33 212q34 -6 41 -6zM355 1263h-251v198h251v-198zM803 1263h-250v198h250v-198z" />
    <glyph glyph-name="Amacron" unicode="&#x100;" horiz-adv-x="1134" 
d="M439 538h268l-131 515h-6zM765 309h-384l-78 -309h-287l410 1456h296l409 -1456h-287zM902 1617h-654v160h654v-160z" />
    <glyph glyph-name="amacron" unicode="&#x101;" horiz-adv-x="944" 
d="M434 193q44 0 80 23t57 59v199h-107q-65 0 -94 -45t-29 -107t25 -95q25 -34 68 -34zM57 308q1 153 103 241t304 88h107v88q0 164 -114 164q-96 0 -96 -133l-275 1l-3 6q-5 141 105 240t283 99t279 -98t106 -281v-438q0 -154 45 -285h-282q-26 59 -36 124
q-88 -145 -226 -145q-139 0 -219 88t-81 241zM797 1297h-654v160h654v-160z" />
    <glyph glyph-name="Abreve" unicode="&#x102;" horiz-adv-x="1134" 
d="M439 538h268l-131 515h-6zM765 309h-384l-78 -309h-287l410 1456h296l409 -1456h-287zM574 1601q-145 0 -231 81t-81 209l2 6h207q-1 -53 25 -87t78 -34t76 34t25 87h209l2 -6q4 -129 -82 -209t-230 -81z" />
    <glyph glyph-name="abreve" unicode="&#x103;" horiz-adv-x="944" 
d="M434 193q44 0 80 23t57 59v199h-107q-65 0 -94 -45t-29 -107t25 -95q25 -34 68 -34zM57 308q1 153 103 241t304 88h107v88q0 164 -114 164q-96 0 -96 -133l-275 1l-3 6q-5 141 105 240t283 99t279 -98t106 -281v-438q0 -154 45 -285h-282q-26 59 -36 124
q-88 -145 -226 -145q-139 0 -219 88t-81 241zM467 1279q-145 0 -231 81t-81 209l2 6h207q0 -53 26 -87t77 -34q53 0 77 34t24 87h209l2 -6q5 -129 -81 -209t-231 -81z" />
    <glyph glyph-name="Aogonek" unicode="&#x104;" horiz-adv-x="1134" 
d="M439 538h268l-131 515h-6zM1044 0q-76 -101 -76 -149q0 -47 13 -69t51 -22t83 20l32 -151q-76 -44 -168 -44q-93 1 -157 55t-63 164q0 110 86 196h-1l-79 309h-384l-78 -309h-287l410 1456h296l409 -1456h-87z" />
    <glyph glyph-name="aogonek" unicode="&#x105;" horiz-adv-x="944" 
d="M434 193q44 0 80 23t57 59v199h-107q-65 0 -94 -45t-29 -107t25 -95q25 -34 68 -34zM813 0q-76 -101 -76 -149q0 -47 13 -69t51 -22t83 20l32 -151q-76 -44 -168 -44q-92 1 -156 55t-64 165t89 199q-25 57 -34 120q-88 -145 -226 -145q-139 0 -219 88t-81 241
q1 153 103 241t304 88h107v88q0 164 -114 164q-96 0 -96 -133l-275 1l-3 6q-5 141 105 240t283 99t279 -98t106 -281v-438q0 -154 45 -285h-88z" />
    <glyph glyph-name="Cacute" unicode="&#x106;" horiz-adv-x="1088" 
d="M356 510q0 -304 214 -304q104 0 144 60t35 203h274l3 -6q2 -240 -114 -362t-342 -122q-226 1 -361 139t-135 392v435q0 253 130 393t356 139q226 0 344 -124t123 -367l-3 -6h-274q6 143 -39 206t-157 63q-198 0 -198 -302v-437zM590 1847h299l3 -6l-249 -260h-229z" />
    <glyph glyph-name="cacute" unicode="&#x107;" horiz-adv-x="910" 
d="M487 206q117 0 117 167h258l3 -6q3 -170 -105 -279t-273 -109q-211 0 -323 137t-112 354v139q0 217 112 355t304 138t296 -113t101 -305l-2 -5h-259q0 87 -30 141t-89 54q-85 0 -117 -72t-32 -193v-139q0 -124 32 -194t119 -70zM486 1504h299l3 -6l-249 -260h-229z" />
    <glyph glyph-name="Ccircumflex" unicode="&#x108;" horiz-adv-x="1088" 
d="M356 510q0 -304 214 -304q104 0 144 60t35 203h274l3 -6q2 -240 -114 -362t-342 -122q-226 1 -361 139t-135 392v435q0 253 130 393t356 139q226 0 344 -124t123 -367l-3 -6h-274q6 143 -39 206t-157 63q-198 0 -198 -302v-437zM894 1612h-222l-114 134l-112 -134h-217
v25l250 237h159l256 -240v-22z" />
    <glyph glyph-name="ccircumflex" unicode="&#x109;" horiz-adv-x="910" 
d="M487 206q117 0 117 167h258l3 -6q3 -170 -105 -279t-273 -109q-211 0 -323 137t-112 354v139q0 217 112 355t304 138t296 -113t101 -305l-2 -5h-259q0 87 -30 141t-89 54q-85 0 -117 -72t-32 -193v-139q0 -124 32 -194t119 -70zM790 1269h-222l-114 134l-112 -134h-217
v25l250 237h159l256 -240v-22z" />
    <glyph glyph-name="uni010A" unicode="&#x10a;" horiz-adv-x="1088" 
d="M356 510q0 -304 214 -304q104 0 144 60t35 203h274l3 -6q2 -240 -114 -362t-342 -122q-226 1 -361 139t-135 392v435q0 253 130 393t356 139q226 0 344 -124t123 -367l-3 -6h-274q6 143 -39 206t-157 63q-198 0 -198 -302v-437zM700 1628h-291v241h291v-241z" />
    <glyph glyph-name="uni010B" unicode="&#x10b;" horiz-adv-x="910" 
d="M487 206q117 0 117 167h258l3 -6q3 -170 -105 -279t-273 -109q-211 0 -323 137t-112 354v139q0 217 112 355t304 138t296 -113t101 -305l-2 -5h-259q0 87 -30 141t-89 54q-85 0 -117 -72t-32 -193v-139q0 -124 32 -194t119 -70zM596 1285h-291v241h291v-241z" />
    <glyph glyph-name="Ccaron" unicode="&#x10c;" horiz-adv-x="1088" 
d="M356 510q0 -304 214 -304q104 0 144 60t35 203h274l3 -6q2 -240 -114 -362t-342 -122q-226 1 -361 139t-135 392v435q0 253 130 393t356 139q226 0 344 -124t123 -367l-3 -6h-274q6 143 -39 206t-157 63q-198 0 -198 -302v-437zM902 1893v-17l-248 -253h-192l-248 255v15
h256l88 -127l88 127h256z" />
    <glyph glyph-name="ccaron" unicode="&#x10d;" horiz-adv-x="910" 
d="M487 206q117 0 117 167h258l3 -6q3 -170 -105 -279t-273 -109q-211 0 -323 137t-112 354v139q0 217 112 355t304 138t296 -113t101 -305l-2 -5h-259q0 87 -30 141t-89 54q-85 0 -117 -72t-32 -193v-139q0 -124 32 -194t119 -70zM798 1550v-17l-248 -253h-192l-248 255v15
h256l88 -127l88 127h256z" />
    <glyph glyph-name="Dcaron" unicode="&#x10e;" horiz-adv-x="1151" 
d="M395 1228v-1001h139q120 -1 184 103t64 275v247q0 170 -64 273t-184 103h-139zM110 0v1456h440q224 0 370 -170t146 -436v-245q0 -267 -146 -436t-370 -169h-440zM850 1872v-17l-248 -253h-192l-248 255v15h256l88 -127l88 127h256z" />
    <glyph glyph-name="dcaron" unicode="&#x10f;" horiz-adv-x="1145" 
d="M487 874q-149 0 -149 -339v-21q0 -145 34 -226t116 -81q83 0 130 80v492q-49 95 -131 95zM54 514v21q0 255 94 411t265 156q122 0 205 -116v574h284v-1560h-247l-19 118q-86 -139 -224 -139q-170 1 -264 147t-94 388zM1009 1559h180v-161l-119 -231h-114l53 240v152z" />
    <glyph glyph-name="Dcroat" unicode="&#x110;" horiz-adv-x="1181" 
d="M612 655h-187v-428h139q119 0 183.5 103.5t64.5 274.5v247q0 170 -64.5 273t-183.5 103h-139v-398h187v-175zM140 0v655h-109v175h109v626h440q224 0 370 -169.5t146 -436.5v-245q0 -267 -146 -436t-370 -169h-440z" />
    <glyph glyph-name="dcroat" unicode="&#x111;" horiz-adv-x="1025" 
d="M487 874q-149 0 -149 -339v-21q0 -145 33.5 -226t116.5 -81t130 80v492q-49 95 -131 95zM413 1102q122 0 205 -116v237h-185v175h185v162h284v-162h112v-175h-112v-1223h-247l-19 118q-86 -139 -224 -139q-171 0 -264.5 146.5t-93.5 388.5v21q0 255 94 411t265 156z" />
    <glyph glyph-name="Emacron" unicode="&#x112;" horiz-adv-x="1008" 
d="M884 639h-489v-412h575v-227h-860v1456h858v-228h-573v-362h489v-227zM842 1617h-654v160h654v-160z" />
    <glyph glyph-name="emacron" unicode="&#x113;" horiz-adv-x="938" 
d="M608 685q0 189 -119 189q-127 0 -136 -229h255v40zM513 -21q-204 0 -324 134t-120 338v152q-1 219 111 359t306 140t297 -127q104 -127 104 -346v-174h-535v-4q0 -107 48 -176t138 -69q89 0 139 18t119 60l72 -181q-56 -54 -150 -89t-205 -35zM796 1297h-654v160h654
v-160z" />
    <glyph glyph-name="Ebreve" unicode="&#x114;" horiz-adv-x="1008" 
d="M884 639h-489v-412h575v-227h-860v1456h858v-228h-573v-362h489v-227zM514 1601q-145 0 -231 81t-81 209l2 6h207q-1 -53 25 -87t78 -34t76 34t25 87h209l2 -6q4 -129 -82 -209t-230 -81z" />
    <glyph glyph-name="ebreve" unicode="&#x115;" horiz-adv-x="938" 
d="M608 685q0 189 -119 189q-127 0 -136 -229h255v40zM513 -21q-204 0 -324 134t-120 338v152q-1 219 111 359t306 140t297 -127q104 -127 104 -346v-174h-535v-4q0 -107 48 -176t138 -69q89 0 139 18t119 60l72 -181q-56 -54 -150 -89t-205 -35zM466 1280q-145 0 -231 81
t-81 209l2 6h207q-1 -53 25 -87t78 -34t76 34t25 87h209l2 -6q4 -130 -82 -210t-230 -80z" />
    <glyph glyph-name="Edotaccent" unicode="&#x116;" horiz-adv-x="1008" 
d="M884 639h-489v-412h575v-227h-860v1456h858v-228h-573v-362h489v-227zM655 1607h-291v241h291v-241z" />
    <glyph glyph-name="edotaccent" unicode="&#x117;" horiz-adv-x="938" 
d="M608 685q0 189 -119 189q-127 0 -136 -229h255v40zM513 -21q-204 0 -324 134t-120 338v152q-1 219 111 359t306 140t297 -127q104 -127 104 -346v-174h-535v-4q0 -107 48 -176t138 -69q89 0 139 18t119 60l72 -181q-56 -54 -150 -89t-205 -35zM607 1286h-291v241h291
v-241z" />
    <glyph glyph-name="Eogonek" unicode="&#x118;" horiz-adv-x="1008" 
d="M595 0q-76 -101 -76 -149q0 -47 13 -69t51 -22t83 20l32 -151q-76 -44 -168 -44q-92 1 -156 55t-64 164t86 196h-286v1456h858v-228h-573v-362h489v-227h-489v-412h575v-227h-375z" />
    <glyph glyph-name="eogonek" unicode="&#x119;" horiz-adv-x="938" 
d="M608 685q0 189 -119 189q-127 0 -136 -229h255v40zM469 -178q0 88 39 157q-201 2 -320 135t-119 337v152q-1 219 111 359t306 140t297 -127q104 -127 104 -346v-174h-535v-4q0 -107 48 -176t138 -69q89 0 139 18t119 60l72 -181q-49 -47 -126 -80q-64 -88 -64 -134
q0 -45 13 -67t51 -22t83 20l32 -151q-76 -44 -168 -44q-93 1 -157 55t-63 142z" />
    <glyph glyph-name="Ecaron" unicode="&#x11a;" horiz-adv-x="1008" 
d="M884 639h-489v-412h575v-227h-860v1456h858v-228h-573v-362h489v-227zM857 1872v-17l-248 -253h-192l-248 255v15h256l88 -127l88 127h256z" />
    <glyph glyph-name="ecaron" unicode="&#x11b;" horiz-adv-x="938" 
d="M608 685q0 189 -119 189q-127 0 -136 -229h255v40zM513 -21q-204 0 -324 134t-120 338v152q-1 219 111 359t306 140t297 -127q104 -127 104 -346v-174h-535v-4q0 -107 48 -176t138 -69q89 0 139 18t119 60l72 -181q-56 -54 -150 -89t-205 -35zM809 1551v-17l-248 -253
h-192l-248 255v15h256l88 -127l88 127h256z" />
    <glyph glyph-name="Gcircumflex" unicode="&#x11c;" horiz-adv-x="1179" 
d="M365 506q0 -300 233 -300q86 0 126 23t66 68v261h-192v200h476v-542q-59 -94 -177 -166t-299 -71q-234 0 -376 137t-141 390v444q1 251 137 389t370 138q234 -1 354 -119q121 -118 126 -339l-2 -6h-267q-3 123 -55 179t-156 57q-105 1 -164 -73t-59 -224v-446zM911 1612
h-222l-114 134l-112 -134h-217v25l250 237h159l256 -240v-22z" />
    <glyph glyph-name="gcircumflex" unicode="&#x11d;" horiz-adv-x="994" 
d="M338 591v-133q0 -118 34 -184t118 -67q84 0 129 71v512q-46 84 -131 84q-150 0 -150 -283zM54 458v133q0 229 94 370t267 141q138 0 223 -141l18 121h247v-1061q1 -213 -123 -335t-339 -123q-147 0 -296 83l50 219q114 -64 244 -64q180 0 180 221v62q-81 -105 -206 -105
q-171 -1 -265 131t-94 348zM811 1269h-222l-114 134l-112 -134h-217v25l250 237h159l256 -240v-22z" />
    <glyph glyph-name="Gbreve" unicode="&#x11e;" horiz-adv-x="1179" 
d="M365 506q0 -300 233 -300q86 0 126 23t66 68v261h-192v200h476v-542q-59 -94 -177 -166t-299 -71q-234 0 -376 137t-141 390v444q1 251 137 389t370 138q234 -1 354 -119q121 -118 126 -339l-2 -6h-267q-3 123 -55 179t-156 57q-105 1 -164 -73t-59 -224v-446zM576 1622
q-145 0 -231 81t-81 209l2 6h207q-1 -53 25 -87t78 -34t76 34t25 87h209l2 -6q4 -130 -82 -210t-230 -80z" />
    <glyph glyph-name="gbreve" unicode="&#x11f;" horiz-adv-x="994" 
d="M338 591v-133q0 -118 34 -184t118 -67q84 0 129 71v512q-46 84 -131 84q-150 0 -150 -283zM54 458v133q0 229 94 370t267 141q138 0 223 -141l18 121h247v-1061q1 -213 -123 -335t-339 -123q-147 0 -296 83l50 219q114 -64 244 -64q180 0 180 221v62q-81 -105 -206 -105
q-171 -1 -265 131t-94 348zM476 1279q-145 0 -231 81t-81 209l2 6h207q-1 -53 25 -87t78 -34t76 34t25 87h209l2 -6q4 -129 -82 -209t-230 -81z" />
    <glyph glyph-name="uni0120" unicode="&#x120;" horiz-adv-x="1179" 
d="M365 506q0 -300 233 -300q86 0 126 23t66 68v261h-192v200h476v-542q-59 -94 -177 -166t-299 -71q-234 0 -376 137t-141 390v444q1 251 137 389t370 138q234 -1 354 -119q121 -118 126 -339l-2 -6h-267q-3 123 -55 179t-156 57q-105 1 -164 -73t-59 -224v-446zM717 1628
h-291v241h291v-241z" />
    <glyph glyph-name="uni0121" unicode="&#x121;" horiz-adv-x="994" 
d="M338 591v-133q0 -118 34 -184t118 -67q84 0 129 71v512q-46 84 -131 84q-150 0 -150 -283zM54 458v133q0 229 94 370t267 141q138 0 223 -141l18 121h247v-1061q1 -213 -123 -335t-339 -123q-147 0 -296 83l50 219q114 -64 244 -64q180 0 180 221v62q-81 -105 -206 -105
q-171 -1 -265 131t-94 348zM617 1285h-291v241h291v-241z" />
    <glyph glyph-name="Gcommaaccent" unicode="&#x122;" horiz-adv-x="1179" 
d="M365 506q0 -300 233 -300q86 0 126 23t66 68v261h-192v200h476v-542q-59 -94 -177 -166t-299 -71q-234 0 -376 137t-141 390v444q1 251 137 389t370 138q234 -1 354 -119q121 -118 126 -339l-2 -6h-267q-3 123 -55 179t-156 57q-105 1 -164 -73t-59 -224v-446zM496 -97
h180v-161l-119 -231h-114l53 240v152z" />
    <glyph glyph-name="gcommaaccent" unicode="&#x123;" horiz-adv-x="994" 
d="M338 591v-133q0 -118 34 -184t118 -67q84 0 129 71v512q-46 84 -131 84q-150 0 -150 -283zM54 458v133q0 229 94 370t267 141q138 0 223 -141l18 121h247v-1061q1 -213 -123 -335t-339 -123q-147 0 -296 83l50 219q114 -64 244 -64q180 0 180 221v62q-81 -105 -206 -105
q-171 -1 -265 131t-94 348zM584 1260h-226v178l101 257h155l-30 -265v-170z" />
    <glyph glyph-name="Hcircumflex" unicode="&#x124;" horiz-adv-x="1241" 
d="M1131 0h-284v603h-452v-603h-285v1456h285v-626h452v626h284v-1456zM955 1591h-222l-114 134l-112 -134h-217v25l250 237h159l256 -240v-22z" />
    <glyph glyph-name="hcircumflex" unicode="&#x125;" 
d="M600 1102q143 0 225 -114t82 -354v-634h-285v636q0 134 -32 186t-103 52q-72 0 -119 -66v-808h-284v1560h284v-607q89 149 232 149zM787 1593h-222l-114 134l-112 -134h-217v25l250 237h159l256 -240v-22z" />
    <glyph glyph-name="Hbar" unicode="&#x126;" horiz-adv-x="1245" 
d="M399 830h452v199h-452v-199zM1135 1196h100v-167h-100v-1029h-284v603h-452v-603h-285v1029h-94v167h94v260h285v-260h452v260h284v-260z" />
    <glyph glyph-name="hbar" unicode="&#x127;" horiz-adv-x="1025" 
d="M517 874q-72 0 -119 -66v-808h-284v1220h-115v175h115v165h284v-165h182v-175h-182v-267q88 149 232 149q143 0 225 -114.5t82 -353.5v-634h-285v636q0 134 -31.5 186t-103.5 52z" />
    <glyph glyph-name="Itilde" unicode="&#x128;" horiz-adv-x="534" 
d="M408 0h-283v1456h283v-1456zM426 1626q-68 0 -146 44t-114 44t-54 -33q-19 -33 -19 -79l-149 43q0 93 52 161t129 68q45 0 129 -44t120 -44t56 32t19 81l148 -45q0 -96 -51 -162t-120 -66z" />
    <glyph glyph-name="itilde" unicode="&#x129;" horiz-adv-x="513" 
d="M398 0h-285v1082h285v-1082zM414 1283q-68 0 -146 44t-114 44t-54 -33q-19 -33 -19 -79l-149 43q0 93 52 161t129 68q45 0 129 -44t120 -44q36 1 56 33t19 80l148 -45q0 -95 -51 -161t-120 -67z" />
    <glyph glyph-name="Imacron" unicode="&#x12a;" horiz-adv-x="534" 
d="M408 0h-283v1456h283v-1456zM598 1617h-654v160h654v-160z" />
    <glyph glyph-name="imacron" unicode="&#x12b;" horiz-adv-x="513" 
d="M398 0h-285v1082h285v-1082zM586 1276h-654v160h654v-160z" />
    <glyph glyph-name="Ibreve" unicode="&#x12c;" horiz-adv-x="534" 
d="M408 0h-283v1456h283v-1456zM270 1601q-145 0 -231 81t-81 209l2 6h207q-1 -53 25 -87t78 -34t76 34t25 87h209l2 -6q4 -129 -82 -209t-230 -81z" />
    <glyph glyph-name="ibreve" unicode="&#x12d;" horiz-adv-x="513" 
d="M398 0h-285v1082h285v-1082zM258 1258q-145 0 -231 81t-81 209l2 6h207q-1 -53 25 -87t78 -34t76 34t25 87h209l2 -6q4 -130 -82 -210t-230 -80z" />
    <glyph glyph-name="Iogonek" unicode="&#x12e;" horiz-adv-x="534" 
d="M322 0q-76 -101 -76 -149q0 -47 13 -69t51 -22t83 20l32 -151q-76 -44 -168 -44q-93 1 -157 55t-63 164q0 110 88 198v1454h283v-1456h-86z" />
    <glyph glyph-name="iogonek" unicode="&#x12f;" horiz-adv-x="495" 
d="M389 1343h-284v217h284v-217zM303 0q-76 -101 -76 -149q0 -47 13 -69t51 -22t83 20l32 -151q-76 -44 -168 -44q-92 1 -156 55t-64 164t87 197v1081h284v-1082h-86z" />
    <glyph glyph-name="Idotaccent" unicode="&#x130;" horiz-adv-x="534" 
d="M408 0h-283v1456h283v-1456zM411 1607h-291v241h291v-241z" />
    <glyph glyph-name="dotlessi" unicode="&#x131;" horiz-adv-x="513" 
d="M398 0h-285v1082h285v-1082z" />
    <glyph glyph-name="IJ" unicode="&#x132;" horiz-adv-x="1549" 
d="M408 0h-283v1456h283v-1456zM1157 1456h283v-1012q0 -214 -120 -340t-312 -125q-190 0 -306 112t-111 330l3 6h277q1 -115 41 -168t101 -53t103 63t41 175v1012z" />
    <glyph glyph-name="ij" unicode="&#x133;" horiz-adv-x="982" 
d="M389 1343h-284v217h284v-217zM389 0h-284v1082h284v-1082zM884 1343h-284v217h284v-217zM605 -33v1115h285v-1115q0 -194 -90 -299t-250 -105q-58 0 -128 18l12 223q44 -12 80 -12q91 0 91 175z" />
    <glyph glyph-name="Jcircumflex" unicode="&#x134;" horiz-adv-x="1015" 
d="M623 1456h283v-1012q0 -214 -120 -340t-312 -125q-190 0 -306 112t-111 330l3 6h277q1 -115 41 -168t101 -53t103 63t41 175v1012zM1083 1586h-222l-114 134l-112 -134h-217v25l250 237h159l256 -240v-22z" />
    <glyph glyph-name="jcircumflex" unicode="&#x135;" horiz-adv-x="528" 
d="M37 -209q90 0 90 176v1115h284v-1115q0 -194 -90 -299t-250 -105q-58 0 -128 18l13 222q42 -12 81 -12zM585 1245h-222l-114 134l-112 -134h-217v25l250 237h159l256 -240v-22z" />
    <glyph glyph-name="Kcommaaccent" unicode="&#x136;" horiz-adv-x="1137" 
d="M395 605v-605h-285v1456h285v-592h92l284 592h349l-397 -665l430 -791h-346l-288 605h-124zM462 -97h180v-161l-119 -231h-114l53 240v152z" />
    <glyph glyph-name="kcommaaccent" unicode="&#x137;" horiz-adv-x="963" 
d="M376 450v-450h-284v1560h284v-886h47l183 408h327l-282 -487l329 -595h-325l-227 450h-52zM398 -97h180v-161l-119 -231h-114l53 240v152z" />
    <glyph glyph-name="kgreenlandic" unicode="&#x138;" horiz-adv-x="1062" 
d="M393 402v-402h-284v1082h284v-409h66l199 409h361l-311 -493l2 1l315 -590h-364l-180 402h-88z" />
    <glyph glyph-name="Lacute" unicode="&#x139;" horiz-adv-x="959" 
d="M395 227h532v-227h-817v1456h285v-1229zM286 1810h299l3 -6l-249 -260h-229z" />
    <glyph glyph-name="lacute" unicode="&#x13a;" horiz-adv-x="495" 
d="M389 0h-284v1560h284v-1560zM278 1890h299l3 -6l-249 -260h-229z" />
    <glyph glyph-name="Lcommaaccent" unicode="&#x13b;" horiz-adv-x="959" 
d="M395 227h532v-227h-817v1456h285v-1229zM421 -97h180v-161l-119 -231h-114l53 240v152z" />
    <glyph glyph-name="lcommaaccent" unicode="&#x13c;" horiz-adv-x="495" 
d="M389 0h-284v1560h284v-1560zM151 -97h180v-161l-119 -231h-114l53 240v152z" />
    <glyph glyph-name="Lcaron" unicode="&#x13d;" horiz-adv-x="959" 
d="M395 227h532v-227h-817v1456h285v-1229zM591 1459h180v-161l-119 -231h-114l53 240v152z" />
    <glyph glyph-name="lcaron" unicode="&#x13e;" horiz-adv-x="645" 
d="M389 0h-284v1560h284v-1560zM508 1559h180v-161l-119 -231h-114l53 240v152z" />
    <glyph glyph-name="Ldot" unicode="&#x13f;" horiz-adv-x="959" 
d="M395 227h532v-227h-817v1456h285v-1229zM780 680h-291v241h291v-241z" />
    <glyph glyph-name="ldot" unicode="&#x140;" horiz-adv-x="715" 
d="M389 0h-284v1560h284v-1560zM750 628h-291v241h291v-241z" />
    <glyph glyph-name="Lslash" unicode="&#x141;" horiz-adv-x="889" 
d="M386 227h532v-227h-817v606l-87 -28v191l87 28v659h285v-564l194 64v-191l-194 -64v-474z" />
    <glyph glyph-name="lslash" unicode="&#x142;" horiz-adv-x="532" 
d="M404 0h-284v618l-102 -38v191l102 38v751h284v-645l113 43v-191l-113 -43v-724z" />
    <glyph glyph-name="Nacute" unicode="&#x143;" horiz-adv-x="1241" 
d="M1129 0h-283l-445 931l-6 -2v-929h-285v1456h285l445 -930l6 2v928h283v-1456zM651 1826h299l3 -6l-249 -260h-229z" />
    <glyph glyph-name="nacute" unicode="&#x144;" 
d="M619 1102q135 0 213 -104t77 -327v-671h-285v671q0 111 -32 157t-102 46q-71 0 -119 -75v-799h-284v1082h265l12 -149q95 169 255 169zM527 1504h299l3 -6l-249 -260h-229z" />
    <glyph glyph-name="Ncommaaccent" unicode="&#x145;" horiz-adv-x="1241" 
d="M1129 0h-283l-445 931l-6 -2v-929h-285v1456h285l445 -930l6 2v928h283v-1456zM524 -97h180v-161l-119 -231h-114l53 240v152z" />
    <glyph glyph-name="ncommaaccent" unicode="&#x146;" 
d="M619 1102q135 0 213 -104t77 -327v-671h-285v671q0 111 -32 157t-102 46q-71 0 -119 -75v-799h-284v1082h265l12 -149q95 169 255 169zM400 -97h180v-161l-119 -231h-114l53 240v152z" />
    <glyph glyph-name="Ncaron" unicode="&#x147;" horiz-adv-x="1241" 
d="M1129 0h-283l-445 931l-6 -2v-929h-285v1456h285l445 -930l6 2v928h283v-1456zM963 1872v-17l-248 -253h-192l-248 255v15h256l88 -127l88 127h256z" />
    <glyph glyph-name="ncaron" unicode="&#x148;" 
d="M619 1102q135 0 213 -104t77 -327v-671h-285v671q0 111 -32 157t-102 46q-71 0 -119 -75v-799h-284v1082h265l12 -149q95 169 255 169zM839 1550v-17l-248 -253h-192l-248 255v15h256l88 -127l88 127h256z" />
    <glyph glyph-name="napostrophe" unicode="&#x149;" 
d="M619 1102q135 0 213 -104t77 -327v-671h-285v671q0 111 -32 157t-102 46q-71 0 -119 -75v-799h-284v1082h265l12 -149q95 169 255 169zM38 1558h180v-161l-119 -231h-114l53 240v152z" />
    <glyph glyph-name="Eng" unicode="&#x14a;" horiz-adv-x="1234" 
d="M754 -209q42 0 66 45.5t24 130.5v33l-445 917l-6 -1v-916h-285v1456h285l445 -918l6 1v917h283v-1489q0 -194 -90 -299t-250 -105q-63 0 -131 18l12 222q44 -12 86 -12z" />
    <glyph glyph-name="eng" unicode="&#x14b;" 
d="M618 1102q135 0 212.5 -107.5t77.5 -338.5v-689q0 -194 -90 -299t-250 -105q-61 0 -129 18l12 224q50 -13 83 -13q89 0 89 175v689q0 120 -28 169t-85 49q-86 0 -138 -77v-797h-285v1082h265l12 -147q95 167 254 167z" />
    <glyph glyph-name="Omacron" unicode="&#x14c;" horiz-adv-x="1166" 
d="M357 523q-1 -316 225 -316t226 316v410q0 155 -58 235t-169 80q-224 0 -224 -315v-410zM1091 523q0 -256 -139 -400t-370 -144t-369 144t-138 400v408q0 255 138 401t368 145q230 1 370 -145t140 -401v-408zM912 1638h-654v160h654v-160z" />
    <glyph glyph-name="omacron" unicode="&#x14d;" 
d="M497 874q-156 0 -156 -267v-134q0 -125 35 -196q34 -71 120 -71t122 72t35 195v134q0 267 -156 267zM58 607q0 219 116 357t323 138q208 0 324 -138t116 -357v-134q0 -220 -116 -357t-324 -137q-207 0 -323 137t-116 357v134zM824 1297h-654v160h654v-160z" />
    <glyph glyph-name="Obreve" unicode="&#x14e;" horiz-adv-x="1166" 
d="M357 523q-1 -316 225 -316t226 316v410q0 155 -58 235t-169 80q-224 0 -224 -315v-410zM1091 523q0 -256 -139 -400t-370 -144t-369 144t-138 400v408q0 255 138 401t368 145q230 1 370 -145t140 -401v-408zM584 1622q-145 0 -231 81t-81 209l2 6h207q-1 -53 25 -87
t78 -34t76 34t25 87h209l2 -6q4 -130 -82 -210t-230 -80z" />
    <glyph glyph-name="obreve" unicode="&#x14f;" 
d="M497 874q-156 0 -156 -267v-134q0 -125 35 -196q34 -71 120 -71t122 72t35 195v134q0 267 -156 267zM58 607q0 219 116 357t323 138q208 0 324 -138t116 -357v-134q0 -220 -116 -357t-324 -137q-207 0 -323 137t-116 357v134zM496 1279q-145 0 -231 81t-81 209l2 6h207
q-1 -53 25 -87t78 -34t76 34t25 87h209l2 -6q4 -129 -82 -209t-230 -81z" />
    <glyph glyph-name="Ohungarumlaut" unicode="&#x150;" horiz-adv-x="1166" 
d="M357 523q-1 -316 225 -316t226 316v410q0 155 -58 235t-169 80q-224 0 -224 -315v-410zM1091 523q0 -256 -139 -400t-370 -144t-369 144t-138 400v408q0 255 138 401t368 145q230 1 370 -145t140 -401v-408zM463 1888h268l-207 -266h-227zM811 1888h264l2 -5l-238 -261
h-230z" />
    <glyph glyph-name="ohungarumlaut" unicode="&#x151;" 
d="M497 874q-156 0 -156 -267v-134q0 -125 35 -196q34 -71 120 -71t122 72t35 195v134q0 267 -156 267zM58 607q0 219 116 357t323 138q208 0 324 -138t116 -357v-134q0 -220 -116 -357t-324 -137q-207 0 -323 137t-116 357v134zM375 1545h268l-207 -266h-227zM723 1545h264
l2 -5l-238 -261h-230z" />
    <glyph glyph-name="OE" unicode="&#x152;" horiz-adv-x="1709" 
d="M615 1250q-116 0 -180 -95t-64 -273v-306q0 -179 65 -274.5t167 -95.5t176 13v1018q-89 13 -164 13zM615 1477q89 0 241 -21h781v-228h-573v-362h489v-227h-489v-412h575v-227h-783q-160 -21 -240 -21q-235 0 -382 166t-147 431v304q0 265 146 431t382 166z" />
    <glyph glyph-name="oe" unicode="&#x153;" horiz-adv-x="1571" 
d="M1218 672q0 202 -120 202q-116 0 -133 -229h253v27zM359 551v-22q0 -150 34.5 -236t117.5 -81h6q152 -9 152 317v22q0 324 -153 317h-6q-151 7 -151 -317zM75 529v22q0 244 115 397.5t311 153.5t312 -125q110 125 293 125q182 0 286 -130.5t104 -355.5v-161h-532
q8 -111 56 -180t132 -69t135 18t119 60l73 -181q-57 -54 -151 -89t-206 -35q-188 0 -306 128q-114 -128 -312 -128q-199 0 -314 152.5t-115 397.5z" />
    <glyph glyph-name="Racute" unicode="&#x154;" horiz-adv-x="1162" 
d="M395 806h190q87 0 132 53t45 152t-45 158t-131 59h-191v-422zM1057 352v-103q0 -61 14 -129t49 -99v-21h-294q-35 32 -44 104t-9 147v99q-1 109 -45 169t-127 60h-206v-579h-284v1455h475q216 1 338 -113t122 -316q0 -228 -200 -328q211 -72 211 -346zM576 1826h299l3 -6
l-249 -260h-229z" />
    <glyph glyph-name="racute" unicode="&#x155;" horiz-adv-x="655" 
d="M376 0h-284v1082h265l11 -145l5 -2q27 79 73 123t97 44t89 -12l-29 -267l-107 3q-86 0 -120 -84v-742zM388 1504h299l3 -6l-249 -260h-229z" />
    <glyph glyph-name="Rcommaaccent" unicode="&#x156;" horiz-adv-x="1162" 
d="M395 806h190q87 0 132 53t45 152t-45 158t-131 59h-191v-422zM1057 352v-103q0 -61 14 -129t49 -99v-21h-294q-35 32 -44 104t-9 147v99q-1 109 -45 169t-127 60h-206v-579h-284v1455h475q216 1 338 -113t122 -316q0 -228 -200 -328q211 -72 211 -346zM449 -97h180v-161
l-119 -231h-114l53 240v152z" />
    <glyph glyph-name="rcommaaccent" unicode="&#x157;" horiz-adv-x="655" 
d="M376 0h-284v1082h265l11 -145l5 -2q27 79 73 123t97 44t89 -12l-29 -267l-107 3q-86 0 -120 -84v-742zM151 -97h180v-161l-119 -231h-114l53 240v152z" />
    <glyph glyph-name="Rcaron" unicode="&#x158;" horiz-adv-x="1162" 
d="M395 806h190q87 0 132 53t45 152t-45 158t-131 59h-191v-422zM1057 352v-103q0 -61 14 -129t49 -99v-21h-294q-35 32 -44 104t-9 147v99q-1 109 -45 169t-127 60h-206v-579h-284v1455h475q216 1 338 -113t122 -316q0 -228 -200 -328q211 -72 211 -346zM888 1872v-17
l-248 -253h-192l-248 255v15h256l88 -127l88 127h256z" />
    <glyph glyph-name="rcaron" unicode="&#x159;" horiz-adv-x="655" 
d="M376 0h-284v1082h265l11 -145l5 -2q27 79 73 123t97 44t89 -12l-29 -267l-107 3q-86 0 -120 -84v-742zM702 1550v-17l-248 -253h-192l-248 255v15h256l88 -127l88 127h256z" />
    <glyph glyph-name="Sacute" unicode="&#x15a;" horiz-adv-x="1109" 
d="M568 202q190 0 189 180q0 84 -44 132q-44 50 -155 98q-226 80 -340 180t-114 280t132 292t338 113t337 -125q130 -126 126 -317l-2 -6h-276q0 100 -50 162t-138 62q-87 1 -135 -51t-48 -127t53 -121t184 -104q207 -70 311 -178t105 -293q0 -186 -126 -293
q-127 -107 -335 -107q-208 -1 -360 121t-148 349l2 6h277q1 -253 217 -253zM587 1847h299l3 -6l-249 -260h-229z" />
    <glyph glyph-name="sacute" unicode="&#x15b;" horiz-adv-x="888" 
d="M563 282q0 48 -36 80q-36 34 -138 83q-163 61 -245 138t-81 205t105 220q104 94 280 94t283 -96t103 -245l-3 -6h-274q0 148 -114 148q-46 0 -78 -31t-32 -77q0 -45 32 -75t139 -81q170 -57 252 -137t82 -214t-110 -221q-110 -88 -293 -88t-292 109t-104 246l2 6h260
q4 -162 145 -162q57 0 87 28t30 76zM479 1504h299l3 -6l-249 -260h-229z" />
    <glyph glyph-name="Scircumflex" unicode="&#x15c;" horiz-adv-x="1109" 
d="M568 202q190 0 189 180q0 84 -44 132q-44 50 -155 98q-226 80 -340 180t-114 280t132 292t338 113t337 -125q130 -126 126 -317l-2 -6h-276q0 100 -50 162t-138 62q-87 1 -135 -51t-48 -127t53 -121t184 -104q207 -70 311 -178t105 -293q0 -186 -126 -293
q-127 -107 -335 -107q-208 -1 -360 121t-148 349l2 6h277q1 -253 217 -253zM891 1612h-222l-114 134l-112 -134h-217v25l250 237h159l256 -240v-22z" />
    <glyph glyph-name="scircumflex" unicode="&#x15d;" horiz-adv-x="888" 
d="M563 282q0 48 -36 80q-36 34 -138 83q-163 61 -245 138t-81 205t105 220q104 94 280 94t283 -96t103 -245l-3 -6h-274q0 148 -114 148q-46 0 -78 -31t-32 -77q0 -45 32 -75t139 -81q170 -57 252 -137t82 -214t-110 -221q-110 -88 -293 -88t-292 109t-104 246l2 6h260
q4 -162 145 -162q57 0 87 28t30 76zM783 1269h-222l-114 134l-112 -134h-217v25l250 237h159l256 -240v-22z" />
    <glyph glyph-name="Scedilla" unicode="&#x15e;" horiz-adv-x="1109" 
d="M675 -60q122 -26 122 -188q-1 -94 -81 -158t-227 -64l-6 163q73 0 73 84q0 42 -26 59t-86 22l25 130q-139 24 -249 112q-152 122 -148 349l2 6h277q1 -253 217 -253q190 0 189 178q0 84 -44 134t-155 98q-226 80 -340 180t-114 280t132 292t338 113t337 -125
q130 -126 126 -317l-2 -6h-276q0 100 -50 162t-138 62q-87 1 -135 -51t-48 -127t53 -121t184 -104q207 -70 311 -178t105 -293q0 -186 -126 -293q-94 -79 -233 -100z" />
    <glyph glyph-name="scedilla" unicode="&#x15f;" horiz-adv-x="888" 
d="M548 -59q122 -25 122 -187q0 -94 -80 -158t-228 -65l-6 163q73 0 73 84q1 42 -25 59t-87 22l25 128q-120 22 -199 101q-109 109 -104 246l2 6h260q4 -162 145 -162q57 0 87 28t30 76t-36 80q-36 34 -138 83q-163 61 -245 138t-81 205t105 220q104 94 280 94t283 -96
t103 -245l-3 -6h-274q0 148 -114 148q-46 0 -78 -31t-32 -77q0 -45 32 -75t139 -81q170 -57 252 -137t82 -214t-110 -221q-72 -57 -173 -77z" />
    <glyph glyph-name="Scaron" unicode="&#x160;" horiz-adv-x="1109" 
d="M568 202q190 0 189 180q0 84 -44 132q-44 50 -155 98q-226 80 -340 180t-114 280t132 292t338 113t337 -125q130 -126 126 -317l-2 -6h-276q0 100 -50 162t-138 62q-87 1 -135 -51t-48 -127t53 -121t184 -104q207 -70 311 -178t105 -293q0 -186 -126 -293
q-127 -107 -335 -107q-208 -1 -360 121t-148 349l2 6h277q1 -253 217 -253zM899 1893v-17l-248 -253h-192l-248 255v15h256l88 -127l88 127h256z" />
    <glyph glyph-name="scaron" unicode="&#x161;" horiz-adv-x="888" 
d="M563 282q0 48 -36 80q-36 34 -138 83q-163 61 -245 138t-81 205t105 220q104 94 280 94t283 -96t103 -245l-3 -6h-274q0 148 -114 148q-46 0 -78 -31t-32 -77q0 -45 32 -75t139 -81q170 -57 252 -137t82 -214t-110 -221q-110 -88 -293 -88t-292 109t-104 246l2 6h260
q4 -162 145 -162q57 0 87 28t30 76zM791 1550v-17l-248 -253h-192l-248 255v15h256l88 -127l88 127h256z" />
    <glyph glyph-name="uni0162" unicode="&#x162;" horiz-adv-x="994" 
d="M967 1228h-328v-1228h-284v1228h-326v228h938v-228zM404 -97h180v-161l-119 -231h-114l53 240v152z" />
    <glyph glyph-name="uni0163" unicode="&#x163;" horiz-adv-x="648" 
d="M146 332v544h-128v206h128v269h284v-269h150v-206h-150v-543q0 -123 71 -123q44 0 84 11l22 -216q-84 -26 -179 -26q-282 0 -282 353zM280 -97h180v-161l-119 -231h-114l53 240v152z" />
    <glyph glyph-name="Tcaron" unicode="&#x164;" horiz-adv-x="994" 
d="M967 1228h-328v-1228h-284v1228h-326v228h938v-228zM844 1871v-17l-248 -253h-192l-248 255v15h256l88 -127l88 127h256z" />
    <glyph glyph-name="tcaron" unicode="&#x165;" horiz-adv-x="688" 
d="M146 332v544h-128v206h128v269h284v-269h150v-206h-150v-543q0 -123 71 -123q44 0 84 11l22 -216q-84 -26 -179 -26q-282 0 -282 353zM582 1585h180v-161l-119 -231h-114l53 240v152z" />
    <glyph glyph-name="Tbar" unicode="&#x166;" horiz-adv-x="994" 
d="M797 749h-158v-749h-284v749h-139v175h139v304h-326v228h938v-228h-328v-304h158v-175z" />
    <glyph glyph-name="tbar" unicode="&#x167;" horiz-adv-x="648" 
d="M146 332v201h-148v175h148v168h-128v206h128v269h284v-269h150v-206h-150v-168h149v-175h-149v-200q0 -123 71 -123q44 0 84 11l22 -216q-84 -26 -179 -26q-282 0 -282 353z" />
    <glyph glyph-name="Utilde" unicode="&#x168;" horiz-adv-x="1176" 
d="M378 465q0 -259 212 -259q102 0 155 60q54 60 54 199v991h283v-991q0 -233 -136 -359t-358 -127q-222 0 -358 127t-136 359v991h284v-991zM743 1626q-69 0 -147 44t-112 44q-36 0 -55 -33t-19 -79l-149 43q-1 93 51 161t130 68q46 0 130 -44t119 -44t55 32t20 81l148 -45
q0 -96 -51 -162t-120 -66z" />
    <glyph glyph-name="utilde" unicode="&#x169;" 
d="M85 428v654h284v-656q0 -219 111 -219q92 0 143 69v806h285v-1082h-250l-17 125q-90 -146 -242 -146q-151 -1 -233 109t-81 340zM650 1283q-68 0 -146 44t-114 44t-54 -33q-19 -33 -19 -79l-149 43q0 93 52 161t129 68q45 0 129 -44t120 -44q36 1 56 33t19 80l148 -45
q0 -95 -51 -161t-120 -67z" />
    <glyph glyph-name="Umacron" unicode="&#x16a;" horiz-adv-x="1176" 
d="M378 465q0 -259 212 -259q102 0 155 60q54 60 54 199v991h283v-991q0 -233 -136 -359t-358 -127q-222 0 -358 127t-136 359v991h284v-991zM915 1617h-654v160h654v-160z" />
    <glyph glyph-name="umacron" unicode="&#x16b;" 
d="M85 428v654h284v-656q0 -219 111 -219q92 0 143 69v806h285v-1082h-250l-17 125q-90 -146 -242 -146q-151 -1 -233 109t-81 340zM822 1276h-654v160h654v-160z" />
    <glyph glyph-name="Ubreve" unicode="&#x16c;" horiz-adv-x="1176" 
d="M378 465q0 -259 212 -259q102 0 155 60q54 60 54 199v991h283v-991q0 -233 -136 -359t-358 -127q-222 0 -358 127t-136 359v991h284v-991zM587 1601q-145 0 -231 81t-81 209l2 6h207q0 -53 26 -87t77 -34q53 0 77 34t24 87h209l2 -6q5 -129 -81 -209t-231 -81z" />
    <glyph glyph-name="ubreve" unicode="&#x16d;" 
d="M85 428v654h284v-656q0 -219 111 -219q92 0 143 69v806h285v-1082h-250l-17 125q-90 -146 -242 -146q-151 -1 -233 109t-81 340zM494 1258q-145 0 -231 81t-81 209l2 6h207q-1 -53 25 -87t78 -34t76 34t25 87h209l2 -6q4 -130 -82 -210t-230 -80z" />
    <glyph glyph-name="Uring" unicode="&#x16e;" horiz-adv-x="1176" 
d="M378 465q0 -259 212 -259q102 0 155 60q54 60 54 199v991h283v-991q0 -233 -136 -359t-358 -127q-222 0 -358 127t-136 359v991h284v-991zM502 1740q0 -42 24 -70q24 -26 62 -26t60 26q23 26 23 69t-23 70q-22 27 -60 27t-62 -27t-24 -69zM394 1738q0 80 56 136
q56 55 137 55t136 -55t55 -136t-54 -133t-136 -52q-82 1 -138 53t-56 132z" />
    <glyph glyph-name="uring" unicode="&#x16f;" 
d="M85 428v654h284v-656q0 -219 111 -219q92 0 143 69v806h285v-1082h-250l-17 125q-90 -146 -242 -146q-151 -1 -233 109t-81 340zM409 1396q0 -42 24 -68q23 -26 61 -27q38 0 61 26t23 69t-23 70t-61 27t-61 -27q-24 -28 -24 -70zM301 1396q0 80 56 135t137 55t136 -55
t55 -136q-1 -81 -55 -133t-136 -52t-137 52q-56 54 -56 134z" />
    <glyph glyph-name="Uhungarumlaut" unicode="&#x170;" horiz-adv-x="1176" 
d="M378 465q0 -259 212 -259q102 0 155 60q54 60 54 199v991h283v-991q0 -233 -136 -359t-358 -127q-222 0 -358 127t-136 359v991h284v-991zM466 1867h268l-207 -266h-227zM814 1867h264l2 -5l-238 -261h-230z" />
    <glyph glyph-name="uhungarumlaut" unicode="&#x171;" 
d="M85 428v654h284v-656q0 -219 111 -219q92 0 143 69v806h285v-1082h-250l-17 125q-90 -146 -242 -146q-151 -1 -233 109t-81 340zM373 1524h268l-207 -266h-227zM721 1524h264l2 -5l-238 -261h-230z" />
    <glyph glyph-name="Uogonek" unicode="&#x172;" horiz-adv-x="1176" 
d="M378 465q0 -259 212 -259q102 0 155 60q54 60 54 199v991h283v-991q0 -233 -136 -359q-111 -103 -279 -123q-64 -88 -64 -134q0 -45 13 -67t51 -22t83 20l32 -151q-76 -44 -168 -44q-92 1 -156 55t-64 160t76 189q-142 26 -240 117q-136 127 -136 359v991h284v-991z" />
    <glyph glyph-name="uogonek" unicode="&#x173;" 
d="M818 0q-76 -101 -76 -149q0 -47 13 -69t51 -22t83 20l32 -151q-76 -44 -168 -44q-93 1 -157 55t-63 152q0 144 121 239l-13 94q-90 -146 -242 -146q-151 -1 -233 109t-81 340v654h284v-656q0 -219 111 -219q92 0 143 69v806h285v-1082h-90z" />
    <glyph glyph-name="Wcircumflex" unicode="&#x174;" horiz-adv-x="1548" 
d="M1087 527h6l157 929h276l-281 -1456h-265l-205 892h-6l-203 -892h-264l-281 1456h276l157 -929h6l210 929h204zM1109 1591h-222l-114 134l-112 -134h-217v25l250 237h159l256 -240v-22z" />
    <glyph glyph-name="wcircumflex" unicode="&#x175;" horiz-adv-x="1280" 
d="M882 468l6 1l101 613h263l-222 -1082h-237l-151 583h-6l-151 -583h-237l-224 1082h265l101 -616h6l151 616h184zM974 1250h-222l-114 134l-112 -134h-217v25l250 237h159l256 -240v-22z" />
    <glyph glyph-name="Ycircumflex" unicode="&#x176;" horiz-adv-x="1124" 
d="M700 0h-284v536l-409 920h311l240 -624h6l243 624h309l-416 -938v-518zM905 1590h-222l-114 134l-112 -134h-217v25l250 237h159l256 -240v-22z" />
    <glyph glyph-name="ycircumflex" unicode="&#x177;" horiz-adv-x="909" 
d="M160 -207q108 0 139 118l25 80l-319 1091h305l130 -638l2 -11l158 649h304l-365 -1245q-41 -117 -109 -195t-210 -79q-44 0 -134 24l33 212q34 -6 41 -6zM787 1250h-222l-114 134l-112 -134h-217v25l250 237h159l256 -240v-22z" />
    <glyph glyph-name="Ydieresis" unicode="&#x178;" horiz-adv-x="1124" 
d="M700 0h-284v536l-409 920h311l240 -624h6l243 624h309l-416 -938v-518zM471 1605h-251v198h251v-198zM919 1605h-250v198h250v-198z" />
    <glyph glyph-name="Zacute" unicode="&#x179;" horiz-adv-x="998" 
d="M945 227v-227h-879v143l546 1086h-552v227h876v-138l-550 -1091h559zM529 1828h299l3 -6l-249 -260h-229z" />
    <glyph glyph-name="zacute" unicode="&#x17a;" horiz-adv-x="883" 
d="M814 227v-227h-749v169l412 685h-400v228h730v-165l-416 -690h423zM469 1483h299l3 -6l-249 -260h-229z" />
    <glyph glyph-name="Zdotaccent" unicode="&#x17b;" horiz-adv-x="998" 
d="M945 227v-227h-879v143l546 1086h-552v227h876v-138l-550 -1091h559zM639 1609h-291v241h291v-241z" />
    <glyph glyph-name="zdotaccent" unicode="&#x17c;" horiz-adv-x="883" 
d="M814 227v-227h-749v169l412 685h-400v228h730v-165l-416 -690h423zM579 1264h-291v241h291v-241z" />
    <glyph glyph-name="Zcaron" unicode="&#x17d;" horiz-adv-x="998" 
d="M945 227v-227h-879v143l546 1086h-552v227h876v-138l-550 -1091h559zM841 1874v-17l-248 -253h-192l-248 255v15h256l88 -127l88 127h256z" />
    <glyph glyph-name="zcaron" unicode="&#x17e;" horiz-adv-x="883" 
d="M814 227v-227h-749v169l412 685h-400v228h730v-165l-416 -690h423zM781 1529v-17l-248 -253h-192l-248 255v15h256l88 -127l88 127h256z" />
    <glyph glyph-name="longs" unicode="&#x17f;" horiz-adv-x="479" 
d="M482 1353q-47 0 -75.5 -39.5t-28.5 -111.5v-1202h-284v1202q0 182 94 280.5t264 98.5q55 0 141 -21l-23 -217q-41 10 -88 10z" />
    <glyph glyph-name="florin" unicode="&#x192;" horiz-adv-x="657" 
d="M546 1352q-111 0 -111 -150v-120h171v-206h-171v-909q0 -193 -90.5 -298.5t-250.5 -105.5q-61 0 -127 18l12 222q38 -12 81 -12q91 0 91 176v909h-132v206h132v120q0 182 94 280.5t264 98.5q56 0 142 -21l-23 -218q-40 10 -82 10z" />
    <glyph glyph-name="Ohorn" unicode="&#x1a0;" horiz-adv-x="1234" 
d="M359 523q-1 -316 225 -316t226 316v410q0 156 -58 235.5t-169 79.5q-224 0 -224 -315v-410zM1093 931v-408q0 -256 -139 -400t-370 -144t-369 144t-138 400v408q0 255 138 400.5t383 145.5t385 -180q153 67 153 310h201q0 -189 -69 -315.5t-197 -179.5q22 -95 22 -181z
" />
    <glyph glyph-name="ohorn" unicode="&#x1a1;" horiz-adv-x="1033" 
d="M495 874q-156 0 -156 -267v-134q0 -125 34.5 -196t120.5 -71t121.5 71.5t35.5 195.5v134q0 267 -156 267zM935 607v-134q0 -220 -116 -357t-324 -137t-323.5 137t-115.5 357v134q0 218 115.5 356.5t315.5 138.5t319 -124q76 82 76 258h198q0 -287 -188 -394
q43 -109 43 -235z" />
    <glyph glyph-name="Uhorn" unicode="&#x1af;" horiz-adv-x="1266" 
d="M378 465q0 -259 212 -259q102 0 155.5 60t53.5 199v991h283v-190l6 -1q82 12 113 97t31 247h200q0 -243 -83.5 -376.5t-266.5 -153.5v-614q0 -233 -136.5 -359.5t-357.5 -126.5t-357.5 127t-136.5 359v991h284v-991z" />
    <glyph glyph-name="uhorn" unicode="&#x1b0;" horiz-adv-x="1081" 
d="M992 1186h179q0 -163 -64 -258t-199 -126v-802h-250l-17 125q-90 -146 -242 -146q-151 0 -232.5 109.5t-81.5 339.5v654h284v-656q0 -219 111 -219q92 0 143 69v806h285v-105l6 -1q78 29 78 210z" />
    <glyph glyph-name="uni01F0" unicode="&#x1f0;" horiz-adv-x="528" 
d="M37 -209q90 0 90 176v1115h284v-1115q0 -194 -90 -299t-250 -105q-58 0 -128 18l13 222q42 -12 81 -12zM593 1524v-17l-248 -253h-192l-248 255v15h256l88 -127l88 127h256z" />
    <glyph glyph-name="Aringacute" unicode="&#x1fa;" horiz-adv-x="1134" 
d="M439 538h268l-131 515h-6zM765 309h-384l-78 -309h-287l410 1456h296l409 -1456h-287zM497 1696q0 -40 22 -64t55 -25q34 1 54 25t20 64t-20 65q-20 26 -54 26q-33 0 -55 -26q-22 -25 -22 -65zM392 1694q0 78 52 132t130 54q76 0 128 -54t52 -132t-52 -129t-128 -51
t-130 51q-52 51 -52 129zM656 2148h243l2 -6l-237 -212h-176z" />
    <glyph glyph-name="aringacute" unicode="&#x1fb;" horiz-adv-x="944" 
d="M434 193q44 0 80 23t57 59v199h-107q-65 0 -94 -45t-29 -107t25 -95q25 -34 68 -34zM57 308q1 153 103 241t304 88h107v88q0 164 -114 164q-96 0 -96 -133l-275 1l-3 6q-5 141 105 240t283 99t279 -98t106 -281v-438q0 -154 45 -285h-282q-26 59 -36 124
q-88 -145 -226 -145q-139 0 -219 88t-81 241zM390 1374q0 -40 22 -64t55 -25q33 1 53 25t21 64q-1 40 -21 65q-20 26 -53 26t-55 -26q-22 -25 -22 -65zM285 1372q1 78 53 132t128 54t129 -54q52 -54 52 -132t-52 -129q-53 -51 -129 -51t-128 51t-53 129zM549 1826h243l2 -6
l-237 -212h-176z" />
    <glyph glyph-name="AEacute" unicode="&#x1fc;" horiz-adv-x="1656" 
d="M573 578h224l-17 497l-6 1zM1591 0h-774l-12 339h-329l-136 -339h-331l639 1456h891v-231h-481l12 -363h400v-230h-392l15 -402h498v-230zM826 1826h299l3 -6l-249 -260h-229z" />
    <glyph glyph-name="aeacute" unicode="&#x1fd;" horiz-adv-x="1479" 
d="M1153 671q0 203 -112 203q-73 0 -106 -60t-39 -170h257v27zM324 313q0 -129 122 -129q41 0 88 27t76 65v190h-134q-72 0 -112 -44t-40 -109zM1057 -21q-215 0 -334 148q-118 -148 -332 -148q-168 1 -259 91t-91 248q1 158 111 244t322 87h136v56q0 79 -30 124t-85 45
t-87 -37t-33 -92l-275 17l-2 6q-6 146 106 240t289 94t281 -92q107 92 277 92q171 0 275 -131t104 -356v-160h-535q11 -249 196 -249q77 0 127 18t116 60l71 -183q-53 -49 -147 -85t-201 -37zM770 1505h299l3 -6l-249 -260h-229z" />
    <glyph glyph-name="Oslashacute" unicode="&#x1fe;" horiz-adv-x="1215" 
d="M588 207q226 0 226 316v414l-6 1l-342 -697q45 -34 122 -34zM587 1248q-224 0 -224 -315v-410q0 -116 25 -168l6 -1l382 781q-57 113 -189 113zM1097 931v-408q0 -256 -139 -400t-370 -144q-130 0 -228 45l-57 -117h-127l86 176q-181 146 -181 440v408q0 255 138 401
t368 145q180 0 310 -93l65 132h129l-106 -216q112 -147 112 -369zM646 1888h299l3 -6l-249 -260h-229z" />
    <glyph glyph-name="oslashacute" unicode="&#x1ff;" horiz-adv-x="997" 
d="M498 206q84 0 120 72t35 195v134q0 44 -6 86l-6 1l-197 -479q22 -9 54 -9zM497 874q-156 0 -156 -267v-134q0 -79 8 -105l6 -1l203 494q-30 13 -61 13zM58 473v134q0 219 116 357t323 138q78 0 151 -23l57 138h152l-85 -206q165 -136 165 -404v-134q0 -220 -116 -357
t-323 -137q-71 0 -144 20l-58 -142h-151l85 206q-172 130 -172 410zM499 1499h299l3 -6l-249 -260h-229z" />
    <glyph glyph-name="uni0218" unicode="&#x218;" horiz-adv-x="1109" 
d="M568 202q190 0 189 180q0 84 -44 132q-44 50 -155 98q-226 80 -340 180t-114 280t132 292t338 113t337 -125q130 -126 126 -317l-2 -6h-276q0 100 -50 162t-138 62q-87 1 -135 -51t-48 -127t53 -121t184 -104q207 -70 311 -178t105 -293q0 -186 -126 -293
q-127 -107 -335 -107q-208 -1 -360 121t-148 349l2 6h277q1 -253 217 -253zM479 -97h180v-161l-119 -231h-114l53 240v152z" />
    <glyph glyph-name="uni0219" unicode="&#x219;" horiz-adv-x="888" 
d="M563 282q0 48 -36 80q-36 34 -138 83q-163 61 -245 138t-81 205t105 220q104 94 280 94t283 -96t103 -245l-3 -6h-274q0 148 -114 148q-46 0 -78 -31t-32 -77q0 -45 32 -75t139 -81q170 -57 252 -137t82 -214t-110 -221q-110 -88 -293 -88t-292 109t-104 246l2 6h260
q4 -162 145 -162q57 0 87 28t30 76zM352 -97h180v-161l-119 -231h-114l53 240v152z" />
    <glyph glyph-name="uni021A" unicode="&#x21a;" horiz-adv-x="994" 
d="M600 -43q122 -25 122 -187q0 -94 -80 -158t-228 -65l-6 163q73 0 73 84q1 42 -25 59t-87 22l24 125h-38v1228h-326v228h938v-228h-328v-1228h-32z" />
    <glyph glyph-name="uni021B" unicode="&#x21b;" horiz-adv-x="648" 
d="M476 -52q122 -26 122 -188q0 -94 -80 -158t-228 -64l-6 163q73 0 73 84q1 42 -25 59t-87 22l27 141h20q-146 71 -146 325v544h-128v206h128v269h284v-269h150v-206h-150v-543q0 -123 71 -123q44 0 84 11l22 -216q-64 -20 -126 -24z" />
    <glyph glyph-name="uni0237" unicode="&#x237;" horiz-adv-x="528" 
d="M37 -209q90 0 90 176v1115h284v-1115q0 -194 -90 -299t-250 -105q-58 0 -128 18l13 222q42 -12 81 -12z" />
    <glyph glyph-name="schwa" unicode="&#x259;" horiz-adv-x="938" 
d="M347 410q0 -203 119 -203q113 0 132 230h-251v-27zM442 1103q204 0 324.5 -149.5t120.5 -378.5v-41q0 -245 -112 -399.5t-306 -154.5t-297 130t-103 356v161h531q-10 111 -58 180t-132 69t-133.5 -18.5t-117.5 -59.5l-73 181q56 52 150 88t206 36z" />
    <glyph glyph-name="uni02BC" unicode="&#x2bc;" horiz-adv-x="366" 
d="M98 1560h234v-192l-146 -344h-137l49 344v192z" />
    <glyph glyph-name="circumflex" unicode="&#x2c6;" horiz-adv-x="902" 
d="M783 1252h-222l-114 134l-112 -134h-217v25l250 237h159l256 -240v-22z" />
    <glyph glyph-name="caron" unicode="&#x2c7;" horiz-adv-x="858" 
d="M770 1522v-17l-248 -253h-192l-248 255v15h256l88 -127l88 127h256z" />
    <glyph glyph-name="breve" unicode="&#x2d8;" horiz-adv-x="829" 
d="M413 1160q-145 0 -231 81t-81 209l2 6h207q0 -53 25.5 -87t77.5 -34t76.5 34t24.5 87h209l2 -6q4 -129 -81.5 -209.5t-230.5 -80.5z" />
    <glyph glyph-name="dotaccent" unicode="&#x2d9;" horiz-adv-x="579" 
d="M419 1229h-291v241h291v-241z" />
    <glyph glyph-name="ring" unicode="&#x2da;" horiz-adv-x="617" 
d="M225 1300q0 -42 23.5 -69t61.5 -27t61 26t23 69t-23 70t-61 27t-61.5 -27t-23.5 -69zM117 1298q0 80 56 135.5t137 55.5t136 -55t55 -136t-54.5 -133t-136.5 -52t-137.5 52.5t-55.5 132.5z" />
    <glyph glyph-name="ogonek" unicode="&#x2db;" horiz-adv-x="561" 
d="M362 0q-76 -101 -76 -149t13 -69.5t51 -21.5t83 20l32 -151q-76 -44 -168 -44q-93 0 -156.5 54.5t-63.5 141.5q0 175 156 275z" />
    <glyph glyph-name="tilde" unicode="&#x2dc;" horiz-adv-x="867" 
d="M592 1253q-69 0 -146.5 44t-113.5 44t-54.5 -33t-18.5 -79l-149 43q0 93 51.5 161t129.5 68q46 0 129.5 -44t119.5 -44t55.5 32.5t19.5 80.5l148 -45q0 -95 -51 -161.5t-120 -66.5z" />
    <glyph glyph-name="hungarumlaut" unicode="&#x2dd;" horiz-adv-x="782" 
d="M297 1518h268l-207 -266h-227zM645 1518h264l2 -5l-238 -261h-230z" />
    <glyph glyph-name="uni02F3" unicode="&#x2f3;" horiz-adv-x="578" 
d="M240 -224q0 -30 16.5 -50t41.5 -20t40.5 19t15.5 50t-15.5 50.5t-40.5 19.5t-41.5 -19.5t-16.5 -49.5zM135 -225q0 70 47 117t116 47t115.5 -47.5t46.5 -117.5t-46.5 -116t-115.5 -46t-116 46.5t-47 116.5z" />
    <glyph glyph-name="gravecomb" unicode="&#x300;" horiz-adv-x="16" 
d="M-334 1195h-167l-165 303h218z" />
    <glyph glyph-name="acutecomb" unicode="&#x301;" horiz-adv-x="16" 
d="M-573 1505h219l-167 -303h-166z" />
    <glyph glyph-name="tildecomb" unicode="&#x303;" horiz-adv-x="17" 
d="M-309 1253q-69 0 -147 44t-112 44q-36 0 -55 -33t-19 -79l-149 43q-1 93 51 161t130 68q46 0 130 -44t119 -44q35 1 55 33t20 80l148 -45q0 -95 -51 -161t-120 -67z" />
    <glyph glyph-name="hook" unicode="&#x309;" horiz-adv-x="16" 
d="M-526 1466q0 68 -109 69l6 131q169 0 256.5 -51t87.5 -142q0 -64 -35.5 -100t-86.5 -44v-63h-213l-17 129q60 3 85.5 19t25.5 52z" />
    <glyph glyph-name="uni030F" unicode="&#x30f;" horiz-adv-x="16" 
d="M-103 1252h-227l-206 266h267zM-415 1252h-229l-238 261l2 5h263z" />
    <glyph glyph-name="dotbelow" unicode="&#x323;" horiz-adv-x="16" 
d="M-341 -353h-316v241h316v-241z" />
    <glyph glyph-name="tonos" unicode="&#x384;" horiz-adv-x="646" 
d="M286 1623h262l-189 -350h-138z" />
    <glyph glyph-name="dieresistonos" unicode="&#x385;" horiz-adv-x="998" 
d="M456 1755h262l-162 -275h-135zM370 1259h-235v197h235v-197zM846 1259h-234v197h234v-197z" />
    <glyph glyph-name="Alphatonos" unicode="&#x386;" horiz-adv-x="1134" 
d="M439 538h268l-131 515h-6zM765 309h-384l-78 -309h-287l410 1456h296l409 -1456h-287zM139 1623h262l-189 -350h-138z" />
    <glyph glyph-name="anoteleia" unicode="&#x387;" horiz-adv-x="567" 
d="M418 560h-278v262h278v-262z" />
    <glyph glyph-name="Epsilontonos" unicode="&#x388;" horiz-adv-x="1108" 
d="M984 639h-489v-412h575v-227h-860v1456h858v-228h-573v-362h489v-227zM-57 1625h262l-189 -350h-138z" />
    <glyph glyph-name="Etatonos" unicode="&#x389;" horiz-adv-x="1341" 
d="M1231 0h-284v603h-452v-603h-285v1456h285v-626h452v626h284v-1456zM-21 1622h262l-189 -350h-138z" />
    <glyph glyph-name="Iotatonos" unicode="&#x38a;" horiz-adv-x="634" 
d="M508 0h-283v1456h283v-1456zM-14 1624h262l-189 -350h-138z" />
    <glyph glyph-name="Omicrontonos" unicode="&#x38c;" horiz-adv-x="1186" 
d="M377 523q-1 -316 225 -316t226 316v410q0 155 -58 235t-169 80q-224 0 -224 -315v-410zM1111 523q0 -256 -139 -400t-370 -144t-369 144t-138 400v408q0 255 138 401t368 145q230 1 370 -145t140 -401v-408zM42 1623h262l-189 -350h-138z" />
    <glyph glyph-name="Upsilontonos" unicode="&#x38e;" horiz-adv-x="1224" 
d="M800 0h-284v536l-409 920h311l240 -624h6l243 624h309l-416 -938v-518zM-91 1623h262l-189 -350h-138z" />
    <glyph glyph-name="Omegatonos" unicode="&#x38f;" horiz-adv-x="1207" 
d="M784 772v90q0 186 -47 284t-129 94h-6q-81 4 -127 -94t-46 -284v-90q0 -462 141 -537v-235h-434v230h216q-108 90 -174 232t-66 310v88q0 272 136 444t356 173q220 -1 358 -173t139 -444v-88q0 -168 -67 -310t-174 -232h223v-230h-436v235q137 79 137 537zM29 1623h262
l-189 -350h-138z" />
    <glyph glyph-name="iotadieresistonos" unicode="&#x390;" horiz-adv-x="605" 
d="M112 332v749h284v-751q0 -69 16 -96t49 -27q34 0 84 15l26 -215q-77 -28 -166 -28q-141 -1 -217 87t-76 266zM223 1693h262l-162 -275h-135zM137 1197h-235v197h235v-197zM613 1197h-234v197h234v-197z" />
    <glyph glyph-name="Alpha" unicode="&#x391;" horiz-adv-x="1134" 
d="M439 538h268l-131 515h-6zM765 309h-384l-78 -309h-287l410 1456h296l409 -1456h-287z" />
    <glyph glyph-name="Beta" unicode="&#x392;" horiz-adv-x="1136" 
d="M732 1031q0 197 -193 197h-144v-387h157q88 3 134 51t46 139zM596 227q179 -1 179 207t-160 208h-220v-415h201zM110 0v1456h429q225 0 351 -100t127 -298q0 -104 -46 -184t-138 -121q115 -27 170 -117t55 -211q0 -209 -120 -317t-342 -108h-486z" />
    <glyph glyph-name="Gamma" unicode="&#x393;" horiz-adv-x="983" 
d="M931 1228h-535v-1228h-285v1456h820v-228z" />
    <glyph glyph-name="Delta" unicode="&#x394;" horiz-adv-x="1295" 
d="M391 227h522l-256 824h-6zM507 1456h295l480 -1456h-1260z" />
    <glyph glyph-name="Delta" unicode="&#x2206;" horiz-adv-x="1295" 
d="M391 227h522l-256 824h-6zM507 1456h295l480 -1456h-1260z" />
    <glyph glyph-name="Epsilon" unicode="&#x395;" horiz-adv-x="1008" 
d="M884 639h-489v-412h575v-227h-860v1456h858v-228h-573v-362h489v-227z" />
    <glyph glyph-name="Zeta" unicode="&#x396;" horiz-adv-x="998" 
d="M945 227v-227h-879v143l546 1086h-552v227h876v-138l-550 -1091h559z" />
    <glyph glyph-name="Eta" unicode="&#x397;" horiz-adv-x="1241" 
d="M1131 0h-284v603h-452v-603h-285v1456h285v-626h452v626h284v-1456z" />
    <glyph glyph-name="Theta" unicode="&#x398;" horiz-adv-x="1215" 
d="M354 523q0 -316 226 -316t225 316v410q0 156 -58 235.5t-169 79.5q-224 0 -224 -315v-410zM1088 523q0 -256 -139 -400t-370 -144t-369 144t-138 400v408q0 255 138 400.5t368 145.5t370 -145.5t140 -400.5v-408zM723 609h-281v226h281v-226z" />
    <glyph glyph-name="Iota" unicode="&#x399;" horiz-adv-x="534" 
d="M408 0h-283v1456h283v-1456z" />
    <glyph glyph-name="Kappa" unicode="&#x39a;" horiz-adv-x="1137" 
d="M395 605v-605h-285v1456h285v-592h92l284 592h349l-397 -665l430 -791h-346l-288 605h-124z" />
    <glyph glyph-name="Lambda" unicode="&#x39b;" horiz-adv-x="1138" 
d="M311 0h-297l406 1456h296l408 -1456h-298l-253 1122l-1 6h-6z" />
    <glyph glyph-name="Mu" unicode="&#x39c;" horiz-adv-x="1481" 
d="M1376 1456v-1456h-283v423l24 566l-6 1l-278 -990h-189l-275 982l-6 -1l25 -558v-423h-283v1456h369l261 -1069h6l264 1069h371z" />
    <glyph glyph-name="Nu" unicode="&#x39d;" horiz-adv-x="1241" 
d="M1129 0h-283l-445 931l-6 -2v-929h-285v1456h285l445 -930l6 2v928h283v-1456z" />
    <glyph glyph-name="Xi" unicode="&#x39e;" horiz-adv-x="1002" 
d="M108 1456h782v-227h-782v227zM185 844h646v-218h-646v218zM85 227h844v-227h-844v227z" />
    <glyph glyph-name="Omicron" unicode="&#x39f;" horiz-adv-x="1166" 
d="M357 523q-1 -316 225 -316t226 316v410q0 155 -58 235t-169 80q-224 0 -224 -315v-410zM1091 523q0 -256 -139 -400t-370 -144t-369 144t-138 400v408q0 255 138 401t368 145q230 1 370 -145t140 -401v-408z" />
    <glyph glyph-name="Pi" unicode="&#x3a0;" horiz-adv-x="1241" 
d="M1132 0h-284v1228h-453v-1228h-285v1456h1022v-1456z" />
    <glyph glyph-name="Rho" unicode="&#x3a1;" horiz-adv-x="1158" 
d="M395 750h221q91 0 139 67t48 171q1 104 -47 172t-140 68h-221v-478zM395 522v-522h-285v1456h506q218 0 344 -129t126 -339t-126 -338t-344 -128h-221z" />
    <glyph glyph-name="Sigma" unicode="&#x3a3;" horiz-adv-x="1002" 
d="M949 227v-227h-879v144l359 595l-359 574v143h863v-227h-499l297 -481v-18l-301 -503h519z" />
    <glyph glyph-name="Tau" unicode="&#x3a4;" horiz-adv-x="994" 
d="M967 1228h-328v-1228h-284v1228h-326v228h938v-228z" />
    <glyph glyph-name="Upsilon" unicode="&#x3a5;" horiz-adv-x="1124" 
d="M700 0h-284v536l-409 920h311l240 -624h6l243 624h309l-416 -938v-518z" />
    <glyph glyph-name="Phi" unicode="&#x3a6;" horiz-adv-x="1369" 
d="M1032 724q0 141 -52.5 222t-140.5 85l-6 -2v-605l6 -2q87 3 140 82t53 220zM346 722q0 -142 54 -220t144 -80l6 1v606l-6 2q-90 -3 -144 -85t-54 -224zM1311 723q0 -243 -133 -394t-345 -160v-169h-283v169q-215 8 -348.5 158.5t-133.5 394.5t133.5 399t348.5 164v171
h283v-171q212 -10 345 -164.5t133 -397.5z" />
    <glyph glyph-name="Chi" unicode="&#x3a7;" horiz-adv-x="1127" 
d="M558 947h6l198 509h329l-353 -722l377 -734h-343l-204 520h-6l-204 -520h-331l362 734l-353 722h327z" />
    <glyph glyph-name="Psi" unicode="&#x3a8;" horiz-adv-x="1286" 
d="M957 949v507h285v-507q0 -259 -121.5 -414t-331.5 -182v-353h-284v351q-217 22 -341 178t-124 420v507h284v-507q0 -153 45.5 -242.5t129.5 -107.5l6 1v856h284v-857l6 -1q162 28 162 351z" />
    <glyph glyph-name="Omega" unicode="&#x3a9;" horiz-adv-x="1187" 
d="M764 772v90q0 185 -47 283.5t-129 94.5h-6q-81 4 -127 -94.5t-46 -283.5v-90q0 -462 141 -537v-235h-434v230h216q-108 89 -174 231.5t-66 310.5v88q0 272 136 444.5t356 172.5t358.5 -172.5t138.5 -444.5v-88q0 -168 -67 -310t-174 -232h223v-230h-436v235
q137 79 137 537z" />
    <glyph glyph-name="Omega" unicode="&#x2126;" horiz-adv-x="1187" 
d="M764 772v90q0 185 -47 283.5t-129 94.5h-6q-81 4 -127 -94.5t-46 -283.5v-90q0 -462 141 -537v-235h-434v230h216q-108 89 -174 231.5t-66 310.5v88q0 272 136 444.5t356 172.5t358.5 -172.5t138.5 -444.5v-88q0 -168 -67 -310t-174 -232h223v-230h-436v235
q137 79 137 537z" />
    <glyph glyph-name="Iotadieresis" unicode="&#x3aa;" horiz-adv-x="534" 
d="M408 0h-283v1456h283v-1456zM171 1606h-251v198h251v-198zM619 1606h-250v198h250v-198z" />
    <glyph glyph-name="Upsilondieresis" unicode="&#x3ab;" horiz-adv-x="1124" 
d="M700 0h-284v536l-409 920h311l240 -624h6l243 624h309l-416 -938v-518zM471 1605h-251v198h251v-198zM919 1605h-250v198h250v-198z" />
    <glyph glyph-name="alphatonos" unicode="&#x3ac;" horiz-adv-x="992" 
d="M494 874q-148 0 -148 -339v-21q0 -146 33 -227t112 -81t119 72q-3 24 -3 70v448q-42 78 -113 78zM420 1102q127 0 206 -131l18 110h248v-733q0 -78 12 -108t42 -30q9 0 12 4l22 -212q-50 -23 -111 -23q-165 0 -227 153q-80 -153 -223 -153q-171 1 -265 147t-93 388v21
q-1 255 93 411t266 156zM487 1560h262l-189 -350h-138z" />
    <glyph glyph-name="epsilontonos" unicode="&#x3ad;" horiz-adv-x="988" 
d="M512 460q-143 0 -143 -133q-1 -57 35 -97t104 -39q68 -1 106 35q36 36 36 92h275l2 -6q3 -160 -117 -246t-298 -85t-303 87q-124 86 -124 236q0 186 178 252q-76 36 -119 97t-43 134q0 149 116 231q115 82 295 82t292 -88t108 -234l-2 -6h-276q0 55 -34 86t-94 31
t-90 -37t-31 -90q-1 -52 33 -84t94 -32h156v-186h-156zM468 1559h262l-189 -350h-138z" />
    <glyph glyph-name="etatonos" unicode="&#x3ae;" 
d="M510 874q-86 0 -139 -78v-796h-284v1082h265l12 -148q44 80 110 124t144 44q136 0 213 -106t77 -340v-1071h-285v1071q0 120 -28 169t-85 49zM452 1560h262l-189 -350h-138z" />
    <glyph glyph-name="iotatonos" unicode="&#x3af;" horiz-adv-x="605" 
d="M112 332v749h284v-751q0 -69 16 -96t49 -27q34 0 84 15l26 -215q-77 -28 -166 -28q-141 -1 -217 87t-76 266zM226 1538h262l-189 -350h-138z" />
    <glyph glyph-name="upsilondieresistonos" unicode="&#x3b0;" 
d="M936 570q0 -278 -98 -434t-308 -157q-212 0 -324 122t-112 372v609h284v-611q0 -141 36 -203t91 -55h6q74 -5 108 96t34 252q-6 251 -82 521h267q98 -234 98 -512zM472 1694h262l-162 -275h-135zM386 1198h-235v197h235v-197zM862 1198h-234v197h234v-197z" />
    <glyph glyph-name="alpha" unicode="&#x3b1;" horiz-adv-x="992" 
d="M494 874q-148 0 -148 -339v-21q0 -146 33 -227t112 -81t119 72q-3 24 -3 70v448q-42 78 -113 78zM420 1102q127 0 206 -131l18 110h248v-733q0 -77 12.5 -107.5t41.5 -30.5q9 0 12 4l22 -212q-50 -23 -111 -23q-165 0 -227 153q-80 -153 -223 -153q-171 0 -264.5 146.5
t-93.5 388.5v21q0 255 93.5 411t265.5 156z" />
    <glyph glyph-name="beta" unicode="&#x3b2;" horiz-adv-x="1064" 
d="M721 424q0 102 -40.5 162.5t-116.5 60.5h-71v206h50q130 0 130 208q0 78 -33.5 133t-95.5 55t-101.5 -60t-39.5 -159v-777q59 -47 145 -47t129.5 58t43.5 160zM630 -21q-127 0 -227 66v-454h-283v1439q0 198 123 322.5t307 124.5t295 -104.5t111 -289.5
q0 -101 -45.5 -184.5t-124.5 -131.5q105 -43 162.5 -135.5t57.5 -222.5q0 -205 -100 -317.5t-276 -112.5z" />
    <glyph glyph-name="gamma" unicode="&#x3b3;" horiz-adv-x="909" 
d="M595 -416h-284v434l-296 1064h297l127 -674l13 -82h6l139 756h297l-299 -1079v-419z" />
    <glyph glyph-name="delta" unicode="&#x3b4;" 
d="M341 551v-22q0 -150 35 -236t119 -81h6q152 -9 152 317v22q0 111 -36 193.5t-92 121.5q-18 8 -28 8q-156 0 -156 -323zM156 1456h690v-227h-308q155 -137 277 -312.5t122 -365.5v-22q0 -245 -115.5 -397.5t-323.5 -152.5t-324 144t-116 376v22q0 198 90.5 335.5
t229.5 164.5q-106 143 -222 251v184z" />
    <glyph glyph-name="epsilon" unicode="&#x3b5;" horiz-adv-x="988" 
d="M512 460q-143 0 -143 -133q0 -57 35.5 -96.5t103.5 -39.5t105 35.5t37 91.5h275l2 -6q4 -160 -116.5 -245.5t-298.5 -85.5t-302.5 86.5t-124.5 236.5q0 186 178 252q-76 36 -119 97t-43 134q0 149 115.5 231t295.5 82t292.5 -88.5t107.5 -233.5l-2 -6h-276q0 55 -34 86
t-94 31t-90.5 -37t-30.5 -90t33.5 -84.5t93.5 -31.5h156v-186h-156z" />
    <glyph glyph-name="zeta" unicode="&#x3b6;" horiz-adv-x="891" 
d="M571 -80q0 80 -108 80h-36q-164 0 -250.5 110t-86.5 266t55.5 288.5t175.5 309.5l177 256h-430v226h766v-157l-299 -444q-88 -134 -125 -224.5t-37 -207.5q0 -201 153 -201h43q126 0 200.5 -73t74.5 -201t-79 -229.5t-218 -141.5l-93 196q117 57 117 147z" />
    <glyph glyph-name="eta" unicode="&#x3b7;" 
d="M510 874q-86 0 -139 -78v-796h-284v1082h265l12 -148q44 79 109.5 123.5t144.5 44.5q136 0 213 -106.5t77 -339.5v-1071h-285v1071q0 120 -28 169t-85 49z" />
    <glyph glyph-name="theta" unicode="&#x3b8;" horiz-adv-x="1049" 
d="M381 909v-68h285v68q0 176 -37 257t-103 76h-6q-139 10 -139 -333zM666 548v75h-285v-75q0 -348 141 -335h6q138 -13 138 335zM950 571q0 -291 -115.5 -441.5t-310.5 -150.5t-311 150.5t-116 441.5v313q0 290 115.5 441.5t310.5 151.5t311 -151.5t116 -441.5v-313z" />
    <glyph glyph-name="iota" unicode="&#x3b9;" horiz-adv-x="605" 
d="M112 332v749h284v-751q0 -69 15.5 -96t49.5 -27t84 15l26 -215q-77 -28 -166 -28q-141 0 -217 87.5t-76 265.5z" />
    <glyph glyph-name="kappa" unicode="&#x3ba;" horiz-adv-x="1062" 
d="M393 402v-402h-284v1082h284v-409h66l199 409h361l-311 -493l2 1l315 -590h-364l-180 402h-88z" />
    <glyph glyph-name="lambda" unicode="&#x3bb;" horiz-adv-x="937" 
d="M219 1518q143 0 213.5 -79t109.5 -194l308 -895q29 -114 93 -130q14 -5 42 -3l-21 -220q-212 -40 -291.5 78t-117.5 245l-101 341h-6l-136 -661h-304l312 1066l-46 107q-18 52 -51.5 84.5t-66.5 32.5t-65 -6l-5 211q86 23 133 23z" />
    <glyph glyph-name="uni03BC" unicode="&#x3bc;" horiz-adv-x="1113" 
d="M544 -21q-86 0 -139 35v-430h-285v1498h285v-637q1 -137 33 -187t101 -49q101 0 148 94v779h284v-1082h-267l-4 51q-70 -72 -156 -72z" />
    <glyph glyph-name="nu" unicode="&#x3bd;" horiz-adv-x="909" 
d="M439 408l13 -82h6l139 756h297l-300 -1082h-278l-301 1082h297z" />
    <glyph glyph-name="xi" unicode="&#x3be;" horiz-adv-x="958" 
d="M171 1018q0 138 126 203h-180v235h737v-235h-232q-85 0 -126 -40.5t-41 -112.5q0 -161 157 -161h132v-236h-123q-244 0 -244 -251q0 -93 42.5 -149t118.5 -56h120q130 0 206.5 -69.5t75.5 -209.5q-2 -286 -298 -378l-75 171q115 62 115 157t-99 95h-62q-199 0 -314 116.5
t-115 326.5q0 270 254 363q-175 68 -175 231z" />
    <glyph glyph-name="omicron" unicode="&#x3bf;" 
d="M497 874q-156 0 -156 -267v-134q0 -125 35 -196q34 -71 120 -71t122 72t35 195v134q0 267 -156 267zM58 607q0 219 116 357t323 138q208 0 324 -138t116 -357v-134q0 -220 -116 -357t-324 -137q-207 0 -323 137t-116 357v134z" />
    <glyph glyph-name="pi" unicode="&#x3c0;" horiz-adv-x="1167" 
d="M947 -20q-141 0 -217 87.5t-76 265.5v535h-165v-868h-284v868h-131v214h996v-214h-132v-537q0 -69 15.5 -96t49.5 -27t84 15l26 -215q-77 -28 -166 -28z" />
    <glyph glyph-name="rho" unicode="&#x3c1;" 
d="M655 514v21q0 153 -34.5 244.5t-108.5 87.5h-6q-65 4 -97.5 -84t-32.5 -229l-1 -1h1v-276q41 -71 132 -71q147 0 147 308zM583 -21q-130 0 -207 103v-498h-284v997h2l-2 1q0 232 115 376t315 144t308.5 -155.5t108.5 -411.5v-21q0 -242 -93.5 -388.5t-262.5 -146.5z" />
    <glyph glyph-name="sigma1" unicode="&#x3c2;" horiz-adv-x="895" 
d="M588 -98q0 41 -30.5 64t-92.5 36q-416 67 -416 524v28q0 241 112 394.5t320 153.5q175 0 278 -111.5t100 -306.5l-2 -5h-259q0 195 -117 195q-83 0 -115 -87t-32 -233v-28q0 -141 48 -213.5t160 -92.5q166 -29 243 -94.5t75 -195.5t-79.5 -230.5t-215.5 -139.5l-92 196
q115 60 115 146z" />
    <glyph glyph-name="sigma" unicode="&#x3c3;" horiz-adv-x="1013" 
d="M496 854q-156 0 -156 -303v-22q0 -150 34.5 -235.5t118.5 -80.5h6q136 -9 136 316v22q0 303 -139 303zM984 854h-217q67 -66 109.5 -154.5t42.5 -185.5v-23q0 -226 -111.5 -369t-315.5 -143t-319.5 152.5t-115.5 397.5v22q0 236 115 383.5t323 147.5q0 -1 1 -1l488 1
v-228z" />
    <glyph glyph-name="tau" unicode="&#x3c4;" horiz-adv-x="931" 
d="M893 856h-284v-856h-284v856h-281v226h849v-226z" />
    <glyph glyph-name="upsilon" unicode="&#x3c5;" 
d="M936 570q0 -278 -97 -434.5t-309 -156.5t-324 122t-112 372v609h284v-611q0 -141 35.5 -202.5t91.5 -55.5h6q74 -5 108 96t34 252q-6 251 -82 521h267q98 -234 98 -512z" />
    <glyph glyph-name="phi" unicode="&#x3c6;" horiz-adv-x="1337" 
d="M808 231q190 45 190 308q-2 140 -50.5 226t-139.5 80l-6 -2v-610zM518 1082h284q236 0 358 -164t122 -381t-113.5 -367t-366.5 -182v-466h-284v468q-252 39 -365 203t-113 421t109 468h257q-79 -272 -81 -487q0 -301 187 -355l6 1v841z" />
    <glyph glyph-name="chi" unicode="&#x3c7;" horiz-adv-x="941" 
d="M164 1098q137 0 204 -79.5t102 -192.5l36 -101h6l145 357h287l-302 -735l149 -415q31 -128 76.5 -130t58.5 -2l-13 -221q-64 -14 -149 -6q-86 9 -146.5 106t-95.5 223l-27 75h-6l-161 -392h-278l311 768l-142 401q-16 54 -56 84.5t-78 30.5t-64 -6l-6 212q98 23 149 23z
" />
    <glyph glyph-name="psi" unicode="&#x3c8;" horiz-adv-x="1336" 
d="M1281 610q0 -255 -114 -421t-366 -201v-461h-284v464q-222 35 -342.5 181.5t-120.5 415.5v494h285v-496q0 -149 46 -234t126 -109l6 1v837h284v-840l6 -1q189 58 189 358q-4 211 -84 484h258q111 -217 111 -472z" />
    <glyph glyph-name="omega" unicode="&#x3c9;" horiz-adv-x="1507" 
d="M603 494v352h300v-352q0 -150 36.5 -220t96.5 -60q122 -11 122 347q-8 255 -115 521h266q133 -233 133 -512q0 -280 -92 -435.5t-300 -155.5t-297 205q-91 -205 -298 -205t-298.5 156t-91.5 437t131 510h266q-108 -266 -114 -521q0 -358 122 -347q59 -10 96 60t37 220z
" />
    <glyph glyph-name="iotadieresis" unicode="&#x3ca;" horiz-adv-x="605" 
d="M112 332v749h284v-751q0 -69 16 -96t49 -27q34 0 84 15l26 -215q-77 -28 -166 -28q-141 -1 -217 87t-76 266zM171 1262h-251v198h251v-198zM619 1262h-250v198h250v-198z" />
    <glyph glyph-name="upsilondieresis" unicode="&#x3cb;" 
d="M936 570q0 -278 -98 -434t-308 -157q-212 0 -324 122t-112 372v609h284v-611q0 -141 36 -203t91 -55h6q74 -5 108 96t34 252q-6 251 -82 521h267q98 -234 98 -512zM420 1263h-251v198h251v-198zM868 1263h-250v198h250v-198z" />
    <glyph glyph-name="omicrontonos" unicode="&#x3cc;" 
d="M497 874q-156 0 -156 -267v-134q0 -125 35 -196q34 -71 120 -71t122 72t35 195v134q0 267 -156 267zM58 607q0 219 116 357t323 138q208 0 324 -138t116 -357v-134q0 -220 -116 -357t-324 -137q-207 0 -323 137t-116 357v134zM452 1560h262l-189 -350h-138z" />
    <glyph glyph-name="upsilontonos" unicode="&#x3cd;" 
d="M936 570q0 -278 -98 -434t-308 -157q-212 0 -324 122t-112 372v609h284v-611q0 -141 36 -203t91 -55h6q74 -5 108 96t34 252q-6 251 -82 521h267q98 -234 98 -512zM475 1539h262l-189 -350h-138z" />
    <glyph glyph-name="omegatonos" unicode="&#x3ce;" horiz-adv-x="1507" 
d="M603 494v352h300v-352q0 -150 36 -220t97 -60q122 -11 122 347q-8 255 -115 521h266q133 -233 133 -512q0 -280 -92 -436t-300 -155q-208 0 -297 205q-91 -205 -298 -205t-299 156t-91 437q0 281 131 510h266q-108 -266 -114 -521q0 -358 122 -347q59 -10 96 60t37 220z
M711 1539h262l-189 -350h-138z" />
    <glyph glyph-name="uni03D1" unicode="&#x3d1;" horiz-adv-x="1231" 
d="M845 1098q0 130 -42 120h-6q-25 5 -41.5 -27t-16.5 -93v-142q0 -78 27 -132t73 -64l6 2v336zM632 215q101 0 156.5 85.5t56.5 238.5q-158 16 -265.5 133t-107.5 286v109q0 187 96 298.5t248 111.5t240 -109t88 -301v-523q0 -257 -139.5 -411t-371.5 -154t-377.5 159.5
t-145.5 405.5v708l301 2v-710q0 -147 60 -238t161 -91z" />
    <glyph glyph-name="uni03D2" unicode="&#x3d2;" horiz-adv-x="1059" 
d="M88 1482q122 0 189 -60.5t120 -216.5l117 -385l11 -67h6l12 67l116 377q53 158 121 221.5t189 63.5q51 0 87 -19l-22 -222q-10 5 -41 5q-60 0 -84 -110l-243 -672v-464h-284v486l-234 650q-26 110 -86 110q-31 0 -41 -5l-19 222q32 19 86 19z" />
    <glyph glyph-name="uni03D6" unicode="&#x3d6;" horiz-adv-x="1472" 
d="M586 494v202h301v-202q0 -150 35 -218.5t90 -61.5h6q100 -11 100 347q-6 166 -47 322h-670q-42 -160 -46 -322q0 -358 100 -347h6q53 -7 89 61.5t36 218.5zM70 561q0 173 45 322h-102v199h1452v-199h-109q46 -155 46 -322q0 -270 -87 -426t-288 -156t-291 206
q-92 -206 -292 -206t-287 156t-87 426z" />
    <glyph glyph-name="uni0400" unicode="&#x400;" horiz-adv-x="1008" 
d="M884 639h-489v-412h575v-227h-860v1456h858v-228h-573v-362h489v-227zM659 1559h-230l-246 260l3 6h298z" />
    <glyph glyph-name="uni0401" unicode="&#x401;" horiz-adv-x="1008" 
d="M884 639h-489v-412h575v-227h-860v1456h858v-228h-573v-362h489v-227zM415 1606h-251v198h251v-198zM863 1606h-250v198h250v-198z" />
    <glyph glyph-name="uni0402" unicode="&#x402;" horiz-adv-x="1313" 
d="M795 665q-90 0 -187 -19v-646h-285v1228h-296v228h964v-228h-383v-364q111 30 190 30q215 0 339.5 -115t124.5 -323t-114 -340t-362 -129l-6 3v206q124 0 160 63t37 169t-45.5 171.5t-136.5 65.5z" />
    <glyph glyph-name="uni0403" unicode="&#x403;" horiz-adv-x="983" 
d="M931 1228h-535v-1228h-285v1456h820v-228zM553 1826h299l3 -6l-249 -260h-229z" />
    <glyph glyph-name="uni0404" unicode="&#x404;" horiz-adv-x="1089" 
d="M349 511q0 -304 214 -304q103 0 143.5 59.5t35.5 203.5h274l3 -6q2 -240 -114 -362t-342 -122t-361 138.5t-135 392.5v435q0 253 130.5 392.5t356.5 139.5t344 -124t122 -367l-3 -6h-274q6 143 -39 206t-157 63q-198 0 -198 -302v-104h360v-227h-360v-106z" />
    <glyph glyph-name="uni0405" unicode="&#x405;" horiz-adv-x="1109" 
d="M568 202q190 0 189 180q0 84 -44 133t-155 97q-227 79 -340.5 179.5t-113.5 280.5t132 292.5t338 112.5t336.5 -125.5t126.5 -316.5l-2 -6h-276q0 100 -50 162t-138 62t-135.5 -51.5t-47.5 -126.5t53 -121.5t184 -103.5q207 -70 311.5 -177.5t104.5 -293.5t-126.5 -293
t-334.5 -107t-360.5 121.5t-147.5 348.5l2 6h277q1 -253 217 -253z" />
    <glyph glyph-name="uni0406" unicode="&#x406;" horiz-adv-x="534" 
d="M408 0h-283v1456h283v-1456z" />
    <glyph glyph-name="uni0407" unicode="&#x407;" horiz-adv-x="534" 
d="M408 0h-283v1456h283v-1456zM171 1606h-251v198h251v-198zM619 1606h-250v198h250v-198z" />
    <glyph glyph-name="uni0408" unicode="&#x408;" horiz-adv-x="1015" 
d="M623 1456h283v-1012q0 -214 -120 -340t-312 -125q-190 0 -306 112t-111 330l3 6h277q1 -115 41 -168t101 -53t103 63t41 175v1012z" />
    <glyph glyph-name="uni0409" unicode="&#x409;" horiz-adv-x="1843" 
d="M1130 722v-495h185q90 0 141.5 72.5t51.5 175.5t-51.5 175t-141.5 72h-185zM1130 1456v-507h185q216 0 346.5 -133t130.5 -342t-130.5 -341.5t-346.5 -132.5h-468v1228h-287l2 -426q2 -428 -121 -615t-364 -187h-36v227h33q124 0 165.5 121.5t38.5 453.5l-4 654h856z" />
    <glyph glyph-name="uni040A" unicode="&#x40a;" horiz-adv-x="1843" 
d="M1131 713v-485h184q91 0 142.5 71t51.5 173t-51.5 171.5t-142.5 69.5h-184zM395 836h452v620h284v-516h184q216 0 347 -131.5t131 -338.5t-131 -338.5t-347 -131.5h-468v609h-452v-609h-284v1456h284v-620z" />
    <glyph glyph-name="uni040B" unicode="&#x40b;" horiz-adv-x="1341" 
d="M771 696q-90 0 -177 -15v-681h-285v1228h-275v228h938v-228h-378v-320q110 15 157 15q232 0 362.5 -118.5t130.5 -361.5v-443h-283v443q0 142 -50 197.5t-140 55.5z" />
    <glyph glyph-name="uni040C" unicode="&#x40c;" horiz-adv-x="1137" 
d="M395 605v-605h-285v1456h285v-592h92l284 592h349l-397 -665l430 -791h-346l-288 605h-124zM547 1826h299l3 -6l-249 -260h-229z" />
    <glyph glyph-name="uni040D" unicode="&#x40d;" horiz-adv-x="1226" 
d="M1118 1456v-1456h-284v904l-6 1l-445 -905h-284v1456h284v-904l6 -1l445 905h284zM754 1559h-230l-246 260l3 6h298z" />
    <glyph glyph-name="uni040E" unicode="&#x40e;" horiz-adv-x="1111" 
d="M308 206q58 0 90 36t51 109l14 49h-1l-430 1056h304l233 -661l3 -14h6l209 675h297l-408 -1173q-59 -145 -134 -225t-212 -79q-26 0 -90 4l-5 227q15 -4 73 -4zM555 1601q-145 0 -231 81t-81 209l2 6h207q0 -53 26 -87t77 -34q53 0 77 34t24 87h209l2 -6q5 -129 -81 -209
t-231 -81z" />
    <glyph glyph-name="uni040F" unicode="&#x40f;" horiz-adv-x="1228" 
d="M96 1456h283v-1229h454v1229h284v-1456h-356v-359h-284v359h-381v1456z" />
    <glyph glyph-name="uni0410" unicode="&#x410;" horiz-adv-x="1134" 
d="M439 538h268l-131 515h-6zM765 309h-384l-78 -309h-287l410 1456h296l409 -1456h-287z" />
    <glyph glyph-name="uni0411" unicode="&#x411;" horiz-adv-x="1101" 
d="M394 693v-466h183q92 0 143.5 67.5t51.5 169.5t-51.5 165.5t-143.5 63.5h-183zM929 1228h-535v-308h183q219 0 349 -124t130 -332t-130.5 -336t-348.5 -128h-468v1456h820v-228z" />
    <glyph glyph-name="uni0412" unicode="&#x412;" horiz-adv-x="1136" 
d="M732 1031q0 197 -193 197h-144v-387h157q88 3 134 51t46 139zM596 227q179 -1 179 207t-160 208h-220v-415h201zM110 0v1456h429q225 0 351 -100t127 -298q0 -104 -46 -184t-138 -121q115 -27 170 -117t55 -211q0 -209 -120 -317t-342 -108h-486z" />
    <glyph glyph-name="uni0413" unicode="&#x413;" horiz-adv-x="983" 
d="M931 1228h-535v-1228h-285v1456h820v-228z" />
    <glyph glyph-name="uni0414" unicode="&#x414;" horiz-adv-x="1321" 
d="M866 227v1001h-279l-22 -358q-15 -421 -142 -643h443zM1012 -357v357h-706v-357h-264l-20 584h95q149 135 163 643l37 586h832v-1229h148l-27 -584h-258z" />
    <glyph glyph-name="uni0415" unicode="&#x415;" horiz-adv-x="1008" 
d="M884 639h-489v-412h575v-227h-860v1456h858v-228h-573v-362h489v-227z" />
    <glyph glyph-name="uni0416" unicode="&#x416;" horiz-adv-x="1788" 
d="M1048 604v-604h-284v604h-144l-245 -604h-354l377 798l-360 658h353l250 -594h123v594h284v-594h119l242 594h352l-352 -655l369 -801h-353l-238 604h-139z" />
    <glyph glyph-name="uni0417" unicode="&#x417;" horiz-adv-x="1092" 
d="M543 853q161 0 161 205q0 83 -45.5 137t-124.5 54t-125 -51t-46 -135h-276l-2 6q-5 182 125 295t330 113t324 -108t124 -307q0 -101 -51.5 -184t-141.5 -131q102 -42 157 -129t55 -212q0 -200 -132.5 -313.5t-334.5 -113.5t-339.5 107t-132.5 312l2 6h276
q0 -85 50.5 -141.5t135.5 -56.5t137.5 57t52.5 147q0 222 -179 222h-152v221h152z" />
    <glyph glyph-name="uni0418" unicode="&#x418;" horiz-adv-x="1226" 
d="M1118 1456v-1456h-284v904l-6 1l-445 -905h-284v1456h284v-904l6 -1l445 905h284z" />
    <glyph glyph-name="uni0419" unicode="&#x419;" horiz-adv-x="1226" 
d="M1118 1456v-1456h-284v904l-6 1l-445 -905h-284v1456h284v-904l6 -1l445 905h284zM609 1601q-145 0 -231 81t-81 209l2 6h207q0 -53 26 -87t77 -34q53 0 77 34t24 87h209l2 -6q5 -129 -81 -209t-231 -81z" />
    <glyph glyph-name="uni041A" unicode="&#x41a;" horiz-adv-x="1137" 
d="M395 605v-605h-285v1456h285v-592h92l284 592h349l-397 -665l430 -791h-346l-288 605h-124z" />
    <glyph glyph-name="uni041B" unicode="&#x41b;" horiz-adv-x="1241" 
d="M1130 1456v-1456h-283v1228h-305l3 -426q2 -429 -106.5 -615.5t-327.5 -186.5h-68v227h34q114 11 150 127t34 448l-4 654h873z" />
    <glyph glyph-name="uni041C" unicode="&#x41c;" horiz-adv-x="1481" 
d="M1376 1456v-1456h-283v423l24 566l-6 1l-278 -990h-189l-275 982l-6 -1l25 -558v-423h-283v1456h369l261 -1069h6l264 1069h371z" />
    <glyph glyph-name="uni041D" unicode="&#x41d;" horiz-adv-x="1241" 
d="M1131 0h-284v603h-452v-603h-285v1456h285v-626h452v626h284v-1456z" />
    <glyph glyph-name="uni041E" unicode="&#x41e;" horiz-adv-x="1166" 
d="M357 523q-1 -316 225 -316t226 316v410q0 155 -58 235t-169 80q-224 0 -224 -315v-410zM1091 523q0 -256 -139 -400t-370 -144t-369 144t-138 400v408q0 255 138 401t368 145q230 1 370 -145t140 -401v-408z" />
    <glyph glyph-name="uni041F" unicode="&#x41f;" horiz-adv-x="1241" 
d="M1132 0h-284v1228h-453v-1228h-285v1456h1022v-1456z" />
    <glyph glyph-name="uni0420" unicode="&#x420;" horiz-adv-x="1158" 
d="M395 750h221q91 0 139 67t48 171q1 104 -47 172t-140 68h-221v-478zM395 522v-522h-285v1456h506q218 0 344 -129t126 -339t-126 -338t-344 -128h-221z" />
    <glyph glyph-name="uni0421" unicode="&#x421;" horiz-adv-x="1088" 
d="M356 510q0 -304 214 -304q104 0 144 60t35 203h274l3 -6q2 -240 -114 -362t-342 -122q-226 1 -361 139t-135 392v435q0 253 130 393t356 139q226 0 344 -124t123 -367l-3 -6h-274q6 143 -39 206t-157 63q-198 0 -198 -302v-437z" />
    <glyph glyph-name="uni0422" unicode="&#x422;" horiz-adv-x="994" 
d="M967 1228h-328v-1228h-284v1228h-326v228h938v-228z" />
    <glyph glyph-name="uni0423" unicode="&#x423;" horiz-adv-x="1111" 
d="M308 206q58 0 90 35.5t51 109.5l14 49h-1l-430 1056h304l233 -661l3 -14h6l209 675h297l-408 -1173q-59 -145 -134 -224.5t-212 -79.5q-26 0 -90 4l-5 227q15 -4 73 -4z" />
    <glyph glyph-name="uni0424" unicode="&#x424;" horiz-adv-x="1467" 
d="M1124 724q0 170 -65.5 263t-173.5 88l-6 -2v-690l6 -2q108 -7 173.5 83t65.5 260zM595 1083q-114 0 -181 -95.5t-67 -265.5t67 -259.5t181 -89.5h1v710h-1zM1403 724q0 -268 -146.5 -431.5t-377.5 -163.5v-189h-283v189h-1q-233 0 -379.5 162t-146.5 431t146.5 436.5
t379.5 167.5h1v190h283v-190q231 -2 377.5 -168t146.5 -434z" />
    <glyph glyph-name="uni0425" unicode="&#x425;" horiz-adv-x="1127" 
d="M558 947h6l198 509h329l-353 -722l377 -734h-343l-204 520h-6l-204 -520h-331l362 734l-353 722h327z" />
    <glyph glyph-name="uni0426" unicode="&#x426;" horiz-adv-x="1347" 
d="M97 1456h284v-1229h452v1229h285v-1230h177l-19 -577h-264v351h-915v1456z" />
    <glyph glyph-name="uni0427" unicode="&#x427;" horiz-adv-x="1232" 
d="M614 761q113 0 222 28v667h285v-1456h-285v562q-114 -28 -224 -28q-233 0 -363 118t-130 362v442h283v-442q0 -142 49.5 -197.5t162.5 -55.5z" />
    <glyph glyph-name="uni0428" unicode="&#x428;" horiz-adv-x="1689" 
d="M393 1456v-1229h312v1229h283v-1229h308v1229h285v-1456h-1473v1456h285z" />
    <glyph glyph-name="uni0429" unicode="&#x429;" horiz-adv-x="1825" 
d="M393 1456v-1229h312v1229h283v-1229h308v1229h285v-1230h184l-19 -576h-264v350h-1374v1456h285z" />
    <glyph glyph-name="uni042A" unicode="&#x42a;" horiz-adv-x="1354" 
d="M646 693v-466h184q92 0 143.5 67.5t51.5 169.5t-51.5 165.5t-143.5 63.5h-184zM37 1456h609v-536h184q219 0 349 -124t130 -332t-130.5 -336t-348.5 -128h-467v1229h-326v227z" />
    <glyph glyph-name="uni042B" unicode="&#x42b;" horiz-adv-x="1540" 
d="M395 693v-466h184q92 0 143.5 67.5t51.5 169.5t-51.5 165.5t-143.5 63.5h-184zM1428 0h-283v1456h283v-1456zM395 920h184q219 0 349 -124t130 -332t-130.5 -336t-348.5 -128h-467v1456h283v-536z" />
    <glyph glyph-name="uni042C" unicode="&#x42c;" horiz-adv-x="1105" 
d="M393 693v-466h184q92 0 143.5 67.5t51.5 169.5t-51.5 165.5t-143.5 63.5h-184zM393 920h184q219 0 349 -124t130 -332t-130.5 -336t-348.5 -128h-467v1456h283v-536z" />
    <glyph glyph-name="uni042D" unicode="&#x42d;" horiz-adv-x="1087" 
d="M527 1478q220 0 348 -167.5t128 -436.5v-291q0 -270 -127.5 -436.5t-348.5 -166.5t-344 127.5t-119 368.5l3 6h276q0 -144 44 -209.5t142 -65.5q189 0 189 374v40h-365v228h365v25q0 173 -46 274.5t-143 101.5t-141 -66.5t-44 -210.5h-275l-3 6q-4 239 118.5 369
t342.5 130z" />
    <glyph glyph-name="uni042E" unicode="&#x42e;" horiz-adv-x="1673" 
d="M806 523q0 -316 226 -316t225 316v410q0 156 -58 235.5t-169 79.5q-224 0 -224 -315v-410zM1540 523q0 -256 -139 -400t-370 -144t-369 144t-138 400v60h-124v-583h-283v1456h283v-645h124v120q0 255 138 400.5t368 145.5t370 -145.5t140 -400.5v-408z" />
    <glyph glyph-name="uni042F" unicode="&#x42f;" horiz-adv-x="1045" 
d="M506 1228q-178 0 -178 -235q0 -113 46.5 -180t137.5 -67h150v482h-156zM44 1008q0 216 122.5 332t339.5 116h440v-1456h-284v533h-170l-221 -533h-306l262 634q-183 123 -183 374z" />
    <glyph glyph-name="uni0430" unicode="&#x430;" horiz-adv-x="944" 
d="M434 193q44 0 80 23t57 59v199h-107q-65 0 -94 -45t-29 -107t25 -95q25 -34 68 -34zM57 308q1 153 103 241t304 88h107v88q0 164 -114 164q-96 0 -96 -133l-275 1l-3 6q-5 141 105 240t283 99t279 -98t106 -281v-438q0 -154 45 -285h-282q-26 59 -36 124
q-88 -145 -226 -145q-139 0 -219 88t-81 241z" />
    <glyph glyph-name="uni0431" unicode="&#x431;" horiz-adv-x="1012" 
d="M670 515q0 278 -155 278t-155 -278v-23q0 -132 35 -209t121 -77q154 0 154 286v23zM954 515v-23q0 -229 -115.5 -371t-323.5 -142t-323.5 142t-115.5 371v149q0 359 119 553.5t306 236.5q70 16 106.5 43t36.5 84h219l2 -6q4 -190 -78 -254.5t-279 -99.5
q-169 -36 -197 -266l3 -5q100 93 222 93q198 0 308 -140.5t110 -364.5z" />
    <glyph glyph-name="uni0432" unicode="&#x432;" horiz-adv-x="997" 
d="M510 639q102 0 102 104q0 59 -26.5 86t-82.5 27h-110v-217h117zM393 452v-227h169q53 0 76.5 27.5t23.5 83.5t-22 86t-78 30h-169zM109 0v1082h394q185 0 288.5 -76t103.5 -225q0 -76 -45.5 -136t-129.5 -91q113 -24 169.5 -90t56.5 -157q0 -153 -98.5 -230t-285.5 -77
h-453z" />
    <glyph glyph-name="uni0433" unicode="&#x433;" horiz-adv-x="741" 
d="M729 854h-357v-854h-284v1082h641v-228z" />
    <glyph glyph-name="uni0434" unicode="&#x434;" horiz-adv-x="1136" 
d="M684 227v624h-144v-125q-14 -317 -119 -499h263zM967 1082v-855h141l-19 -552h-265v325h-502v-325h-266l-25 553h83q90 101 115 200.5t27 297.5l1 356h710z" />
    <glyph glyph-name="uni0435" unicode="&#x435;" horiz-adv-x="938" 
d="M608 685q0 189 -119 189q-127 0 -136 -229h255v40zM513 -21q-204 0 -324 134t-120 338v152q-1 219 111 359t306 140t297 -127q104 -127 104 -346v-174h-535v-4q0 -107 48 -176t138 -69q89 0 139 18t119 60l72 -181q-56 -54 -150 -89t-205 -35z" />
    <glyph glyph-name="uni0436" unicode="&#x436;" horiz-adv-x="1544" 
d="M918 404v-404h-284v404h-96l-144 -404h-364l273 590l-266 492h360l157 -407h80v407h284v-407h83l156 407h361l-281 -493l287 -589h-364l-144 404h-98z" />
    <glyph glyph-name="uni0437" unicode="&#x437;" horiz-adv-x="910" 
d="M575 327q0 136 -113 136h-129v180h129q96 0 96 123t-94 123q-50 0 -78.5 -31t-28.5 -86h-275l-3 6q-5 145 101 233.5t278 88.5t277.5 -81.5t105.5 -231.5q0 -73 -38 -134t-105 -96q160 -66 160 -253q0 -151 -113.5 -237t-284.5 -86t-285.5 85t-109.5 246l3 6h275
q0 -56 29.5 -91.5t89.5 -35.5q112 0 113 136z" />
    <glyph glyph-name="uni0438" unicode="&#x438;" horiz-adv-x="998" 
d="M911 1082v-1082h-284v592l-6 1l-248 -593h-285v1082h285v-590l6 -1l248 591h284z" />
    <glyph glyph-name="uni0439" unicode="&#x439;" horiz-adv-x="998" 
d="M911 1082v-1082h-284v592l-6 1l-248 -593h-285v1082h285v-590l6 -1l248 591h284zM500 1258q-145 0 -231 81t-81 209l2 6h207q-1 -53 25 -87t78 -34t76 34t25 87h209l2 -6q4 -130 -82 -210t-230 -80z" />
    <glyph glyph-name="uni043A" unicode="&#x43a;" horiz-adv-x="1013" 
d="M393 402v-402h-284v1082h284v-409h75l160 409h359l-282 -496l306 -586h-379l-161 402h-78z" />
    <glyph glyph-name="uni043B" unicode="&#x43b;" horiz-adv-x="1000" 
d="M912 1082v-1082h-284v854h-177v-236q0 -320 -88.5 -469t-302.5 -149h-39l-4 230h25q83 0 103.5 76.5t20.5 311.5v464h746z" />
    <glyph glyph-name="uni043C" unicode="&#x43c;" horiz-adv-x="1345" 
d="M1225 1082v-1082h-285v566l-6 1l-176 -567h-190l-169 544l-6 -1v-543h-284v1082h350l200 -741h6l203 741h357z" />
    <glyph glyph-name="uni043D" unicode="&#x43d;" horiz-adv-x="998" 
d="M909 0h-285v420h-252v-420h-284v1082h284v-436h252v436h285v-1082z" />
    <glyph glyph-name="uni043E" unicode="&#x43e;" 
d="M497 874q-156 0 -156 -267v-134q0 -125 35 -196q34 -71 120 -71t122 72t35 195v134q0 267 -156 267zM58 607q0 219 116 357t323 138q208 0 324 -138t116 -357v-134q0 -220 -116 -357t-324 -137q-207 0 -323 137t-116 357v134z" />
    <glyph glyph-name="uni043F" unicode="&#x43f;" horiz-adv-x="998" 
d="M911 0h-285v854h-254v-854h-284v1082h823v-1082z" />
    <glyph glyph-name="uni0440" unicode="&#x440;" 
d="M656 591q0 283 -155 283q-83 0 -125 -86v-510q40 -72 132 -72q148 0 148 252v133zM581 1102q171 0 265 -140t94 -371v-133q0 -216 -94 -348t-263 -131q-130 0 -207 105v-500h-284v1498h263l10 -107q81 127 216 127z" />
    <glyph glyph-name="uni0441" unicode="&#x441;" horiz-adv-x="910" 
d="M487 206q117 0 117 167h258l3 -6q3 -170 -104.5 -279t-273.5 -109q-210 0 -322.5 137t-112.5 354v139q0 216 112 354.5t304 138.5t296 -113t101 -305l-2 -5h-259q0 88 -29.5 141.5t-89.5 53.5q-85 0 -117 -72t-32 -193v-139q0 -124 32 -194t119 -70z" />
    <glyph glyph-name="uni0442" unicode="&#x442;" horiz-adv-x="914" 
d="M880 856h-283v-856h-286v856h-280v226h849v-226z" />
    <glyph glyph-name="uni0443" unicode="&#x443;" horiz-adv-x="909" 
d="M160 -207q108 0 139 118l25 80l-319 1091h305l130 -638l2 -11l158 649h304l-365 -1245q-41 -117 -109 -195t-210 -79q-44 0 -134 24l33 212q34 -6 41 -6z" />
    <glyph glyph-name="uni0444" unicode="&#x444;" horiz-adv-x="1285" 
d="M470 874q-131 0 -131 -339v-21q0 -146 29 -227t100 -81q10 0 30 2v664q-18 2 -28 2zM815 206q129 0 129 308v21q0 339 -131 339l-30 -2v-664q6 -2 7 -2h25zM55 514v21q0 256 88.5 411.5t252.5 155.5q49 0 102 -20v478h285v-479q50 21 105 21q163 0 252 -155.5t89 -411.5
v-21q0 -243 -89 -389t-251 -146q-55 0 -106 20v-415h-285v414q-51 -19 -104 -19q-162 0 -250.5 146.5t-88.5 388.5z" />
    <glyph glyph-name="uni0445" unicode="&#x445;" horiz-adv-x="909" 
d="M451 741h6l114 341h320l-268 -535l276 -547h-319l-119 351h-6l-119 -351h-320l275 547l-268 535h319z" />
    <glyph glyph-name="uni0446" unicode="&#x446;" horiz-adv-x="1088" 
d="M88 1082h284v-855h254v855h285v-857h150l-19 -546h-265v321h-689v1082z" />
    <glyph glyph-name="uni0447" unicode="&#x447;" horiz-adv-x="985" 
d="M500 558q70 0 112 12v512h285v-1082h-285v342q-48 -11 -94 -11q-441 0 -441 415v336h283v-336q0 -109 35 -148.5t105 -39.5z" />
    <glyph glyph-name="uni0448" unicode="&#x448;" horiz-adv-x="1465" 
d="M372 1082v-855h210v855h284v-855h212v855h283v-1082h-1273v1082h284z" />
    <glyph glyph-name="uni0449" unicode="&#x449;" horiz-adv-x="1626" 
d="M370 1082v-855h210v855h284v-855h212v855h283v-856h205l-19 -547h-265v321h-1194v1082h284z" />
    <glyph glyph-name="uni044A" unicode="&#x44a;" horiz-adv-x="1171" 
d="M575 537v-312h147q66 0 98.5 43t32.5 112t-32.5 113t-98.5 44h-147zM575 763h147q193 0 303.5 -105.5t110.5 -277.5t-111 -276t-303 -104h-432v854h-253v228h538v-319z" />
    <glyph glyph-name="uni044B" unicode="&#x44b;" horiz-adv-x="1489" 
d="M394 537v-312h147q66 0 98.5 43t32.5 112t-32.5 113t-98.5 44h-147zM1369 0h-285v1082h285v-1082zM394 763h147q193 0 303.5 -105.5t110.5 -277.5t-111 -276t-303 -104h-432v1082h285v-319z" />
    <glyph glyph-name="uni044C" unicode="&#x44c;" horiz-adv-x="994" 
d="M394 537v-312h147q66 0 98.5 43t32.5 112t-32.5 113t-98.5 44h-147zM394 763h147q193 0 303.5 -105.5t110.5 -277.5t-111 -276t-303 -104h-432v1082h285v-319z" />
    <glyph glyph-name="uni044D" unicode="&#x44d;" horiz-adv-x="907" 
d="M316 402q0 -196 124 -196t137 253h-201v169h201q-7 115 -40 180.5t-105 65.5q-116 0 -116 -166h-259l-3 6q-4 168 104 278t274 110q206 0 319 -153.5t113 -394.5v-28q0 -242 -113 -394.5t-303 -152.5t-294 112.5t-100 305.5l2 5h260z" />
    <glyph glyph-name="uni044E" unicode="&#x44e;" horiz-adv-x="1422" 
d="M924 874q-156 0 -156 -267v-134q0 -125 35 -196t121 -71t121 71.5t35 195.5v134q0 267 -156 267zM398 663h89q14 196 128.5 317.5t315.5 121.5t317 -138.5t116 -356.5v-134q0 -220 -116 -357t-320 -137t-318 126t-124 331h-88v-436h-285v1082h285v-419z" />
    <glyph glyph-name="uni044F" unicode="&#x44f;" horiz-adv-x="992" 
d="M343 712q0 -56 33 -99t93 -43h129v286h-131q-59 0 -91.5 -44t-32.5 -100zM882 1082v-1082h-284v375h-104l-176 -375h-285l202 428q-85 44 -130.5 120t-45.5 172q0 159 111 260.5t297 101.5h415z" />
    <glyph glyph-name="uni0450" unicode="&#x450;" horiz-adv-x="938" 
d="M608 685q0 189 -119 189q-127 0 -136 -229h255v40zM513 -21q-204 0 -324 134t-120 338v152q-1 219 111 359t306 140t297 -127q104 -127 104 -346v-174h-535v-4q0 -107 48 -176t138 -69q89 0 139 18t119 60l72 -181q-56 -54 -150 -89t-205 -35zM611 1238h-230l-246 260
l3 6h298z" />
    <glyph glyph-name="uni0451" unicode="&#x451;" horiz-adv-x="938" 
d="M608 685q0 189 -119 189q-127 0 -136 -229h255v40zM513 -21q-204 0 -324 134t-120 338v152q-1 219 111 359t306 140t297 -127q104 -127 104 -346v-174h-535v-4q0 -107 48 -176t138 -69q89 0 139 18t119 60l72 -181q-56 -54 -150 -89t-205 -35zM369 1285h-251v198h251
v-198zM817 1285h-250v198h250v-198z" />
    <glyph glyph-name="uni0452" unicode="&#x452;" horiz-adv-x="997" 
d="M487 874q-72 0 -119 -66v-808h-284v1193h-113v175h113v192h284v-192h184v-175h-184v-240q88 149 232 149q143 0 225 -114.5t82 -353.5v-166h1v-502q0 -193 -90 -298t-250 -105q-68 0 -128 17l11 223q50 -13 87 -13q38 0 61.5 45.5t23.5 130.5l-1 670q0 134 -31.5 186
t-103.5 52z" />
    <glyph glyph-name="uni0453" unicode="&#x453;" horiz-adv-x="741" 
d="M729 854h-357v-854h-284v1082h641v-228zM399 1483h299l3 -6l-249 -260h-229z" />
    <glyph glyph-name="uni0454" unicode="&#x454;" horiz-adv-x="908" 
d="M487 206q117 0 117 167h258l3 -6q3 -170 -104.5 -279t-273.5 -109q-210 0 -322.5 137t-112.5 354v139q0 216 112 354.5t304 138.5t296 -113t101 -305l-2 -5h-259q0 88 -29.5 141.5t-89.5 53.5q-85 0 -117 -71.5t-32 -189.5h218v-169h-218q2 -112 35.5 -175t115.5 -63z
" />
    <glyph glyph-name="uni0455" unicode="&#x455;" horiz-adv-x="888" 
d="M563 282q0 48 -36 80q-36 34 -138 83q-163 61 -245 138t-81 205t105 220q104 94 280 94t283 -96t103 -245l-3 -6h-274q0 148 -114 148q-46 0 -78 -31t-32 -77q0 -45 32 -75t139 -81q170 -57 252 -137t82 -214t-110 -221q-110 -88 -293 -88t-292 109t-104 246l2 6h260
q4 -162 145 -162q57 0 87 28t30 76z" />
    <glyph glyph-name="uni0456" unicode="&#x456;" horiz-adv-x="495" 
d="M389 1343h-284v217h284v-217zM389 0h-284v1082h284v-1082z" />
    <glyph glyph-name="uni0457" unicode="&#x457;" horiz-adv-x="513" 
d="M398 0h-285v1082h285v-1082zM159 1263h-251v198h251v-198zM607 1263h-250v198h250v-198z" />
    <glyph glyph-name="uni0458" unicode="&#x458;" horiz-adv-x="487" 
d="M389 1343h-284v217h284v-217zM19 -208q91 0 91 175v1115h285v-1115q0 -194 -90 -299t-250 -105q-58 0 -128 18l12 223q44 -12 80 -12z" />
    <glyph glyph-name="uni0459" unicode="&#x459;" horiz-adv-x="1507" 
d="M907 512v-287h148q66 0 98.5 41t32.5 104t-32.5 102.5t-98.5 39.5h-148zM42 228q143 0 143 390v464h722v-344h148q192 0 303 -101.5t111 -267.5t-111 -267.5t-303 -101.5h-432v854h-154v-236q0 -316 -96 -467t-312 -151h-39l-4 228h24z" />
    <glyph glyph-name="uni045A" unicode="&#x45a;" horiz-adv-x="1508" 
d="M909 512v-287h147q66 0 98.5 41t32.5 104t-32.5 102.5t-98.5 39.5h-147zM372 660h252v422h285v-344h147q192 0 303 -101.5t111 -267.5t-111 -267.5t-303 -101.5h-432v434h-252v-434h-284v1082h284v-422z" />
    <glyph glyph-name="uni045B" unicode="&#x45b;" horiz-adv-x="997" 
d="M487 874q-72 0 -119 -66v-808h-284v1206h-101v175h101v179h284v-179h196v-175h-196v-253q88 149 232 149q143 0 225 -114.5t82 -353.5v-634h-285v636q0 134 -31.5 186t-103.5 52z" />
    <glyph glyph-name="uni045C" unicode="&#x45c;" horiz-adv-x="1013" 
d="M393 402v-402h-284v1082h284v-409h75l160 409h359l-282 -496l306 -586h-379l-161 402h-78zM530 1482h299l3 -6l-249 -260h-229z" />
    <glyph glyph-name="uni045D" unicode="&#x45d;" horiz-adv-x="998" 
d="M911 1082v-1082h-284v592l-6 1l-248 -593h-285v1082h285v-590l6 -1l248 591h284zM645 1216h-230l-246 260l3 6h298z" />
    <glyph glyph-name="uni045E" unicode="&#x45e;" horiz-adv-x="909" 
d="M160 -207q108 0 139 118l25 80l-319 1091h305l130 -638l2 -11l158 649h304l-365 -1245q-41 -117 -109 -195t-210 -79q-44 0 -134 24l33 212q34 -6 41 -6zM452 1258q-145 0 -231 81t-81 209l2 6h207q-1 -53 25 -87t78 -34t76 34t25 87h209l2 -6q4 -130 -82 -210t-230 -80z
" />
    <glyph glyph-name="uni045F" unicode="&#x45f;" horiz-adv-x="998" 
d="M372 1082v-855h254v855h285v-1082h-270v-358h-284v358h-269v1082h284z" />
    <glyph glyph-name="uni0460" unicode="&#x460;" horiz-adv-x="1678" 
d="M1169.5 206q112.5 0 112.5 255v995h284v-995q0 -231 -120.5 -356.5t-314.5 -125.5t-298 150q-105 -150 -299 -150q-193 0 -313.5 125.5t-120.5 356.5v995h285v-995q1 -255 153 -255t152 255v995h286v-995q0 -129 40.5 -192t153 -63z" />
    <glyph glyph-name="uni0461" unicode="&#x461;" horiz-adv-x="1448" 
d="M599 453v629h284v-629q0 -129 27.5 -187.5t86.5 -52.5h6q106 -12 106 240v629h285v-629q0 -228 -108 -351t-283 -123t-265 133q-95 -133 -269 -133q-175 0 -282 123t-107 351v629h284v-629q0 -251 105 -241h6q124 -10 124 241z" />
    <glyph glyph-name="uni0462" unicode="&#x462;" horiz-adv-x="1105" 
d="M393 693v-466h184q92 0 143.5 67.5t51.5 169.5t-51.5 165.5t-143.5 63.5h-184zM562 1093h-169v-173h184q219 0 349 -124t130 -332t-130.5 -336t-348.5 -128h-467v1093h-129v175h129v188h283v-188h169v-175z" />
    <glyph glyph-name="uni0463" unicode="&#x463;" horiz-adv-x="994" 
d="M393 559v-334h148q66 0 98.5 47t32.5 120t-32.5 120t-98.5 47h-148zM592 1081h-199v-296h148q192 0 303 -108t111 -284t-111 -284.5t-303 -108.5h-432v1081h-121v175h121v305h284v-305h199v-175z" />
    <glyph glyph-name="uni0464" unicode="&#x464;" horiz-adv-x="1562" 
d="M800 511q0 -304 214 -304q103 0 143.5 59.5t35.5 203.5h274l3 -6q2 -240 -114 -362t-342 -122t-361 138.5t-135 392.5v119h-136v-630h-283v1456h283v-598h136v88q0 253 130 392.5t356 139.5t344.5 -124t122.5 -367l-3 -6h-274q6 143 -39 206t-157 63q-198 0 -198 -302
v-90h352v-228h-352v-119z" />
    <glyph glyph-name="uni0465" unicode="&#x465;" horiz-adv-x="1330" 
d="M1018 679q0 195 -130 195q-134 0 -138 -242h241v-175h-241q0 -118 33 -184.5t118 -66.5q117 0 117 167h258l3 -6q3 -170 -104.5 -279t-273.5 -109q-207 0 -319.5 132.5t-115.5 345.5h-86v-457h-285v1082h285v-450h86q6 207 118 338.5t302 131.5t293 -113t100 -305l-2 -5
h-259z" />
    <glyph glyph-name="uni0466" unicode="&#x466;" horiz-adv-x="1182" 
d="M476 586h238l-117 422h-6zM707 388v-388h-234v388h-51l-106 -388h-298l430 1456h296l428 -1456h-297l-107 388h-61z" />
    <glyph glyph-name="uni0467" unicode="&#x467;" horiz-adv-x="1001" 
d="M414 457h159l-55 215l-22 106h-6l-22 -106zM575 276v-276h-174v276h-33l-69 -276h-290l336 1082h298l336 -1082h-289l-71 276h-44z" />
    <glyph glyph-name="uni0468" unicode="&#x468;" horiz-adv-x="1669" 
d="M942 586h238l-117 422h-6zM401 586h256l257 870h296l428 -1456h-297l-107 388h-61v-388h-234v388h-51l-106 -388h-298l114 387h-197v-387h-283v1456h283v-870z" />
    <glyph glyph-name="uni0469" unicode="&#x469;" horiz-adv-x="1425" 
d="M839 457h159l-55 215l-22 106h-6l-22 -106zM381 457h195l194 625h298l336 -1082h-289l-71 276h-44v-276h-174v276h-33l-69 -276h-290l86 277h-139v-277h-285v1082h285v-625z" />
    <glyph glyph-name="uni046A" unicode="&#x46a;" horiz-adv-x="1548" 
d="M788 887h6l145 338h-297zM1454 341v-341h-284v341q0 126 -45 176t-144 50h-52v-567h-283v567h-80q-99 0 -144 -50t-45 -176v-341h-284v341q0 238 116 345t344 111l-321 659h1118l-322 -660q209 -11 317.5 -119t108.5 -336z" />
    <glyph glyph-name="uni046B" unicode="&#x46b;" horiz-adv-x="1295" 
d="M651 673h6l86 225h-178zM1205 187v-187h-284v187q0 115 -31 162.5t-96 36.5v-386h-284v397h-5q-70 0 -101 -46.5t-31 -163.5v-187h-284v187q0 200 85 301t249 119l-235 475h933l-236 -476q320 -45 320 -419z" />
    <glyph glyph-name="uni046C" unicode="&#x46c;" horiz-adv-x="2066" 
d="M1305 887h6l145 338h-297zM610 341q0 134 38 228h-240v-569h-283v1456h283v-657h662l-321 657h1118l-322 -660q209 -11 317.5 -119t108.5 -336v-341h-284v341q0 126 -45 176t-144 50h-52v-567h-283v567h-80q-99 0 -144 -50t-45 -176v-341h-284v341z" />
    <glyph glyph-name="uni046D" unicode="&#x46d;" horiz-adv-x="1792" 
d="M1148 673h6l86 225h-178zM1702 187v-187h-284v187q0 115 -31 162.5t-96 36.5v-386h-284v397h-5q-70 0 -101 -46.5t-31 -163.5v-187h-284v187q0 134 36 219h-224v-406h-285v1082h285v-469h519l-232 469h933l-236 -476q320 -45 320 -419z" />
    <glyph glyph-name="uni046E" unicode="&#x46e;" horiz-adv-x="906" 
d="M748 1913v-17l-248 -253h-192l-248 255v15h256l88 -127l88 127h256zM303 216h56q76 0 119.5 51t43.5 149t-53 154.5t-154 56.5h-123v236h131q79 0 117 50.5t38 136.5q0 171 -167 171h-207v235h207q211 0 331 -94t120 -284q0 -239 -198 -332q117 -43 179.5 -129.5
t62.5 -210.5q0 -202 -116 -313.5t-314 -111.5h-47q-83 0 -83 -95t115 -157l-76 -172q-293 64 -297 368q0 142 84.5 216.5t230.5 74.5z" />
    <glyph glyph-name="uni046F" unicode="&#x46f;" horiz-adv-x="901" 
d="M755 1527v-17l-248 -253h-192l-248 255v15h256l88 -127l88 127h256zM515 315q0 137 -175 137h-140v173h149q122 0 122 136q0 54 -38.5 85.5t-113.5 31.5h-212v204h212q203 0 319 -73t116 -232t-155 -235q199 -70 199 -230t-107.5 -245.5t-290.5 -85.5h-42q-99 0 -99 -95
t98 -157l-76 -156q-119 40 -191 133.5t-72 219.5t75 192t206 66h51q76 0 120.5 36t44.5 95z" />
    <glyph glyph-name="uni0470" unicode="&#x470;" horiz-adv-x="1286" 
d="M957 949v507h285v-507q0 -259 -122 -414t-331 -182v-353h-284v351q-217 22 -341 178t-124 420v507h284v-507q0 -153 46 -243t129 -107l6 1v856h284v-857l6 -1q162 28 162 351z" />
    <glyph glyph-name="uni0471" unicode="&#x471;" horiz-adv-x="1336" 
d="M1281 610q0 -255 -114 -421t-366 -201v-461h-284v464q-223 35 -343 181t-120 416v494h285v-496q0 -149 46 -234t126 -109l6 1v837h284v-840l6 -1q189 58 189 358q-4 211 -84 484h258q111 -217 111 -472z" />
    <glyph glyph-name="uni0472" unicode="&#x472;" horiz-adv-x="1215" 
d="M587 1248q-224 0 -224 -315v-113h451v113q0 156 -58 235.5t-169 79.5zM363 523q-1 -316 225 -316t226 316v122h-451v-122zM1097 523q0 -256 -139 -400t-370 -144t-369 144t-138 400v408q0 255 138 400.5t368 145.5t370 -145.5t140 -400.5v-408z" />
    <glyph glyph-name="uni0473" unicode="&#x473;" horiz-adv-x="994" 
d="M494 206q81 0 116.5 64.5t39.5 178.5h-311q3 -115 38.5 -179t116.5 -64zM651 625q-7 249 -157 249q-151 0 -155 -249h312zM56 607q0 218 115.5 356.5t323.5 138.5t324 -138.5t116 -356.5v-134q0 -220 -116 -357t-324 -137t-323.5 137t-115.5 357v134z" />
    <glyph glyph-name="uni0474" unicode="&#x474;" horiz-adv-x="1140" 
d="M1078 1238q-73 0 -86 -124l-271 -1114h-295l-412 1456h300l245 -1080l11 -55h6l170 810q46 173 122 258.5t204 85.5l36 -1l-3 -236h-27z" />
    <glyph glyph-name="uni0475" unicode="&#x475;" horiz-adv-x="908" 
d="M844 866q-32 0 -55.5 -31t-29.5 -82l-181 -753h-278l-285 1082h297l122 -736h6l67 421q42 166 118 250.5t196 84.5q50 0 86 -18l-21 -223q-10 5 -42 5z" />
    <glyph glyph-name="uni0476" unicode="&#x476;" horiz-adv-x="1140" 
d="M1078 1238q-73 0 -86 -124l-271 -1114h-295l-412 1456h300l245 -1080l11 -55h6l170 810q46 173 122 259t204 85l36 -1l-3 -236h-27zM817 1588h-227l-206 266h267zM505 1588h-229l-238 261l2 5h263z" />
    <glyph glyph-name="uni0477" unicode="&#x477;" horiz-adv-x="908" 
d="M844 866q-32 0 -55 -31q-24 -31 -30 -82l-181 -753h-278l-285 1082h297l122 -736h6l67 421q42 167 118 251t196 84q50 0 86 -18l-21 -223q-10 5 -42 5zM734 1258h-227l-206 266h267zM422 1258h-229l-238 261l2 5h263z" />
    <glyph glyph-name="uni0478" unicode="&#x478;" horiz-adv-x="2075" 
d="M357 523q-1 -316 225 -316t226 316v410q0 155 -58 235t-169 80q-224 0 -224 -315v-410zM1091 523q0 -256 -139 -400t-370 -144t-369 144t-138 400v408q0 255 138 401t368 145q230 1 370 -145t140 -401v-408zM1326 -207q108 0 139 118l25 80l-319 1091h305l130 -638l2 -11
l158 649h304l-365 -1245q-41 -117 -109 -195t-210 -79q-44 0 -134 24l33 212q34 -6 41 -6z" />
    <glyph glyph-name="uni0479" unicode="&#x479;" horiz-adv-x="1904" 
d="M497 874q-156 0 -156 -267v-134q0 -125 35 -196q34 -71 120 -71t122 72t35 195v134q0 267 -156 267zM58 607q0 219 116 357t323 138q208 0 324 -138t116 -357v-134q0 -220 -116 -357t-324 -137q-207 0 -323 137t-116 357v134zM1155 -207q108 0 139 118l25 80l-319 1091
h305l130 -638l2 -11l158 649h304l-365 -1245q-42 -117 -110 -195t-209 -79q-44 0 -134 24l33 212q34 -6 41 -6z" />
    <glyph glyph-name="uni047A" unicode="&#x47a;" horiz-adv-x="1215" 
d="M814 523v410q0 223 -117 288v-102h-179v120q-155 -45 -155 -306v-410q0 -262 157 -308v116h179v-97q115 66 115 289zM1097 523q0 -256 -139 -400q-104 -108 -259 -134v-124h-179v117q-184 19 -301 141q-138 144 -138 400v408q0 255 138 400q116 123 299 142v103h179v-108
q155 -28 260 -137q140 -145 140 -400v-408z" />
    <glyph glyph-name="uni047B" unicode="&#x47b;" horiz-adv-x="997" 
d="M341 607v-134q0 -179 66 -238v100h178v-100q68 57 68 238v134q0 166 -62 232v-81h-179v89q-71 -58 -71 -240zM585 -126h-178v113q-145 23 -234 129q-115 137 -115 357v134q0 218 115 356q91 109 239 132v109h179v-110q141 -25 230 -131q116 -138 116 -356v-134
q0 -220 -116 -357q-91 -107 -236 -130v-112z" />
    <glyph glyph-name="uni047C" unicode="&#x47c;" horiz-adv-x="1678" 
d="M921 1596v-131l-135 -175l-74 50l49 108l-1 148h161zM1207 1703v-127h-17q-108 0 -246 62.5t-172 62.5t-55 -28t-21 -80v-18h-121v36q0 108 51.5 163t127.5 55t209.5 -63t227.5 -63h16zM959 461q0 -255 154 -255q71 0 111.5 65t40.5 197v498q0 131 -40.5 196.5
t-111.5 65.5v219l6 2q190 4 310 -123t120 -360v-498q0 -234 -121 -361.5t-311 -127.5t-293 139q-105 -139 -294 -139t-309.5 127.5t-120.5 361.5v498q0 233 120 360t310 123l6 -2v-219q-72 0 -111.5 -65.5t-39.5 -196.5v-498q0 -132 39.5 -197t111.5 -65q154 0 154 255v364
h269v-364z" />
    <glyph glyph-name="uni047D" unicode="&#x47d;" horiz-adv-x="1429" 
d="M666 977l-77 58l65 99l-1 112l178 -10l-3 -107zM1100 1364v-128h-16q-109 0 -246.5 62.5t-171.5 62.5t-55.5 -27.5t-21.5 -80.5v-18h-120v36q0 108 50.5 163t126.5 55t210.5 -62.5t227.5 -62.5h16zM846 453q0 -253 99 -240h6q44 -6 70 52.5t26 179.5v188q0 120 -35 179.5
t-97 59.5v219l6 2q180 4 295 -117t115 -343v-188q0 -223 -106.5 -344.5t-267.5 -121.5t-246 135q-87 -135 -247 -135q-161 0 -266.5 121.5t-105.5 344.5v188q0 222 114 343t296 117l6 -2v-219q-131 0 -131 -239v-188q0 -121 25 -179.5t70 -52.5h6q46 -6 72.5 54t26.5 186
v160h269v-160z" />
    <glyph glyph-name="uni047E" unicode="&#x47e;" horiz-adv-x="1679" 
d="M1169.5 206q112.5 0 112.5 255v995h284v-995q0 -231 -120.5 -356.5t-314.5 -125.5t-298 150q-105 -150 -299 -150q-193 0 -313.5 125.5t-120.5 356.5v995h285v-995q1 -255 153 -255t152 255v995h286v-995q0 -129 40.5 -192t153 -63zM450 1688v108h777l1 -108h-313v-125
h-167v125h-298z" />
    <glyph glyph-name="uni047F" unicode="&#x47f;" horiz-adv-x="1449" 
d="M599 453v629h284v-629q0 -129 27.5 -187.5t86.5 -52.5h6q106 -12 106 240v629h285v-629q0 -228 -108 -351t-283 -123t-265 133q-95 -133 -269 -133q-175 0 -282 123t-107 351v629h284v-629q0 -251 105 -241h6q124 -10 124 241zM384 1349v108h710l5 -108h-285v-127h-166
v127h-264z" />
    <glyph glyph-name="uni0480" unicode="&#x480;" horiz-adv-x="1089" 
d="M740 -360h-284v350q-176 37 -277.5 196.5t-101.5 395.5v291q0 268 130.5 436t351.5 168t339.5 -128t115.5 -370l-2 -5h-277q0 145 -40.5 210t-138.5 65t-147 -102t-49 -272v-293q0 -171 49.5 -273.5t146.5 -102.5h184v-566z" />
    <glyph glyph-name="uni0481" unicode="&#x481;" horiz-adv-x="946" 
d="M693 -362h-284v352q-162 35 -248 180t-86 356v28q0 241 111.5 394.5t319.5 153.5q174 0 277.5 -113t100.5 -305l-2 -5h-259q0 88 -29 141.5t-88 53.5q-83 0 -115 -87t-32 -233v-28q0 -149 31.5 -234.5t116.5 -85.5h186v-568z" />
    <glyph glyph-name="uni0482" unicode="&#x482;" horiz-adv-x="1098" 
d="M521 446l244 -172l-64 -123l-246 170l-153 -321h-155l190 398l-244 171l63 123l248 -171l168 365l-246 171l65 125l246 -171l154 331h152l-189 -408l247 -171l-67 -122l-244 170z" />
    <glyph glyph-name="uni0483" unicode="&#x483;" horiz-adv-x="16" 
d="M-604 1315v-125l-163 1l1 233h470l-1 108l161 -1v-216h-468z" />
    <glyph glyph-name="uni0484" unicode="&#x484;" horiz-adv-x="16" 
d="M-740 1431q96 0 235 63t217 63t131 -55t53 -163v-36h-124v18q0 52 -23 80t-57 28t-176.5 -62.5t-253.5 -62.5h-18v127h16z" />
    <glyph glyph-name="uni0485" unicode="&#x485;" horiz-adv-x="16" 
d="M-503 1646h169l-1 -163l49 -108l-73 -65l-144 190v146z" />
    <glyph glyph-name="uni0486" unicode="&#x486;" horiz-adv-x="16" 
d="M-282 1646v-146l-143 -190l-74 65l49 108l-1 163h169z" />
    <glyph glyph-name="uni0488" unicode="&#x488;" horiz-adv-x="0" 
d="M-927 -32q0 101 -84 101q-41 0 -61 -29t-20 -72h-89l-3 6q-3 78 44.5 130t129.5 52t129.5 -51.5t43.5 -130.5l-3 -6h-87zM-1150 675q82 0 129 -51.5t43 -130.5l-3 -6h-86q0 43 -20.5 72t-62.5 29t-62.5 -29t-20.5 -72h-88l-3 6q-3 78 44.5 130t129.5 52zM-918 990
q0 101 -84 101q-42 0 -62 -29t-20 -72h-88l-3 6q-3 79 44 130.5t129 51.5t130 -52t44 -130l-3 -6h-87zM-430 -316q0 101 -84 101q-41 0 -61 -28.5t-20 -72.5h-88l-3 6q-3 80 44 131t129 51t129.5 -51t43.5 -131l-3 -6h-87zM-26 156q80 0 127 -51.5t44 -130.5l-3 -6h-85
q0 43 -20.5 72t-62.5 29t-62 -29t-20 -72h-88l-3 6q-3 78 45 130t128 52zM222 487q0 101 -84 101q-41 0 -60.5 -29t-19.5 -72h-87l-3 6q-3 79 43.5 130.5t127.5 51.5t128.5 -51.5t44.5 -130.5l-3 -6h-87zM65 990q0 101 -82 101q-42 0 -62 -29t-20 -72h-88l-3 6
q-3 79 44.5 130.5t127.5 51.5t128 -52t45 -130l-3 -6h-87zM-518 1455q82 0 130 -52t44 -130l-3 -6h-87q0 43 -20 72t-62 29t-63 -29t-21 -72h-87l-3 6q-3 79 43.5 130.5t128.5 51.5z" />
    <glyph glyph-name="uni0489" unicode="&#x489;" horiz-adv-x="0" 
d="M-106 161l14 -2l125 -325l-54 -71l-167 299zM-920 860l-14 2l-125 326l54 69l168 -299zM-801 21l-2 -17l-271 -153l-58 69l249 200zM-223 1002l2 16l270 153l57 -68q-31 -23 -247 -200zM-1005 433l-10 -12l-282 124v98l292 -71v-139zM-20 631l11 12l280 -124v-98l-291 71
v139zM-593 1126l-10 14l103 338h81l-59 -352h-115zM-428 -60l9 -14l-103 -339h-81l59 353h116z" />
    <glyph glyph-name="uni048A" unicode="&#x48a;" horiz-adv-x="1226" 
d="M1118 1456v-1252h239v-239l-145 -311h-166l59 319v27h-271v904l-6 1l-445 -905h-284v1456h284v-904l6 -1l445 905h284zM609 1601q-145 0 -231 81t-81 209l2 6h207q0 -53 26 -87t77 -34q53 0 77 34t24 87h209l2 -6q5 -129 -81 -209t-231 -81z" />
    <glyph glyph-name="uni048B" unicode="&#x48b;" horiz-adv-x="998" 
d="M911 1082v-878h239v-239l-145 -311h-166l59 319v27h-271v592l-6 1l-248 -593h-285v1082h285v-590l6 -1l248 591h284zM500 1258q-145 0 -231 81t-81 209l2 6h207q-1 -53 25 -87t78 -34t76 34t25 87h209l2 -6q4 -130 -82 -210t-230 -80z" />
    <glyph glyph-name="uni048C" unicode="&#x48c;" horiz-adv-x="1105" 
d="M393 693v-466h184q92 0 143.5 67.5t51.5 169.5t-51.5 165.5t-143.5 63.5h-184zM562 1093h-169v-173h184q219 0 349 -124t130 -332t-130.5 -336t-348.5 -128h-467v1093h-129v175h129v188h283v-188h169v-175z" />
    <glyph glyph-name="uni048D" unicode="&#x48d;" horiz-adv-x="994" 
d="M393 559v-334h148q66 0 98.5 47t32.5 120t-32.5 120t-98.5 47h-148zM592 1280h-199v-495h148q192 0 303 -108t111 -284t-111 -284.5t-303 -108.5h-432v1280h-121v176h121v156h284v-156h199v-176z" />
    <glyph glyph-name="uni048E" unicode="&#x48e;" horiz-adv-x="1104" 
d="M396 750h221q40 0 72 13l-118 147l90 86l116 -144q27 57 27 148t-47.5 159.5t-139.5 68.5h-221v-478zM396 522v-522h-285v1456h506q218 0 344 -129t126 -339t-127 -338q-6 -6 -12 -11l106 -131l-90 -85l-118 146q-98 -47 -229 -47h-221z" />
    <glyph glyph-name="uni048F" unicode="&#x48f;" horiz-adv-x="992" 
d="M656 591q0 283 -155 283q-83 0 -125 -86v-510q40 -72 132 -72q50 0 82 26l-107 144l91 83l74 -100q8 44 8 99v133zM581 1102q171 0 265 -140.5t94 -370.5v-133q0 -216 -99 -355l80 -106l-92 -83l-80 106q-71 -41 -166 -41q-130 0 -207 105v-500h-284v1498h263l10 -107
q81 127 216 127z" />
    <glyph glyph-name="uni0490" unicode="&#x490;" horiz-adv-x="983" 
d="M943 1229h-14v-1h-535v-1228h-285v1456h551v377h283v-604z" />
    <glyph glyph-name="uni0491" unicode="&#x491;" horiz-adv-x="828" 
d="M773 855h-45v-1h-357v-854h-284v1082h402v320h284v-547z" />
    <glyph glyph-name="uni0492" unicode="&#x492;" horiz-adv-x="983" 
d="M567 666h-171v-666h-285v666h-125v175h125v615h820v-228h-535v-387h171v-175z" />
    <glyph glyph-name="uni0493" unicode="&#x493;" horiz-adv-x="741" 
d="M540 457h-168v-457h-284v457h-129v175h129v450h641v-228h-357v-222h168v-175z" />
    <glyph glyph-name="uni0494" unicode="&#x494;" horiz-adv-x="975" 
d="M766 234q0 373 -231 373h-139v-607h-285v1456h820v-228h-535v-392h139q238 0 376.5 -148t138.5 -439q0 -241 -114.5 -413.5t-360.5 -168.5l-6 2l-1 205q124 0 161 103.5t37 256.5z" />
    <glyph glyph-name="uni0495" unicode="&#x495;" horiz-adv-x="950" 
d="M600 178q0 128 -53.5 192t-153.5 64h-22v-434h-284v1082h641v-228h-357v-191h22q225 0 358 -123t133 -362q3 -131 -79.5 -264.5t-232.5 -197.5l-125 186q153 103 153 276z" />
    <glyph glyph-name="uni0496" unicode="&#x496;" horiz-adv-x="1788" 
d="M1048 604v-604h-284v604h-144l-245 -604h-354l377 798l-360 658h353l250 -594h123v594h284v-594h119l242 594h352l-352 -655l276 -599h207v-558h-284v356h-183l-238 604h-139z" />
    <glyph glyph-name="uni0497" unicode="&#x497;" horiz-adv-x="1544" 
d="M918 404v-404h-284v404h-96l-144 -404h-364l273 590l-266 492h360l157 -407h80v407h284v-407h83l156 407h361l-281 -493l189 -387h170v-558h-284v356h-152l-144 404h-98z" />
    <glyph glyph-name="uni0498" unicode="&#x498;" horiz-adv-x="1092" 
d="M543 853q161 0 161 205q0 83 -46 137t-124 54q-79 0 -125 -51t-46 -135h-276l-2 6q-5 182 125 295t330 113t324 -108t124 -307q0 -101 -52 -184t-141 -131q102 -42 157 -129t55 -212q0 -200 -133 -314q-81 -69 -192 -96v-476h-284v473q-110 25 -198 93q-138 107 -132 312
l2 6h276q0 -86 50 -142t136 -56t138 57t52 147q0 222 -179 222h-152v221h152z" />
    <glyph glyph-name="uni0499" unicode="&#x499;" horiz-adv-x="910" 
d="M575 327q0 136 -113 136h-129v180h129q96 0 96 123t-94 123q-50 0 -78 -31t-29 -86h-275l-3 6q-5 146 101 234t278 88t278 -82t105 -231q0 -73 -38 -134t-105 -96q160 -66 160 -253q0 -151 -114 -237q-60 -45 -139 -67v-479h-284v475q-81 21 -147 70q-114 85 -109 246
l3 6h275q0 -56 30 -92q29 -36 89 -35q112 0 113 136z" />
    <glyph glyph-name="uni049A" unicode="&#x49a;" horiz-adv-x="1137" 
d="M395 605v-605h-285v1456h285v-592h92l284 592h349l-397 -665l320 -589h148v-558h-284v356h-100l-288 605h-124z" />
    <glyph glyph-name="uni049B" unicode="&#x49b;" horiz-adv-x="1013" 
d="M393 402v-402h-284v1082h284v-409h75l160 409h359l-282 -496l201 -384h184v-558h-284v356h-174l-161 402h-78z" />
    <glyph glyph-name="uni049C" unicode="&#x49c;" horiz-adv-x="1179" 
d="M604 602v-235h-153v235h-58v-602h-284v1456h284v-596h58v261h153v-261h22l194 596h353l-319 -648l349 -808h-364l-202 602h-33z" />
    <glyph glyph-name="uni049D" unicode="&#x49d;" horiz-adv-x="1090" 
d="M585 402v-175h-137v175h-55v-402h-284v1082h284v-409h55v194h137v-194h34l99 409h359l-239 -497l246 -585h-363l-107 402h-29z" />
    <glyph glyph-name="uni049E" unicode="&#x49e;" horiz-adv-x="1157" 
d="M415 605v-605h-285v1143h-186v175h186v138h285v-138h110v-175h-110v-279h92l284 592h349l-397 -665l430 -791h-346l-288 605h-124z" />
    <glyph glyph-name="uni049F" unicode="&#x49f;" horiz-adv-x="983" 
d="M396 450v-450h-284v1212h-156v175h156v173h284v-173h141v-175h-141v-538h47l183 408h327l-282 -487l329 -595h-325l-227 450h-52z" />
    <glyph glyph-name="uni04A0" unicode="&#x4a0;" horiz-adv-x="1455" 
d="M718 605v-605h-285v1228h-404v228h689v-592h92l284 592h349l-397 -665l430 -791h-346l-288 605h-124z" />
    <glyph glyph-name="uni04A1" unicode="&#x4a1;" horiz-adv-x="1280" 
d="M673 402v-402h-284v854h-331v228h615v-409h75l160 409h359l-282 -496l306 -586h-379l-161 402h-78z" />
    <glyph glyph-name="uni04A2" unicode="&#x4a2;" horiz-adv-x="1241" 
d="M1304 -356h-284v356h-173v603h-452v-603h-285v1456h285v-626h452v626h284v-1254h173v-558z" />
    <glyph glyph-name="uni04A3" unicode="&#x4a3;" horiz-adv-x="998" 
d="M1082 -356h-284v356h-174v420h-252v-420h-284v1082h284v-436h252v436h285v-880h173v-558z" />
    <glyph glyph-name="uni04A4" unicode="&#x4a4;" horiz-adv-x="1718" 
d="M395 830h452v626h796v-227h-511l-1 1v-1230h-284v603h-452v-603h-285v1456h285v-626z" />
    <glyph glyph-name="uni04A5" unicode="&#x4a5;" horiz-adv-x="1232" 
d="M370 646h252v436h555v-227h-270v-855h-285v420h-252v-420h-284v1082h284v-436z" />
    <glyph glyph-name="uni04A6" unicode="&#x4a6;" horiz-adv-x="1840" 
d="M1493 232q0 373 -231 373h-128v-605h-284v1228h-453v-1228h-285v1456h1022v-622h128q238 0 376.5 -148t138.5 -439q0 -241 -114.5 -413.5t-360.5 -168.5l-6 2l-1 205q124 0 161 103.5t37 256.5z" />
    <glyph glyph-name="uni04A7" unicode="&#x4a7;" horiz-adv-x="1521" 
d="M967 442h-58v-442h-285v854h-254v-854h-284v1082h823v-411h58q233 0 371.5 -123t138.5 -363q3 -131 -79 -264.5t-233 -196.5l-125 185q152 104 154 276q-1 128 -59.5 192.5t-167.5 64.5z" />
    <glyph glyph-name="uni04A8" unicode="&#x4a8;" horiz-adv-x="1429" 
d="M1045 915q0 330 -113 316h-6q-97 12 -97 -301v-205q0 -229 120 -353h6q90 126 90 334v209zM1338 -15q-195 0 -351 68q-132 -74 -299 -74q-267 0 -435.5 195t-168.5 488v213q0 258 124.5 428.5t321.5 165.5l6 -2l-1 -227q-70 0 -110 -102.5t-40 -260.5v-215
q0 -198 81 -322.5t222 -124.5q32 0 60 5q-187 199 -187 507v202q0 234 102.5 390t273.5 156t282 -165.5t111 -427.5v-176q0 -283 -149 -484q66 -19 157 -19v-218z" />
    <glyph glyph-name="uni04A9" unicode="&#x4a9;" horiz-adv-x="1162" 
d="M812 505v151q0 90 -17.5 149t-44.5 53h-6q-26 6 -43.5 -48t-17.5 -136v-161q0 -132 60 -208h6q63 67 63 200zM1107 130v-157q-169 0 -305 51q-106 -45 -227 -45q-224 0 -364 155t-140 391v102q0 205 106 339t273 129l6 -2v-226q-84 -16 -84 -238v-104q0 -132 50.5 -216.5
t130.5 -76.5l6 3q-77 101 -77 292v157q0 179 83 298t219 119t223.5 -132t87.5 -331v-149q0 -201 -124 -344q56 -15 136 -15z" />
    <glyph glyph-name="uni04AA" unicode="&#x4aa;" horiz-adv-x="1088" 
d="M356 510q0 -304 214 -304q104 0 144 60t35 203h274l3 -6q3 -416 -340 -475v-460h-284v474q-113 34 -193 116q-135 138 -135 392v435q0 253 130 393t356 139q226 0 344 -124t123 -367l-3 -6h-274q6 143 -39 206t-157 63q-198 0 -198 -302v-437z" />
    <glyph glyph-name="uni04AB" unicode="&#x4ab;" horiz-adv-x="910" 
d="M487 206q117 0 117 167h258l3 -6q3 -170 -105 -279q-62 -62 -142 -89v-471h-284v473q-102 33 -170 115q-112 137 -112 354v139q0 217 112 355t304 138t296 -113t101 -305l-2 -5h-259q0 87 -30 141t-89 54q-85 0 -117 -72t-32 -193v-139q0 -124 32 -194t119 -70z" />
    <glyph glyph-name="uni04AC" unicode="&#x4ac;" horiz-adv-x="994" 
d="M967 1228h-328v-1026h173v-558h-284v356h-173v1228h-326v228h938v-228z" />
    <glyph glyph-name="uni04AD" unicode="&#x4ad;" horiz-adv-x="914" 
d="M880 856h-283v-654h172v-558h-284v356h-174v856h-280v226h849v-226z" />
    <glyph glyph-name="uni04AE" unicode="&#x4ae;" horiz-adv-x="1124" 
d="M700 0h-284v536l-409 920h311l240 -624h6l243 624h309l-416 -938v-518z" />
    <glyph glyph-name="uni04AF" unicode="&#x4af;" horiz-adv-x="909" 
d="M595 -416h-284v434l-296 1064h297l127 -674l13 -82h6l139 756h297l-299 -1079v-419z" />
    <glyph glyph-name="uni04B0" unicode="&#x4b0;" horiz-adv-x="1124" 
d="M864 694v-175h-164v-519h-284v519h-133v175h62l-338 762h311l241 -624h6l242 624h309l-338 -762h86z" />
    <glyph glyph-name="uni04B1" unicode="&#x4b1;" horiz-adv-x="909" 
d="M752 13h-155l-2 -10v-419h-284v429h-140v175h93l-249 894h297l127 -674l13 -82h6l139 756h297l-248 -894h106v-175z" />
    <glyph glyph-name="uni04B2" unicode="&#x4b2;" horiz-adv-x="1127" 
d="M1141 202v-558h-284v356h-85l-204 520h-6l-204 -520h-331l362 734l-353 722h327l195 -509h6l198 509h329l-353 -722l273 -532h130z" />
    <glyph glyph-name="uni04B3" unicode="&#x4b3;" horiz-adv-x="909" 
d="M916 202v-558h-284v356h-52l-119 351h-6l-119 -351h-320l275 547l-268 535h319l109 -341h6l114 341h320l-268 -535l174 -345h119z" />
    <glyph glyph-name="uni04B4" unicode="&#x4b4;" horiz-adv-x="1576" 
d="M308 1228h-272v228h815v-228h-259v-1001h452v1229h285v-1230h177l-19 -577h-264v351h-915v1228z" />
    <glyph glyph-name="uni04B5" unicode="&#x4b5;" horiz-adv-x="1221" 
d="M217 854h-166v228h598v-228h-148v-627h254v855h285v-857h150l-19 -546h-265v321h-689v854z" />
    <glyph glyph-name="uni04B6" unicode="&#x4b6;" horiz-adv-x="1232" 
d="M614 761q113 0 222 28v667h285v-1254h173v-558h-284v356h-174v562q-114 -28 -224 -28q-233 0 -363 118t-130 362v442h283v-442q0 -142 50 -198t162 -55z" />
    <glyph glyph-name="uni04B7" unicode="&#x4b7;" horiz-adv-x="985" 
d="M500 558q70 0 112 12v512h285v-880h173v-558h-284v356h-174v342q-48 -11 -94 -11q-441 0 -441 415v336h283v-336q0 -108 35 -148t105 -40z" />
    <glyph glyph-name="uni04B8" unicode="&#x4b8;" horiz-adv-x="1202" 
d="M1090 1456v-1456h-285v562q-36 -9 -77 -15v-252h-153v239q-229 0 -358 118t-129 362v442h283v-442q1 -142 49 -197t155 -56v296h153v-284q42 7 77 16v667h285z" />
    <glyph glyph-name="uni04B9" unicode="&#x4b9;" horiz-adv-x="993" 
d="M85 746v336h283v-336q0 -120 48 -161v245h153v-270h3q24 3 48 10v512h285v-1082h-285v342q-26 -6 -50 -9h-1v-155h-153v160q-331 51 -331 408z" />
    <glyph glyph-name="uni04BA" unicode="&#x4ba;" horiz-adv-x="1244" 
d="M617 695q-109 0 -225 -28v-667h-285v1456h285v-563q123 29 224 29q232 0 362.5 -118.5t130.5 -361.5v-442h-283v442q0 141 -50 197t-159 56z" />
    <glyph glyph-name="uni04BB" unicode="&#x4bb;" 
d="M600 1102q143 0 225 -114t82 -354v-634h-285v636q0 134 -32 186t-103 52q-72 0 -119 -66v-808h-284v1560h284v-607q89 149 232 149z" />
    <glyph glyph-name="uni04BC" unicode="&#x4bc;" horiz-adv-x="1329" 
d="M963 898q0 331 -200 331q-111 0 -170.5 -103t-59.5 -260h430v32zM833 222q164 0 295 70l44 -230q-31 -28 -126.5 -56.5t-221.5 -28.5q-279 0 -427 171t-148 455v59q-132 26 -202.5 135t-70.5 284h185q0 -163 88 -209q2 263 149.5 433t373.5 170t351 -181.5t125 -498.5
v-156h-715v-36q0 -174 68 -277.5t232 -103.5z" />
    <glyph glyph-name="uni04BD" unicode="&#x4bd;" horiz-adv-x="1056" 
d="M737 685q0 189 -119 189q-127 0 -136 -229h255v40zM642 -21q-204 0 -324 134t-120 338v21q-125 28 -192.5 130t-67.5 262h170q0 -151 92 -199q16 195 126 316t296 121t290 -127t104 -346v-174h-535v-4q0 -107 48.5 -176t137.5 -69t139 18t119 60l72 -181
q-56 -54 -149.5 -89t-205.5 -35z" />
    <glyph glyph-name="uni04BE" unicode="&#x4be;" horiz-adv-x="1329" 
d="M963 898q0 331 -200 331q-111 0 -171 -103t-59 -260h430v32zM833 222q164 0 295 70l44 -230q-31 -28 -102 -49t-124 -28v-458h-284v467q-163 37 -265 154q-148 171 -148 455v59q-133 26 -203 135t-70 284h185q0 -163 88 -209q2 263 149 433q148 170 374 170
q226 1 351 -181t125 -499v-156h-715v-36q0 -173 68 -277t232 -104z" />
    <glyph glyph-name="uni04BF" unicode="&#x4bf;" horiz-adv-x="1056" 
d="M737 685q0 189 -119 189q-127 0 -136 -229h255v40zM762 -461h-284v466q-93 33 -160 108q-120 134 -120 338v21q-124 28 -192 130t-68 262h170q0 -151 92 -199q16 195 126 316t296 121t290 -127t104 -346v-174h-535v-4q1 -107 49 -176t137 -69t139 18t119 60l72 -181
q-88 -84 -235 -113v-451z" />
    <glyph glyph-name="uni04C0" unicode="&#x4c0;" horiz-adv-x="534" 
d="M408 0h-283v1456h283v-1456z" />
    <glyph glyph-name="uni04C1" unicode="&#x4c1;" horiz-adv-x="1788" 
d="M1048 604v-604h-284v604h-144l-245 -604h-354l377 798l-360 658h353l250 -594h123v594h284v-594h119l242 594h352l-352 -655l369 -801h-353l-238 604h-139zM904 1601q-145 0 -231 81t-81 209l2 6h207q-1 -53 25 -87t78 -34t76 34t25 87h209l2 -6q4 -129 -82 -209
t-230 -81z" />
    <glyph glyph-name="uni04C2" unicode="&#x4c2;" horiz-adv-x="1544" 
d="M918 404v-404h-284v404h-96l-144 -404h-364l273 590l-266 492h360l157 -407h80v407h284v-407h83l156 407h361l-281 -493l287 -589h-364l-144 404h-98zM785 1258q-145 0 -231 81t-81 209l2 6h207q0 -53 26 -87t77 -34q53 0 77 34t24 87h209l2 -6q5 -130 -81 -210t-231 -80
z" />
    <glyph glyph-name="uni04C3" unicode="&#x4c3;" horiz-adv-x="1154" 
d="M835 228q0 373 -231 373h-211v-601h-284v1456h284v-593h71l272 593h353l-371 -636q188 -33 294.5 -178.5t106.5 -393.5t-114.5 -420t-361.5 -168l-6 2v206q124 0 161 103.5t37 256.5z" />
    <glyph glyph-name="uni04C4" unicode="&#x4c4;" horiz-adv-x="1026" 
d="M393 402v-402h-284v1082h284v-409h66l168 409h360l-285 -489q130 -49 203 -160t74 -261t-81 -281.5t-233 -195.5l-125 186q152 101 154 271q0 235 -201 250h-100z" />
    <glyph glyph-name="uni04C5" unicode="&#x4c5;" horiz-adv-x="1241" 
d="M1117 0h-270v1228h-305l3 -426q1 -430 -107 -616t-327 -186h-68v227h34q114 11 150 127t34 448l-4 654h873v-1252h239v-239l-145 -311h-166l59 319v27z" />
    <glyph glyph-name="uni04C6" unicode="&#x4c6;" horiz-adv-x="1000" 
d="M899 0h-271v854h-177v-236q-1 -320 -89 -469t-302 -149h-39l-4 230h25q84 0 104 76t20 312v464h746v-878h239v-239l-145 -311h-166l59 319v27z" />
    <glyph glyph-name="uni04C7" unicode="&#x4c7;" horiz-adv-x="1243" 
d="M758 -209q42 0 66 45.5t24 130.5v636h-453v-603h-284v1456h284v-626h453v626h283v-1489q0 -193 -90.5 -298.5t-249.5 -105.5q-61 0 -131 18l12 222q44 -12 86 -12z" />
    <glyph glyph-name="uni04C8" unicode="&#x4c8;" 
d="M533 -209q42 0 65.5 45.5t23.5 130.5v453h-251v-420h-284v1082h284v-436h251v436h285v-1115q0 -193 -90.5 -298.5t-249.5 -105.5q-61 0 -131 18l13 222q42 -12 84 -12z" />
    <glyph glyph-name="uni04C9" unicode="&#x4c9;" horiz-adv-x="1241" 
d="M1118 0h-271v603h-452v-603h-285v1456h285v-626h452v626h284v-1252h239v-239l-145 -311h-166l59 319v27z" />
    <glyph glyph-name="uni04CA" unicode="&#x4ca;" horiz-adv-x="998" 
d="M896 0h-272v420h-252v-420h-284v1082h284v-436h252v436h285v-878h239v-239l-145 -311h-166l59 319v27z" />
    <glyph glyph-name="uni04CB" unicode="&#x4cb;" horiz-adv-x="1232" 
d="M614 761q113 0 222 28v667h285v-1456h-182v-356h-284v558h181v360q-114 -28 -224 -28q-233 0 -363 118t-130 362v442h283v-442q0 -142 50 -198t162 -55z" />
    <glyph glyph-name="uni04CC" unicode="&#x4cc;" horiz-adv-x="985" 
d="M500 558q70 0 112 12v512h285v-1082h-182v-356h-284v558h181v140q-48 -11 -94 -11q-441 0 -441 415v336h283v-336q0 -108 35 -148t105 -40z" />
    <glyph glyph-name="uni04CD" unicode="&#x4cd;" horiz-adv-x="1481" 
d="M1376 1456v-1252h238v-239l-145 -311h-166l59 319v27h-269v423l24 566l-6 1l-278 -990h-189l-275 982l-6 -1l25 -558v-423h-283v1456h369l261 -1069h6l264 1069h371z" />
    <glyph glyph-name="uni04CE" unicode="&#x4ce;" horiz-adv-x="1345" 
d="M1225 1082v-878h238v-239l-145 -311h-166l59 319v27h-271v566l-6 1l-176 -567h-190l-169 544l-6 -1v-543h-284v1082h350l200 -741h6l203 741h357z" />
    <glyph glyph-name="uni04CF" unicode="&#x4cf;" horiz-adv-x="534" 
d="M408 0h-283v1456h283v-1456z" />
    <glyph glyph-name="uni04D0" unicode="&#x4d0;" horiz-adv-x="1134" 
d="M439 538h268l-131 515h-6zM765 309h-384l-78 -309h-287l410 1456h296l409 -1456h-287zM574 1601q-145 0 -231 81t-81 209l2 6h207q-1 -53 25 -87t78 -34t76 34t25 87h209l2 -6q4 -129 -82 -209t-230 -81z" />
    <glyph glyph-name="uni04D1" unicode="&#x4d1;" horiz-adv-x="944" 
d="M434 193q44 0 80 23t57 59v199h-107q-65 0 -94 -45t-29 -107t25 -95q25 -34 68 -34zM57 308q1 153 103 241t304 88h107v88q0 164 -114 164q-96 0 -96 -133l-275 1l-3 6q-5 141 105 240t283 99t279 -98t106 -281v-438q0 -154 45 -285h-282q-26 59 -36 124
q-88 -145 -226 -145q-139 0 -219 88t-81 241zM467 1279q-145 0 -231 81t-81 209l2 6h207q0 -53 26 -87t77 -34q53 0 77 34t24 87h209l2 -6q5 -129 -81 -209t-231 -81z" />
    <glyph glyph-name="uni04D2" unicode="&#x4d2;" horiz-adv-x="1134" 
d="M439 538h268l-131 515h-6zM765 309h-384l-78 -309h-287l410 1456h296l409 -1456h-287zM475 1606h-251v198h251v-198zM923 1606h-250v198h250v-198z" />
    <glyph glyph-name="uni04D3" unicode="&#x4d3;" horiz-adv-x="944" 
d="M434 193q44 0 80 23t57 59v199h-107q-65 0 -94 -45t-29 -107t25 -95q25 -34 68 -34zM57 308q1 153 103 241t304 88h107v88q0 164 -114 164q-96 0 -96 -133l-275 1l-3 6q-5 141 105 240t283 99t279 -98t106 -281v-438q0 -154 45 -285h-282q-26 59 -36 124
q-88 -145 -226 -145q-139 0 -219 88t-81 241zM370 1284h-251v198h251v-198zM818 1284h-250v198h250v-198z" />
    <glyph glyph-name="uni04D4" unicode="&#x4d4;" horiz-adv-x="1656" 
d="M573 578h224l-17 497l-6 1zM1591 0h-774l-12 339h-329l-136 -339h-331l639 1456h891v-231h-481l12 -363h400v-230h-392l15 -402h498v-230z" />
    <glyph glyph-name="uni04D5" unicode="&#x4d5;" horiz-adv-x="1479" 
d="M1153 671q0 203 -112 203q-73 0 -106 -60t-39 -170h257v27zM324 313q0 -129 122 -129q41 0 88 27t76 65v190h-134q-72 0 -112 -44t-40 -109zM1057 -21q-215 0 -334 148q-118 -148 -332 -148q-168 1 -259 91t-91 248q1 158 111 244t322 87h136v56q0 79 -30 124t-85 45
t-87 -37t-33 -92l-275 17l-2 6q-6 146 106 240t289 94t281 -92q107 92 277 92q171 0 275 -131t104 -356v-160h-535q11 -249 196 -249q77 0 127 18t116 60l71 -183q-53 -49 -147 -85t-201 -37z" />
    <glyph glyph-name="uni04D6" unicode="&#x4d6;" horiz-adv-x="1008" 
d="M884 639h-489v-412h575v-227h-860v1456h858v-228h-573v-362h489v-227zM514 1601q-145 0 -231 81t-81 209l2 6h207q-1 -53 25 -87t78 -34t76 34t25 87h209l2 -6q4 -129 -82 -209t-230 -81z" />
    <glyph glyph-name="uni04D7" unicode="&#x4d7;" horiz-adv-x="938" 
d="M608 685q0 189 -119 189q-127 0 -136 -229h255v40zM513 -21q-204 0 -324 134t-120 338v152q-1 219 111 359t306 140t297 -127q104 -127 104 -346v-174h-535v-4q0 -107 48 -176t138 -69q89 0 139 18t119 60l72 -181q-56 -54 -150 -89t-205 -35zM466 1280q-145 0 -231 81
t-81 209l2 6h207q-1 -53 25 -87t78 -34t76 34t25 87h209l2 -6q4 -130 -82 -210t-230 -80z" />
    <glyph glyph-name="uni04D8" unicode="&#x4d8;" horiz-adv-x="1218" 
d="M347 555q0 -331 253 -331q109 0 172.5 101t74.5 264h-500v-34zM516 1231q-177 0 -317 -70l-43 230q33 27 133 56.5t232 29.5q295 0 453 -183t158 -485v-163q0 -292 -153 -479.5t-379 -187.5q-261 0 -399 180.5t-138 498.5v157h786q-2 188 -79 302t-254 114z" />
    <glyph glyph-name="uni04D9" unicode="&#x4d9;" horiz-adv-x="938" 
d="M347 410q0 -203 119 -203q113 0 132 230h-251v-27zM442 1103q204 0 324.5 -149.5t120.5 -378.5v-41q0 -245 -112 -399.5t-306 -154.5t-297 130t-103 356v161h531q-10 111 -58 180t-132 69t-133.5 -18.5t-117.5 -59.5l-73 181q56 52 150 88t206 36z" />
    <glyph glyph-name="uni04DA" unicode="&#x4da;" horiz-adv-x="1218" 
d="M347 555q0 -331 253 -331q108 0 172 101t75 264h-500v-34zM516 1231q-177 0 -317 -70l-43 230q33 27 133 57t232 29q295 0 453 -183t158 -485v-163q0 -292 -153 -480t-379 -187q-261 1 -399 181t-138 498v157h786q-2 188 -79 302t-254 114zM465 1627h-251v198h251v-198z
M913 1627h-250v198h250v-198z" />
    <glyph glyph-name="uni04DB" unicode="&#x4db;" horiz-adv-x="938" 
d="M347 410q0 -203 119 -203q113 0 132 230h-251v-27zM442 1103q204 1 324 -149t121 -379v-41q0 -246 -112 -400t-306 -154t-297 130t-103 356v161h531q-10 111 -58 180t-132 69t-133 -18q-50 -18 -118 -60l-73 181q56 52 150 88t206 36zM372 1284h-251v198h251v-198z
M820 1284h-250v198h250v-198z" />
    <glyph glyph-name="uni04DC" unicode="&#x4dc;" horiz-adv-x="1788" 
d="M1048 604v-604h-284v604h-144l-245 -604h-354l377 798l-360 658h353l250 -594h123v594h284v-594h119l242 594h352l-352 -655l369 -801h-353l-238 604h-139zM805 1606h-251v198h251v-198zM1253 1606h-250v198h250v-198z" />
    <glyph glyph-name="uni04DD" unicode="&#x4dd;" horiz-adv-x="1544" 
d="M918 404v-404h-284v404h-96l-144 -404h-364l273 590l-266 492h360l157 -407h80v407h284v-407h83l156 407h361l-281 -493l287 -589h-364l-144 404h-98zM686 1263h-251v198h251v-198zM1134 1263h-250v198h250v-198z" />
    <glyph glyph-name="uni04DE" unicode="&#x4de;" horiz-adv-x="1092" 
d="M543 853q161 0 161 205q0 83 -46 137t-124 54q-79 0 -125 -51t-46 -135h-276l-2 6q-5 182 125 295t330 113t324 -108t124 -307q0 -101 -52 -184t-141 -131q102 -42 157 -129t55 -212q0 -200 -133 -314q-132 -114 -334 -113q-202 0 -340 107t-132 312l2 6h276
q0 -86 50 -142t136 -56t138 57t52 147q0 222 -179 222h-152v221h152zM442 1627h-251v198h251v-198zM890 1627h-250v198h250v-198z" />
    <glyph glyph-name="uni04DF" unicode="&#x4df;" horiz-adv-x="910" 
d="M575 327q0 136 -113 136h-129v180h129q96 0 96 123t-94 123q-50 0 -78 -31t-29 -86h-275l-3 6q-5 146 101 234t278 88t278 -82t105 -231q0 -73 -38 -134t-105 -96q160 -66 160 -253q0 -151 -114 -237t-284 -86q-172 0 -286 85t-109 246l3 6h275q0 -56 30 -92
q29 -36 89 -35q112 0 113 136zM367 1283h-251v198h251v-198zM815 1283h-250v198h250v-198z" />
    <glyph glyph-name="uni04E0" unicode="&#x4e0;" horiz-adv-x="1019" 
d="M975 401q0 -195 -129 -308.5t-323 -113.5t-323 107t-124 312l2 6h277q0 -87 41.5 -142.5t119.5 -55.5t126.5 57t48.5 147q0 146 -55.5 212.5t-165.5 66.5h-116v178l269 361h-494v228h819l1 -188l-308 -403q160 -34 247 -151.5t87 -312.5z" />
    <glyph glyph-name="uni04E1" unicode="&#x4e1;" horiz-adv-x="1019" 
d="M121 854v228h827l1 -189l-305 -402q159 -34 245 -152t86 -312t-128.5 -308t-322.5 -114t-323.5 107.5t-124.5 310.5l2 6h277q0 -84 41.5 -140t119.5 -56t126.5 57.5t48.5 145.5q0 147 -54 213t-164 66h-119v177l266 362h-499z" />
    <glyph glyph-name="uni04E2" unicode="&#x4e2;" horiz-adv-x="1226" 
d="M1118 1456v-1456h-284v904l-6 1l-445 -905h-284v1456h284v-904l6 -1l445 905h284zM937 1617h-654v160h654v-160z" />
    <glyph glyph-name="uni04E3" unicode="&#x4e3;" horiz-adv-x="998" 
d="M911 1082v-1082h-284v592l-6 1l-248 -593h-285v1082h285v-590l6 -1l248 591h284zM828 1276h-654v160h654v-160z" />
    <glyph glyph-name="uni04E4" unicode="&#x4e4;" horiz-adv-x="1226" 
d="M1118 1456v-1456h-284v904l-6 1l-445 -905h-284v1456h284v-904l6 -1l445 905h284zM510 1606h-251v198h251v-198zM958 1606h-250v198h250v-198z" />
    <glyph glyph-name="uni04E5" unicode="&#x4e5;" horiz-adv-x="998" 
d="M911 1082v-1082h-284v592l-6 1l-248 -593h-285v1082h285v-590l6 -1l248 591h284zM401 1263h-251v198h251v-198zM849 1263h-250v198h250v-198z" />
    <glyph glyph-name="uni04E6" unicode="&#x4e6;" horiz-adv-x="1166" 
d="M357 523q-1 -316 225 -316t226 316v410q0 155 -58 235t-169 80q-224 0 -224 -315v-410zM1091 523q0 -256 -139 -400t-370 -144t-369 144t-138 400v408q0 255 138 401t368 145q230 1 370 -145t140 -401v-408zM485 1627h-251v198h251v-198zM933 1627h-250v198h250v-198z
" />
    <glyph glyph-name="uni04E7" unicode="&#x4e7;" 
d="M497 874q-156 0 -156 -267v-134q0 -125 35 -196q34 -71 120 -71t122 72t35 195v134q0 267 -156 267zM58 607q0 219 116 357t323 138q208 0 324 -138t116 -357v-134q0 -220 -116 -357t-324 -137q-207 0 -323 137t-116 357v134zM397 1284h-251v198h251v-198zM845 1284h-250
v198h250v-198z" />
    <glyph glyph-name="uni04E8" unicode="&#x4e8;" horiz-adv-x="1215" 
d="M587 1248q-224 0 -224 -315v-113h451v113q0 155 -58 235t-169 80zM363 523q-1 -316 225 -316t226 316v122h-451v-122zM1097 523q0 -256 -139 -400t-370 -144t-369 144t-138 400v408q0 255 138 401t368 145q230 1 370 -145t140 -401v-408z" />
    <glyph glyph-name="uni04E9" unicode="&#x4e9;" horiz-adv-x="994" 
d="M494 206q80 0 116 64t40 179h-311q3 -115 39 -179t116 -64zM651 625q-7 249 -157 249q-151 0 -155 -249h312zM56 607q0 219 116 357t323 138q208 0 324 -138t116 -357v-134q0 -220 -116 -357t-324 -137q-207 0 -323 137t-116 357v134z" />
    <glyph glyph-name="uni04EA" unicode="&#x4ea;" horiz-adv-x="1215" 
d="M587 1248q-224 0 -224 -315v-113h451v113q0 155 -58 235t-169 80zM363 523q-1 -316 225 -316t226 316v122h-451v-122zM1097 523q0 -256 -139 -400t-370 -144t-369 144t-138 400v408q0 255 138 401t368 145q230 1 370 -145t140 -401v-408zM529 1601h-251v198h251v-198z
M977 1601h-250v198h250v-198z" />
    <glyph glyph-name="uni04EB" unicode="&#x4eb;" horiz-adv-x="994" 
d="M494 206q80 0 116 64t40 179h-311q3 -115 39 -179t116 -64zM651 625q-7 249 -157 249q-151 0 -155 -249h312zM56 607q0 219 116 357t323 138q208 0 324 -138t116 -357v-134q0 -220 -116 -357t-324 -137q-207 0 -323 137t-116 357v134zM385 1312h-251v198h251v-198z
M833 1312h-250v198h250v-198z" />
    <glyph glyph-name="uni04EC" unicode="&#x4ec;" horiz-adv-x="1087" 
d="M527 1478q220 0 348 -168t128 -436v-291q1 -271 -127 -437t-349 -166t-344 128t-119 368l3 6h276q0 -144 44 -210t142 -65q189 0 189 374v40h-365v228h365v25q0 172 -46 274t-143 102t-141 -66t-44 -211h-275l-3 6q-4 239 118 369t343 130zM441 1628h-251v198h251v-198z
M889 1628h-250v198h250v-198z" />
    <glyph glyph-name="uni04ED" unicode="&#x4ed;" horiz-adv-x="907" 
d="M316 402q0 -196 124 -196t137 253h-201v169h201q-7 114 -40 180t-105 66q-116 0 -116 -166h-259l-3 6q-4 168 104 278t274 110q206 0 319 -154t113 -394v-28q0 -242 -113 -394t-303 -153q-190 1 -294 113t-100 305l2 5h260zM360 1284h-251v198h251v-198zM808 1284h-250
v198h250v-198z" />
    <glyph glyph-name="uni04EE" unicode="&#x4ee;" horiz-adv-x="1111" 
d="M308 206q58 0 90 36t51 109l14 49h-1l-430 1056h304l233 -661l3 -14h6l209 675h297l-408 -1173q-59 -145 -134 -225t-212 -79q-26 0 -90 4l-5 227q15 -4 73 -4zM883 1617h-654v160h654v-160z" />
    <glyph glyph-name="uni04EF" unicode="&#x4ef;" horiz-adv-x="909" 
d="M160 -207q108 0 139 118l25 80l-319 1091h305l130 -638l2 -11l158 649h304l-365 -1245q-41 -117 -109 -195t-210 -79q-44 0 -134 24l33 212q34 -6 41 -6zM782 1276h-654v160h654v-160z" />
    <glyph glyph-name="uni04F0" unicode="&#x4f0;" horiz-adv-x="1111" 
d="M308 206q58 0 90 36t51 109l14 49h-1l-430 1056h304l233 -661l3 -14h6l209 675h297l-408 -1173q-59 -145 -134 -225t-212 -79q-26 0 -90 4l-5 227q15 -4 73 -4zM456 1606h-251v198h251v-198zM904 1606h-250v198h250v-198z" />
    <glyph glyph-name="uni04F1" unicode="&#x4f1;" horiz-adv-x="909" 
d="M160 -207q108 0 139 118l25 80l-319 1091h305l130 -638l2 -11l158 649h304l-365 -1245q-41 -117 -109 -195t-210 -79q-44 0 -134 24l33 212q34 -6 41 -6zM355 1263h-251v198h251v-198zM803 1263h-250v198h250v-198z" />
    <glyph glyph-name="uni04F2" unicode="&#x4f2;" horiz-adv-x="1111" 
d="M308 206q58 0 90 36t51 109l14 49h-1l-430 1056h304l233 -661l3 -14h6l209 675h297l-408 -1173q-59 -145 -134 -225t-212 -79q-26 0 -90 4l-5 227q15 -4 73 -4zM434 1867h268l-207 -266h-227zM782 1867h264l2 -5l-238 -261h-230z" />
    <glyph glyph-name="uni04F3" unicode="&#x4f3;" horiz-adv-x="909" 
d="M160 -207q108 0 139 118l25 80l-319 1091h305l130 -638l2 -11l158 649h304l-365 -1245q-41 -117 -109 -195t-210 -79q-44 0 -134 24l33 212q34 -6 41 -6zM331 1524h268l-207 -266h-227zM679 1524h264l2 -5l-238 -261h-230z" />
    <glyph glyph-name="uni04F4" unicode="&#x4f4;" horiz-adv-x="1232" 
d="M614 761q113 0 222 28v667h285v-1456h-285v562q-114 -28 -224 -28q-233 0 -363 118t-130 362v442h283v-442q0 -142 50 -198t162 -55zM568 1606h-251v198h251v-198zM1016 1606h-250v198h250v-198z" />
    <glyph glyph-name="uni04F5" unicode="&#x4f5;" horiz-adv-x="985" 
d="M500 558q70 0 112 12v512h285v-1082h-285v342q-48 -11 -94 -11q-441 0 -441 415v336h283v-336q0 -108 35 -148t105 -40zM390 1263h-251v198h251v-198zM838 1263h-250v198h250v-198z" />
    <glyph glyph-name="uni04F6" unicode="&#x4f6;" horiz-adv-x="983" 
d="M931 1228h-535v-1026h172v-558h-284v356h-173v1456h820v-228z" />
    <glyph glyph-name="uni04F7" unicode="&#x4f7;" horiz-adv-x="741" 
d="M729 854h-357v-652h131v-558h-284v356h-131v1082h641v-228z" />
    <glyph glyph-name="uni04F8" unicode="&#x4f8;" horiz-adv-x="1540" 
d="M395 693v-466h184q91 0 143 68q52 67 52 169t-52 166t-143 63h-184zM395 920h184q219 0 349 -124t130 -332t-130 -336t-349 -128h-467v1456h283v-536zM1428 0h-283v1456h283v-1456zM666 1606h-251v198h251v-198zM1114 1606h-250v198h250v-198z" />
    <glyph glyph-name="uni04F9" unicode="&#x4f9;" horiz-adv-x="1489" 
d="M394 537v-312h147q67 0 99 43t32 112t-32 113t-99 44h-147zM394 763h147q193 1 303 -105t111 -278q0 -172 -111 -276t-303 -104h-432v1082h285v-319zM1369 0h-285v1082h285v-1082zM636 1263h-251v198h251v-198zM1084 1263h-250v198h250v-198z" />
    <glyph glyph-name="uni04FA" unicode="&#x4fa;" horiz-adv-x="1071" 
d="M374 -208q89 0 89 175v33h-266v671h-141v175h141v610h820v-228h-535v-382h155v-175h-155v-413h266v-291q0 -194 -90 -299t-250 -105q-58 0 -128 18l12 224q50 -13 82 -13z" />
    <glyph glyph-name="uni04FB" unicode="&#x4fb;" horiz-adv-x="752" 
d="M300 -214q89 0 89 175v39h-226v494h-125v175h125v413h641v-228h-357v-185h172v-175h-172v-242h227v-291q0 -194 -90 -299t-250 -105q-58 0 -128 18l12 224q50 -13 82 -13z" />
    <glyph glyph-name="uni04FC" unicode="&#x4fc;" horiz-adv-x="1127" 
d="M878 -208q89 0 89 175v33h-195l-204 520h-6l-204 -520h-331l362 734l-353 722h327l195 -509h6l198 509h329l-353 -722l244 -476h270v-291q0 -194 -90 -299t-250 -105q-58 0 -128 18l12 224q50 -13 82 -13z" />
    <glyph glyph-name="uni04FD" unicode="&#x4fd;" horiz-adv-x="909" 
d="M653 -208q89 0 89 175v33h-162l-119 351h-6l-119 -351h-320l275 547l-268 535h319l109 -341h6l114 341h320l-268 -535l146 -289h258v-291q0 -194 -90 -299t-250 -105q-58 0 -128 18l12 224q50 -13 82 -13z" />
    <glyph glyph-name="uni04FE" unicode="&#x4fe;" horiz-adv-x="1127" 
d="M859 659h-83l339 -659h-343l-204 520h-6l-204 -520h-331l325 659h-74v175h62l-304 622h327l195 -509h6l198 509h329l-304 -622h72v-175z" />
    <glyph glyph-name="uni04FF" unicode="&#x4ff;" horiz-adv-x="909" 
d="M753 468h-90l236 -468h-319l-119 351h-6l-119 -351h-320l235 468h-79v175h71l-220 439h319l109 -341h6l114 341h320l-220 -439h82v-175z" />
    <glyph glyph-name="uni0500" unicode="&#x500;" horiz-adv-x="1120" 
d="M734 227v494h-185q-92 0 -142.5 -71t-50.5 -175t50 -176t143 -72h185zM734 948v508h283v-1456h-468q-217 0 -347.5 133t-130.5 341t130.5 341t347.5 133h185z" />
    <glyph glyph-name="uni0501" unicode="&#x501;" 
d="M487 874q-149 0 -149 -339v-21q0 -145 34 -226t116 -81q83 0 130 80v492q-49 95 -131 95zM54 514v21q0 255 94 411t265 156q122 0 205 -116v574h284v-1560h-247l-19 118q-86 -139 -224 -139q-170 1 -264 147t-94 388z" />
    <glyph glyph-name="uni0502" unicode="&#x502;" horiz-adv-x="1634" 
d="M776 227v494h-185q-93 0 -143.5 -71.5t-50.5 -174.5t50.5 -175.5t143.5 -72.5h185zM591 0q-217 0 -348 132.5t-131 341.5t130.5 341.5t348.5 132.5h185v508h283v-1229h48q70 1 108.5 52t40.5 135q4 160 -49 331h278q28 -105 43 -178.5t13 -145.5q-3 -203 -128.5 -312
t-305.5 -109h-516z" />
    <glyph glyph-name="uni0503" unicode="&#x503;" horiz-adv-x="1491" 
d="M513 874q-149 0 -149 -339v-21q0 -145 33.5 -226t113.5 -81t127 72q-10 48 -10 97v431q-48 67 -115 67zM80 514v21q0 255 93.5 411t264.5 156q110 0 190 -97v555h284v-1184q-1 -76 21.5 -121.5t62.5 -45.5q70 1 108.5 85.5t41.5 252.5t-49 384l277 1q59 -259 57 -403
q-3 -265 -128 -407.5t-307 -142.5q-234 -2 -317 169q-89 -169 -251 -169t-255 146.5t-93 388.5z" />
    <glyph glyph-name="uni0504" unicode="&#x504;" horiz-adv-x="1381" 
d="M540 386q0 97 -43 157.5t-113 60.5h-212v230h158q111 0 158.5 51.5t47.5 160.5q0 179 -183 179h-287v231h287q226 0 346 -105.5t120 -306.5q0 -236 -243 -335q249 -62 249 -321v-69q-1 -49 11 -79t33 -24h6q64 -4 101 80.5t41 232.5q0 201 -52 403h279q30 -140 44 -226.5
t13 -176.5q-4 -263 -132.5 -406.5t-313.5 -143.5q-300 -6 -315 340v67z" />
    <glyph glyph-name="uni0505" unicode="&#x505;" horiz-adv-x="1128" 
d="M409 289q0 105 -62 105h-228l-2 214h151q106 0 106 123t-102 123h-222l-5 228h227q184 0 285 -85t101 -238t-134 -226q170 -47 170 -227v-46q-2 -108 40 -96h6q41 -4 66 64t28 205t-48 305h276q60 -214 57 -319q-3 -215 -107 -330t-266 -117t-244.5 55t-92.5 187v75z" />
    <glyph glyph-name="uni0506" unicode="&#x506;" horiz-adv-x="1060" 
d="M513 251v99q0 110 -44.5 170t-128.5 60h-238l-1 227h225q85 0 130.5 53t45.5 152t-44.5 158t-130.5 59h-263l-7 227h270q214 0 336.5 -114t122.5 -316q0 -227 -200 -327q211 -72 211 -347v-110h213v-239l-145 -311h-166l57 308h-190q-53 48 -53 251z" />
    <glyph glyph-name="uni0507" unicode="&#x507;" horiz-adv-x="1018" 
d="M502 157v71q0 160 -141 160h-222l-2 194h223q58 0 91.5 35t33.5 96t-34 102.5t-91 41.5h-251l-10 225h261q186 0 298.5 -94t112.5 -254t-139 -244q152 -64 154 -258h196v-239l-145 -311h-166l59 318h-209q-19 25 -19 157z" />
    <glyph glyph-name="uni0508" unicode="&#x508;" horiz-adv-x="1688" 
d="M844 1225h-282v-457q0 -398 -105 -583t-350 -185h-45v230h35q95 0 137.5 125.5t42.5 412.5v688h851v-1080q-1 -76 21 -121.5t62 -45.5q70 1 109 85.5t42 253.5t-50 383l279 1q58 -261 56 -403q-3 -265 -128 -407.5t-308 -142.5q-350 -6 -367 397v849z" />
    <glyph glyph-name="uni0509" unicode="&#x509;" horiz-adv-x="1507" 
d="M641 850h-129v-228q0 -318 -89 -470t-298 -152h-66l4 243l35 1q70 0 100.5 88.5t30.5 289.5v460h696v-706q-1 -76 26 -121t77 -45t79 72.5t32 225.5t-50 357h277q29 -127 44 -211.5t14 -169.5q-4 -244 -118 -374.5t-279 -130.5q-367 -6 -386 397v474z" />
    <glyph glyph-name="uni050A" unicode="&#x50a;" horiz-adv-x="1747" 
d="M853 603h-461v-603h-284v1456h284v-626h461v626h284v-1080q-1 -76 21.5 -121.5t62.5 -45.5q70 1 109 85.5t42 253.5t-50 383l278 1q60 -263 57 -403q-4 -265 -129 -407.5t-307 -142.5q-349 -6 -368 397v227z" />
    <glyph glyph-name="uni050B" unicode="&#x50b;" horiz-adv-x="1444" 
d="M620 430h-264v-430h-285v1082h285v-423h264v423h285v-706q-2 -76 25.5 -121t77.5 -45t79 73t31 183q4 201 -50 399h278q30 -132 44 -214t13 -167q-4 -244 -117.5 -374.5t-280.5 -130.5q-366 -6 -385 397v54z" />
    <glyph glyph-name="uni050C" unicode="&#x50c;" horiz-adv-x="1119" 
d="M602 -21q-242 0 -393.5 174.5t-151.5 443.5v262q0 268 151.5 443t393.5 175q187 0 308 -88l-57 -211q-117 68 -244 68q-126 0 -196.5 -111t-70.5 -274v-264q0 -166 70.5 -277t189.5 -111q84 1 129.5 61.5t49.5 169.5q0 144 -43 346h277q32 -168 41 -219.5t8 -126.5
q-3 -224 -135 -342.5t-327 -118.5z" />
    <glyph glyph-name="uni050D" unicode="&#x50d;" horiz-adv-x="942" 
d="M531 -21q-221 0 -347.5 156.5t-126.5 384.5v42q0 226 122 383t334 157q157 0 242 -66l-42 -222q-82 57 -200 57q-85 0 -128.5 -92.5t-43.5 -216.5v-42q0 -127 47 -219t143 -92q44 1 71.5 48.5t-5.5 279.5h277q23 -130 23 -206q-3 -173 -103.5 -262.5t-262.5 -89.5z" />
    <glyph glyph-name="uni050E" unicode="&#x50e;" horiz-adv-x="1238" 
d="M384 1225h-350v231h975v-231h-341v-849q-1 -76 21 -121.5t62 -45.5q71 1 110 86t42 252t-50 384l277 1q60 -260 57 -403q-4 -265 -129 -407.5t-307 -142.5q-350 -6 -367 397v849z" />
    <glyph glyph-name="uni050F" unicode="&#x50f;" horiz-adv-x="1118" 
d="M292 853h-229v229h767v-229h-255v-477q-1 -76 26 -121t77 -45t79 57t32 177t-51 275h278q59 -197 58 -293q-5 -216 -119 -331.5t-280 -115.5q-366 -6 -383 397v477z" />
    <glyph glyph-name="uni0510" unicode="&#x510;" horiz-adv-x="1150" 
d="M589 632q-212 0 -212 -209q0 -103 61.5 -160t157.5 -57t152.5 56.5t56.5 141.5h276l2 -6q4 -205 -139.5 -312t-355.5 -107t-354 113.5t-142 313.5q0 255 228 341q-98 48 -153.5 131t-55.5 184q0 199 133 307t345 108t346.5 -113t130.5 -295l-2 -6h-276q0 84 -52 135
t-143 51t-144.5 -54t-53.5 -137q0 -205 194 -205h171v-221h-171z" />
    <glyph glyph-name="uni0511" unicode="&#x511;" horiz-adv-x="988" 
d="M512 460q-143 0 -143 -133q-1 -57 35 -97t104 -39q68 -1 106 35q36 36 36 92h275l2 -6q3 -160 -117 -246t-298 -85t-303 87q-124 86 -124 236q0 186 178 252q-76 36 -119 97t-43 134q0 149 116 231q115 82 295 82t292 -88t108 -234l-2 -6h-276q0 55 -34 86t-94 31
t-90 -37t-31 -90q-1 -52 33 -84t94 -32h156v-186h-156z" />
    <glyph glyph-name="uni0512" unicode="&#x512;" horiz-adv-x="1241" 
d="M1040 -208q89 0 89 175v33h-282v1228h-305l3 -426q1 -430 -107 -616t-327 -186h-68v227h34q114 11 150 127t34 448l-4 654h873v-1198h284v-291q0 -194 -90 -299t-250 -105q-58 0 -128 18l12 224q50 -13 82 -13z" />
    <glyph glyph-name="uni0513" unicode="&#x513;" horiz-adv-x="1000" 
d="M822 -208q89 0 89 175v33h-283v854h-177v-236q-1 -320 -89 -469t-302 -149h-39l-4 230h25q84 0 104 76t20 312v464h746v-824h284v-291q0 -194 -90 -299t-250 -105q-58 0 -128 18l12 224q50 -13 82 -13z" />
    <glyph glyph-name="uni1E00" unicode="&#x1e00;" horiz-adv-x="1134" 
d="M439 538h268l-131 515h-6zM765 309h-384l-78 -309h-287l410 1456h296l409 -1456h-287zM512 -224q0 -30 16 -50t42 -20q24 0 40 19t16 50t-16 51t-40 19q-26 1 -42 -19t-16 -50zM407 -225q0 70 47 117t116 47q70 0 116 -47q46 -48 46 -118t-46 -116t-116 -46
q-69 0 -116 46t-47 117z" />
    <glyph glyph-name="uni1E01" unicode="&#x1e01;" horiz-adv-x="944" 
d="M434 193q44 0 80 23t57 59v199h-107q-65 0 -94 -45t-29 -107t25 -95q25 -34 68 -34zM57 308q1 153 103 241t304 88h107v88q0 164 -114 164q-96 0 -96 -133l-275 1l-3 6q-5 141 105 240t283 99t279 -98t106 -281v-438q0 -154 45 -285h-282q-26 59 -36 124
q-88 -145 -226 -145q-139 0 -219 88t-81 241zM341 -208q1 -30 17 -50t41 -20t41 19t15 50q1 31 -15 51t-41 19q-25 1 -41 -19t-17 -50zM236 -209q0 70 47 117t116 47t115 -47q46 -48 47 -118q-1 -70 -47 -116t-115 -46t-116 46t-47 117z" />
    <glyph glyph-name="uni1E3E" unicode="&#x1e3e;" horiz-adv-x="1481" 
d="M1376 1456v-1456h-283v423l24 566l-6 1l-278 -990h-189l-275 982l-6 -1l25 -558v-423h-283v1456h369l261 -1069h6l264 1069h371zM770 1826h299l3 -6l-249 -260h-229z" />
    <glyph glyph-name="uni1E3F" unicode="&#x1e3f;" horiz-adv-x="1507" 
d="M629 1102q170 0 233 -176q88 176 262 176q134 0 212 -110t77 -338v-654h-285v654q0 124 -27 172t-84 48q-81 0 -126 -90q3 -57 3 -76v-708h-283v654q1 124 -27 172t-95 48t-113 -74v-800h-283v1082h265l11 -138q90 158 260 158zM805 1504h299l3 -6l-249 -260h-229z" />
    <glyph glyph-name="Wgrave" unicode="&#x1e80;" horiz-adv-x="1548" 
d="M1087 527h6l157 929h276l-281 -1456h-265l-205 892h-6l-203 -892h-264l-281 1456h276l157 -929h6l210 929h204zM919 1559h-230l-246 260l3 6h298z" />
    <glyph glyph-name="wgrave" unicode="&#x1e81;" horiz-adv-x="1280" 
d="M882 468l6 1l101 613h263l-222 -1082h-237l-151 583h-6l-151 -583h-237l-224 1082h265l101 -616h6l151 616h184zM784 1216h-230l-246 260l3 6h298z" />
    <glyph glyph-name="Wacute" unicode="&#x1e82;" horiz-adv-x="1548" 
d="M1087 527h6l157 929h276l-281 -1456h-265l-205 892h-6l-203 -892h-264l-281 1456h276l157 -929h6l210 929h204zM805 1826h299l3 -6l-249 -260h-229z" />
    <glyph glyph-name="wacute" unicode="&#x1e83;" horiz-adv-x="1280" 
d="M882 468l6 1l101 613h263l-222 -1082h-237l-151 583h-6l-151 -583h-237l-224 1082h265l101 -616h6l151 616h184zM670 1483h299l3 -6l-249 -260h-229z" />
    <glyph glyph-name="Wdieresis" unicode="&#x1e84;" horiz-adv-x="1548" 
d="M1087 527h6l157 929h276l-281 -1456h-265l-205 892h-6l-203 -892h-264l-281 1456h276l157 -929h6l210 929h204zM675 1606h-251v198h251v-198zM1123 1606h-250v198h250v-198z" />
    <glyph glyph-name="wdieresis" unicode="&#x1e85;" horiz-adv-x="1280" 
d="M882 468l6 1l101 613h263l-222 -1082h-237l-151 583h-6l-151 -583h-237l-224 1082h265l101 -616h6l151 616h184zM540 1263h-251v198h251v-198zM988 1263h-250v198h250v-198z" />
    <glyph glyph-name="uni1EA0" unicode="&#x1ea0;" horiz-adv-x="1134" 
d="M439 538h268l-131 515h-6zM765 309h-384l-78 -309h-287l410 1456h296l409 -1456h-287zM734 -353h-316v241h316v-241z" />
    <glyph glyph-name="uni1EA1" unicode="&#x1ea1;" horiz-adv-x="944" 
d="M434 193q44 0 80 23t57 59v199h-107q-65 0 -94 -45t-29 -107t25 -95q25 -34 68 -34zM57 308q1 153 103 241t304 88h107v88q0 164 -114 164q-96 0 -96 -133l-275 1l-3 6q-5 141 105 240t283 99t279 -98t106 -281v-438q0 -154 45 -285h-282q-26 59 -36 124
q-88 -145 -226 -145q-139 0 -219 88t-81 241zM563 -337h-316v241h316v-241z" />
    <glyph glyph-name="uni1EA2" unicode="&#x1ea2;" horiz-adv-x="1134" 
d="M439 538h268l-131 515h-6zM765 309h-384l-78 -309h-287l410 1456h296l409 -1456h-287zM559 1788q0 68 -109 68l6 131q168 0 256 -51t88 -142q0 -64 -36 -100t-86 -44v-63h-213l-17 129q60 3 86 19q26 17 25 53z" />
    <glyph glyph-name="uni1EA3" unicode="&#x1ea3;" horiz-adv-x="944" 
d="M434 193q44 0 80 23t57 59v199h-107q-65 0 -94 -45t-29 -107t25 -95q25 -34 68 -34zM57 308q1 153 103 241t304 88h107v88q0 164 -114 164q-96 0 -96 -133l-275 1l-3 6q-5 141 105 240t283 99t279 -98t106 -281v-438q0 -154 45 -285h-282q-26 59 -36 124
q-88 -145 -226 -145q-139 0 -219 88t-81 241zM452 1466q0 68 -109 69l6 131q169 0 257 -51t87 -142q1 -64 -35 -100t-87 -44v-63h-213l-17 129q59 3 85 19t26 52z" />
    <glyph glyph-name="uni1EA4" unicode="&#x1ea4;" horiz-adv-x="1134" 
d="M439 538h268l-131 515h-6zM765 309h-384l-78 -309h-287l410 1456h296l409 -1456h-287zM993 2014h256l-186 -268h-196zM462 1834h231l257 -249l-2 -6h-250l-121 144l-122 -144h-249l-2 6z" />
    <glyph glyph-name="uni1EA5" unicode="&#x1ea5;" horiz-adv-x="944" 
d="M434 193q44 0 80 23t57 59v199h-107q-65 0 -94 -45t-29 -107t25 -95q25 -34 68 -34zM57 308q1 153 103 241t304 88h107v88q0 164 -114 164q-96 0 -96 -133l-275 1l-3 6q-5 141 105 240t283 99t279 -98t106 -281v-438q0 -154 45 -285h-282q-26 59 -36 124
q-88 -145 -226 -145q-139 0 -219 88t-81 241zM886 1692h256l-186 -268h-196zM355 1512h231l257 -249l-2 -6h-250l-121 144l-122 -144h-249l-2 6z" />
    <glyph glyph-name="uni1EA6" unicode="&#x1ea6;" horiz-adv-x="1134" 
d="M439 538h268l-131 515h-6zM765 309h-384l-78 -309h-287l410 1456h296l409 -1456h-287zM283 1746h-193l-187 268h254zM946 1585l-2 -6h-249l-122 144l-122 -144h-249l-2 6l257 249h232z" />
    <glyph glyph-name="uni1EA7" unicode="&#x1ea7;" horiz-adv-x="944" 
d="M434 193q44 0 80 23t57 59v199h-107q-65 0 -94 -45t-29 -107t25 -95q25 -34 68 -34zM57 308q1 153 103 241t304 88h107v88q0 164 -114 164q-96 0 -96 -133l-275 1l-3 6q-5 141 105 240t283 99t279 -98t106 -281v-438q0 -154 45 -285h-282q-26 59 -36 124
q-88 -145 -226 -145q-139 0 -219 88t-81 241zM176 1419h-193l-187 268h254zM839 1258l-2 -6h-249l-122 144l-122 -144h-249l-2 6l257 249h232z" />
    <glyph glyph-name="uni1EA8" unicode="&#x1ea8;" horiz-adv-x="1134" 
d="M439 538h268l-131 515h-6zM765 309h-384l-78 -309h-287l410 1456h296l409 -1456h-287zM947 1878q0 61 -95 61l6 111q141 0 215 -43t74 -109t-30 -96t-73 -37v-53h-179l-15 110q97 6 97 56zM942 1585l-2 -6h-246l-126 148l-125 -148h-245l-2 6l255 249h236z" />
    <glyph glyph-name="uni1EA9" unicode="&#x1ea9;" horiz-adv-x="944" 
d="M434 193q44 0 80 23t57 59v199h-107q-65 0 -94 -45t-29 -107t25 -95q25 -34 68 -34zM57 308q1 153 103 241t304 88h107v88q0 164 -114 164q-96 0 -96 -133l-275 1l-3 6q-5 141 105 240t283 99t279 -98t106 -281v-438q0 -154 45 -285h-282q-26 59 -36 124
q-88 -145 -226 -145q-139 0 -219 88t-81 241zM840 1527q0 61 -95 61l6 111q141 0 215 -43q74 -42 74 -108t-30 -96t-73 -38v-53h-179l-15 110q97 6 97 56zM835 1234l-2 -6h-246l-126 148l-125 -148h-245l-2 6l255 249h236z" />
    <glyph glyph-name="uni1EAA" unicode="&#x1eaa;" horiz-adv-x="1134" 
d="M439 538h268l-131 515h-6zM765 309h-384l-78 -309h-287l410 1456h296l409 -1456h-287zM687 1881q-49 1 -113 37t-90 36q-48 0 -47 -84l-105 31q0 69 34 122t77 53q44 0 113 -36t94 -35q49 0 49 89l106 -40q-1 -69 -35 -121t-83 -52zM929 1593l-3 -6h-240l-125 132
l-124 -132h-241l-3 6l253 221h230z" />
    <glyph glyph-name="uni1EAB" unicode="&#x1eab;" horiz-adv-x="944" 
d="M434 193q44 0 80 23t57 59v199h-107q-65 0 -94 -45t-29 -107t25 -95q25 -34 68 -34zM57 308q1 153 103 241t304 88h107v88q0 164 -114 164q-96 0 -96 -133l-275 1l-3 6q-5 141 105 240t283 99t279 -98t106 -281v-438q0 -154 45 -285h-282q-26 59 -36 124
q-88 -145 -226 -145q-139 0 -219 88t-81 241zM580 1504q-49 0 -113 36q-63 36 -89 37q-48 0 -48 -84l-105 31q-1 69 33 122t78 53q44 1 113 -35t94 -36q49 0 49 89l106 -40q0 -69 -34 -121t-84 -52zM822 1216l-3 -6h-240l-125 132l-124 -132h-241l-3 6l253 221h230z" />
    <glyph glyph-name="uni1EAC" unicode="&#x1eac;" horiz-adv-x="1134" 
d="M439 538h268l-131 515h-6zM765 309h-384l-78 -309h-287l410 1456h296l409 -1456h-287zM909 1591h-222l-114 134l-112 -134h-217v25l250 237h159l256 -240v-22zM734 -353h-316v241h316v-241z" />
    <glyph glyph-name="uni1EAD" unicode="&#x1ead;" horiz-adv-x="944" 
d="M434 193q44 0 80 23t57 59v199h-107q-65 0 -94 -45t-29 -107t25 -95q25 -34 68 -34zM57 308q1 153 103 241t304 88h107v88q0 164 -114 164q-96 0 -96 -133l-275 1l-3 6q-5 141 105 240t283 99t279 -98t106 -281v-438q0 -154 45 -285h-282q-26 59 -36 124
q-88 -145 -226 -145q-139 0 -219 88t-81 241zM802 1269h-222l-114 134l-112 -134h-217v25l250 237h159l256 -240v-22zM563 -337h-316v241h316v-241z" />
    <glyph glyph-name="uni1EAE" unicode="&#x1eae;" horiz-adv-x="1134" 
d="M439 538h268l-131 515h-6zM765 309h-384l-78 -309h-287l410 1456h296l409 -1456h-287zM590 2037h201l-149 -189h-153zM467 1813q0 -101 94 -101q47 0 69 28t23 73h206l2 -6q5 -107 -78 -175t-223 -68t-222 68t-77 175l2 6h204z" />
    <glyph glyph-name="uni1EAF" unicode="&#x1eaf;" horiz-adv-x="944" 
d="M434 193q44 0 80 23t57 59v199h-107q-65 0 -94 -45t-29 -107t25 -95q25 -34 68 -34zM57 308q1 153 103 241t304 88h107v88q0 164 -114 164q-96 0 -96 -133l-275 1l-3 6q-5 141 105 240t283 99t279 -98t106 -281v-438q0 -154 45 -285h-282q-26 59 -36 124
q-88 -145 -226 -145q-139 0 -219 88t-81 241zM483 1683h201l-149 -189h-153zM360 1459q0 -101 94 -101q48 0 70 28t22 73h206l2 -6q5 -107 -78 -175t-223 -68q-141 0 -223 68t-76 175l2 6h204z" />
    <glyph glyph-name="uni1EB0" unicode="&#x1eb0;" horiz-adv-x="1134" 
d="M439 538h268l-131 515h-6zM765 309h-384l-78 -309h-287l410 1456h296l409 -1456h-287zM704 1906h-217l-173 216l3 5h253zM577 1554q-139 0 -223 80t-79 209l2 6h189q0 -51 27 -85t84 -34t85 34t27 85h189l2 -6q4 -129 -80 -209t-223 -80z" />
    <glyph glyph-name="uni1EB1" unicode="&#x1eb1;" horiz-adv-x="944" 
d="M434 193q44 0 80 23t57 59v199h-107q-65 0 -94 -45t-29 -107t25 -95q25 -34 68 -34zM57 308q1 153 103 241t304 88h107v88q0 164 -114 164q-96 0 -96 -133l-275 1l-3 6q-5 141 105 240t283 99t279 -98t106 -281v-438q0 -154 45 -285h-282q-26 59 -36 124
q-88 -145 -226 -145q-139 0 -219 88t-81 241zM597 1609h-217l-173 216l3 5h253zM470 1257q-140 1 -224 81t-78 208l2 6h189q0 -52 27 -86t84 -33q56 -1 84 33t28 86h189l2 -6q5 -128 -79 -208t-224 -81z" />
    <glyph glyph-name="uni1EB2" unicode="&#x1eb2;" horiz-adv-x="1134" 
d="M439 538h268l-131 515h-6zM765 309h-384l-78 -309h-287l410 1456h296l409 -1456h-287zM549 2012q0 56 -107 56l6 103q164 1 250 -39t86 -112q0 -52 -35 -80t-85 -34v-51h-207l-17 104q109 4 109 53zM469 1813q0 -96 96 -96q48 0 72 27t24 69h207l1 -6q6 -101 -78 -165
q-85 -64 -227 -64t-226 64t-76 165l1 6h206z" />
    <glyph glyph-name="uni1EB3" unicode="&#x1eb3;" horiz-adv-x="944" 
d="M434 193q44 0 80 23t57 59v199h-107q-65 0 -94 -45t-29 -107t25 -95q25 -34 68 -34zM57 308q1 153 103 241t304 88h107v88q0 164 -114 164q-96 0 -96 -133l-275 1l-3 6q-5 141 105 240t283 99t279 -98t106 -281v-438q0 -154 45 -285h-282q-26 59 -36 124
q-88 -145 -226 -145q-139 0 -219 88t-81 241zM442 1686q0 56 -107 56l6 103q165 1 251 -39t85 -112q0 -52 -35 -80t-85 -34v-51h-207l-17 104q109 4 109 53zM362 1487q0 -96 96 -96q48 0 72 27t24 69h207l1 -6q6 -101 -78 -165t-226 -64t-226 64t-77 165l1 6h206z" />
    <glyph glyph-name="uni1EB4" unicode="&#x1eb4;" horiz-adv-x="1134" 
d="M439 538h268l-131 515h-6zM765 309h-384l-78 -309h-287l410 1456h296l409 -1456h-287zM685 1895q-53 0 -113 35t-87 35q-27 1 -41 -25t-15 -63l-113 33q0 72 38 126t100 54q34 0 98 -34t92 -35q28 0 43 25t15 63l116 -34q0 -75 -40 -127t-93 -53zM476 1803q0 -97 93 -97
t93 97h205l2 -6q5 -103 -77 -167t-222 -64t-222 64t-77 167l2 6h203z" />
    <glyph glyph-name="uni1EB5" unicode="&#x1eb5;" horiz-adv-x="944" 
d="M434 193q44 0 80 23t57 59v199h-107q-65 0 -94 -45t-29 -107t25 -95q25 -34 68 -34zM57 308q1 153 103 241t304 88h107v88q0 164 -114 164q-96 0 -96 -133l-275 1l-3 6q-5 141 105 240t283 99t279 -98t106 -281v-438q0 -154 45 -285h-282q-26 59 -36 124
q-88 -145 -226 -145q-139 0 -219 88t-81 241zM578 1573q-53 0 -113 35t-87 35q-28 1 -42 -25t-14 -63l-113 33q1 72 39 126t99 54q35 0 99 -34t92 -35q28 0 42 25q15 25 15 63l116 -34q0 -75 -40 -127t-93 -53zM369 1481q0 -97 93 -97t93 97h205l2 -6q4 -103 -78 -167
t-222 -64t-222 64t-76 167l2 6h203z" />
    <glyph glyph-name="uni1EB6" unicode="&#x1eb6;" horiz-adv-x="1134" 
d="M439 538h268l-131 515h-6zM765 309h-384l-78 -309h-287l410 1456h296l409 -1456h-287zM574 1601q-145 0 -231 81t-81 209l2 6h207q-1 -53 25 -87t78 -34t76 34t25 87h209l2 -6q4 -129 -82 -209t-230 -81zM734 -353h-316v241h316v-241z" />
    <glyph glyph-name="uni1EB7" unicode="&#x1eb7;" horiz-adv-x="944" 
d="M434 193q44 0 80 23t57 59v199h-107q-65 0 -94 -45t-29 -107t25 -95q25 -34 68 -34zM57 308q1 153 103 241t304 88h107v88q0 164 -114 164q-96 0 -96 -133l-275 1l-3 6q-5 141 105 240t283 99t279 -98t106 -281v-438q0 -154 45 -285h-282q-26 59 -36 124
q-88 -145 -226 -145q-139 0 -219 88t-81 241zM467 1279q-145 0 -231 81t-81 209l2 6h207q0 -53 26 -87t77 -34q53 0 77 34t24 87h209l2 -6q5 -129 -81 -209t-231 -81zM563 -337h-316v241h316v-241z" />
    <glyph glyph-name="uni1EB8" unicode="&#x1eb8;" horiz-adv-x="1008" 
d="M884 639h-489v-412h575v-227h-860v1456h858v-228h-573v-362h489v-227zM672 -343h-316v241h316v-241z" />
    <glyph glyph-name="uni1EB9" unicode="&#x1eb9;" horiz-adv-x="938" 
d="M608 685q0 189 -119 189q-127 0 -136 -229h255v40zM513 -21q-204 0 -324 134t-120 338v152q-1 219 111 359t306 140t297 -127q104 -127 104 -346v-174h-535v-4q0 -107 48 -176t138 -69q89 0 139 18t119 60l72 -181q-56 -54 -150 -89t-205 -35zM653 -353h-316v241h316
v-241z" />
    <glyph glyph-name="uni1EBA" unicode="&#x1eba;" horiz-adv-x="1008" 
d="M884 639h-489v-412h575v-227h-860v1456h858v-228h-573v-362h489v-227zM499 1788q0 68 -109 68l6 131q168 0 256 -51t88 -142q0 -64 -36 -100t-86 -44v-63h-213l-17 129q60 3 86 19q26 17 25 53z" />
    <glyph glyph-name="uni1EBB" unicode="&#x1ebb;" horiz-adv-x="938" 
d="M608 685q0 189 -119 189q-127 0 -136 -229h255v40zM513 -21q-204 0 -324 134t-120 338v152q-1 219 111 359t306 140t297 -127q104 -127 104 -346v-174h-535v-4q0 -107 48 -176t138 -69q89 0 139 18t119 60l72 -181q-56 -54 -150 -89t-205 -35zM451 1466q0 68 -109 69
l6 131q168 0 256 -51t88 -142q0 -64 -36 -100t-86 -44v-63h-213l-17 129q60 3 86 19t25 52z" />
    <glyph glyph-name="uni1EBC" unicode="&#x1ebc;" horiz-adv-x="1008" 
d="M884 639h-489v-412h575v-227h-860v1456h858v-228h-573v-362h489v-227zM670 1626q-68 0 -146 44t-114 44t-54 -33q-19 -33 -19 -79l-149 43q0 93 52 161t129 68q45 0 129 -44t120 -44t56 32t19 81l148 -45q0 -96 -51 -162t-120 -66z" />
    <glyph glyph-name="uni1EBD" unicode="&#x1ebd;" horiz-adv-x="938" 
d="M608 685q0 189 -119 189q-127 0 -136 -229h255v40zM513 -21q-204 0 -324 134t-120 338v152q-1 219 111 359t306 140t297 -127q104 -127 104 -346v-174h-535v-4q0 -107 48 -176t138 -69q89 0 139 18t119 60l72 -181q-56 -54 -150 -89t-205 -35zM622 1305q-68 0 -146 44
t-114 44t-54 -33q-19 -33 -19 -79l-149 43q0 93 52 161t129 68q45 0 129 -44t120 -44q36 1 56 33t19 80l148 -45q0 -95 -51 -161t-120 -67z" />
    <glyph glyph-name="uni1EBE" unicode="&#x1ebe;" horiz-adv-x="1008" 
d="M884 639h-489v-412h575v-227h-860v1456h858v-228h-573v-362h489v-227zM933 2014h256l-186 -268h-196zM402 1834h231l257 -249l-2 -6h-250l-121 144l-122 -144h-249l-2 6z" />
    <glyph glyph-name="uni1EBF" unicode="&#x1ebf;" horiz-adv-x="938" 
d="M608 685q0 189 -119 189q-127 0 -136 -229h255v40zM513 -21q-204 0 -324 134t-120 338v152q-1 219 111 359t306 140t297 -127q104 -127 104 -346v-174h-535v-4q0 -107 48 -176t138 -69q89 0 139 18t119 60l72 -181q-56 -54 -150 -89t-205 -35zM885 1693h256l-186 -268
h-196zM354 1513h231l257 -249l-2 -6h-250l-121 144l-122 -144h-249l-2 6z" />
    <glyph glyph-name="uni1EC0" unicode="&#x1ec0;" horiz-adv-x="1008" 
d="M884 639h-489v-412h575v-227h-860v1456h858v-228h-573v-362h489v-227zM223 1741h-193l-187 268h254zM886 1580l-2 -6h-249l-122 144l-122 -144h-249l-2 6l257 249h232z" />
    <glyph glyph-name="uni1EC1" unicode="&#x1ec1;" horiz-adv-x="938" 
d="M608 685q0 189 -119 189q-127 0 -136 -229h255v40zM513 -21q-204 0 -324 134t-120 338v152q-1 219 111 359t306 140t297 -127q104 -127 104 -346v-174h-535v-4q0 -107 48 -176t138 -69q89 0 139 18t119 60l72 -181q-56 -54 -150 -89t-205 -35zM175 1420h-193l-187 268
h254zM838 1259l-2 -6h-249l-122 144l-122 -144h-249l-2 6l257 249h232z" />
    <glyph glyph-name="uni1EC2" unicode="&#x1ec2;" horiz-adv-x="1008" 
d="M884 639h-489v-412h575v-227h-860v1456h858v-228h-573v-362h489v-227zM887 1847q0 61 -95 61l6 111q141 0 215 -43q74 -42 74 -108t-30 -96t-73 -38v-53h-179l-15 110q97 6 97 56zM882 1554l-2 -6h-246l-126 148l-125 -148h-245l-2 6l255 249h236z" />
    <glyph glyph-name="uni1EC3" unicode="&#x1ec3;" horiz-adv-x="938" 
d="M608 685q0 189 -119 189q-127 0 -136 -229h255v40zM513 -21q-204 0 -324 134t-120 338v152q-1 219 111 359t306 140t297 -127q104 -127 104 -346v-174h-535v-4q0 -107 48 -176t138 -69q89 0 139 18t119 60l72 -181q-56 -54 -150 -89t-205 -35zM839 1528q0 61 -95 61
l6 111q141 0 215 -43t74 -109t-30 -96t-73 -37v-53h-179l-15 110q97 6 97 56zM834 1235l-2 -6h-246l-126 148l-125 -148h-245l-2 6l255 249h236z" />
    <glyph glyph-name="uni1EC4" unicode="&#x1ec4;" horiz-adv-x="1008" 
d="M884 639h-489v-412h575v-227h-860v1456h858v-228h-573v-362h489v-227zM627 1864q-49 0 -113 36t-90 37q-48 0 -47 -84l-105 31q0 69 34 122t77 53q44 1 113 -35t94 -36q49 0 49 89l106 -40q-1 -69 -35 -121t-83 -52zM869 1576l-3 -6h-240l-125 132l-124 -132h-241l-3 6
l253 221h230z" />
    <glyph glyph-name="uni1EC5" unicode="&#x1ec5;" horiz-adv-x="938" 
d="M608 685q0 189 -119 189q-127 0 -136 -229h255v40zM513 -21q-204 0 -324 134t-120 338v152q-1 219 111 359t306 140t297 -127q104 -127 104 -346v-174h-535v-4q0 -107 48 -176t138 -69q89 0 139 18t119 60l72 -181q-56 -54 -150 -89t-205 -35zM579 1505q-49 1 -113 37
t-90 36q-48 0 -47 -84l-105 31q0 69 34 122t77 53q44 0 113 -36t94 -35q49 0 49 89l106 -40q-1 -69 -35 -121t-83 -52zM821 1217l-3 -6h-240l-125 132l-124 -132h-241l-3 6l253 221h230z" />
    <glyph glyph-name="uni1EC6" unicode="&#x1ec6;" horiz-adv-x="1008" 
d="M884 639h-489v-412h575v-227h-860v1456h858v-228h-573v-362h489v-227zM849 1591h-222l-114 134l-112 -134h-217v25l250 237h159l256 -240v-22zM672 -343h-316v241h316v-241z" />
    <glyph glyph-name="uni1EC7" unicode="&#x1ec7;" horiz-adv-x="938" 
d="M608 685q0 189 -119 189q-127 0 -136 -229h255v40zM513 -21q-204 0 -324 134t-120 338v152q-1 219 111 359t306 140t297 -127q104 -127 104 -346v-174h-535v-4q0 -107 48 -176t138 -69q89 0 139 18t119 60l72 -181q-56 -54 -150 -89t-205 -35zM801 1270h-222l-114 134
l-112 -134h-217v25l250 237h159l256 -240v-22zM653 -353h-316v241h316v-241z" />
    <glyph glyph-name="uni1EC8" unicode="&#x1ec8;" horiz-adv-x="534" 
d="M408 0h-283v1456h283v-1456zM253 1788q0 68 -109 68l6 131q168 0 256 -51t88 -142q0 -64 -36 -100t-86 -44v-63h-213l-17 129q60 3 86 19q26 17 25 53z" />
    <glyph glyph-name="uni1EC9" unicode="&#x1ec9;" horiz-adv-x="513" 
d="M398 0h-285v1082h285v-1082zM241 1446q0 68 -109 69l6 131q168 0 256 -51t88 -142q0 -64 -36 -100t-86 -44v-63h-213l-17 129q60 3 86 19t25 52z" />
    <glyph glyph-name="uni1ECA" unicode="&#x1eca;" horiz-adv-x="534" 
d="M408 0h-283v1456h283v-1456zM426 -344h-316v241h316v-241z" />
    </font>
</defs>
</svg>
